<svg id="Capa_1" enable-background="new 0 0 511.963 511.963" height="512" viewBox="0 0 511.963 511.963" width="512" xmlns="http://www.w3.org/2000/svg" xmlns:xlink="http://www.w3.org/1999/xlink"><linearGradient id="SVGID_1_" gradientUnits="userSpaceOnUse" x1="255.981" x2="255.981" y1="205.981" y2="465.981"><stop offset=".00000036422" stop-color="#a8abff"/><stop offset="1" stop-color="#fac8ff"/></linearGradient><linearGradient id="SVGID_2_" gradientUnits="userSpaceOnUse" x1="292.981" x2="292.981" y1="45.981" y2="205.981"><stop offset=".00000083866" stop-color="#96d1f3"/><stop offset="1" stop-color="#ccfff4"/></linearGradient><linearGradient id="SVGID_3_" gradientUnits="userSpaceOnUse" x1="255.981" x2="255.981" y1="38.481" y2="473.481"><stop offset=".00000011981" stop-color="#174fa3"/><stop offset="1" stop-color="#b044af"/></linearGradient><g><g><path d="m60.981 205.981h390v260h-390z" fill="url(#SVGID_1_)"/><path d="m352.981 45.981v50h-60v-30h-60v60h-80v80h280v-160z" fill="url(#SVGID_2_)"/><path d="m176.981 205.981-50 128h-116l50-128zm274 0h-274l47.5 128h276.5zm-111 188.001v40h80v-40z" fill="#fff"/></g><path d="m427.481 386.482h-95v55h95zm-15 39.999h-65v-25h65zm43.623-228h-15.622v-160h-95v50h-45v-30h-75v60h-80v80h-89.623l-55.859 143h53.481v132h405v-132h53.481zm-95.623-145h65v25h-65zm0 40h65v25h-65zm0 40h65v65h-65zm-60-30h45v95h-45zm-60-30h45v35h-45zm0 50h45v25h-45zm0 40h45v35h-45zm-80-30h65v65h-65zm-138.518 193 44.141-113h99.896l-44.141 113zm147.518 132h-101v-117h63.622l37.378-95.687zm274 0h-259v-210.732l34.783 93.732h224.217zm-213.783-132-41.934-113h258.095l44.141 113z" fill="url(#SVGID_3_)"/></g></svg>