<svg id="Capa_1" enable-background="new 0 0 511.606 511.606" height="512" viewBox="0 0 511.606 511.606" width="512" xmlns="http://www.w3.org/2000/svg" xmlns:xlink="http://www.w3.org/1999/xlink"><linearGradient id="SVGID_1_" gradientUnits="userSpaceOnUse" x1="256" x2="256" y1="413.856" y2="473.856"><stop offset=".00000083866" stop-color="#96d1f3"/><stop offset="1" stop-color="#ccfff4"/></linearGradient><linearGradient id="SVGID_2_" gradientUnits="userSpaceOnUse" x1="229.997" x2="229.997" y1="142.856" y2="352.856"><stop offset=".00000036422" stop-color="#a8abff"/><stop offset="1" stop-color="#fac8ff"/></linearGradient><linearGradient id="SVGID_3_" gradientUnits="userSpaceOnUse" x1="255.803" x2="255.803" y1=".25" y2="511.356"><stop offset=".00000011981" stop-color="#174fa3"/><stop offset="1" stop-color="#b044af"/></linearGradient><g><g><path d="m8 473.856h496v30h-496z" fill="#fff"/><path d="m491 473.856h-470v-60h203c17.673 0 32 14.327 32 32 0-17.673 14.327-32 32-32h203z" fill="url(#SVGID_1_)"/><path d="m345 352.856v-150h-.004c-57.502 0-57.502-60-115.004-60-57.499 0-57.499 60-114.998 60h.006v150z" fill="url(#SVGID_2_)"/></g><path d="m498.5 406.356h-210.5c-13.147 0-24.816 6.458-32 16.367-7.184-9.909-18.853-16.367-32-16.367h-210.5v60h-13v45h511v-45h-13zm-235 39.5c0-13.51 10.991-24.5 24.5-24.5h195.5v45h-220zm-235-24.5h195.5c13.509 0 24.5 10.99 24.5 24.5v20.5h-220zm468 75h-481v-15h481zm-468-107.5h15v-28.5h439.393l-17.197 17.196 10.606 10.607 35.303-35.304-35.303-35.304-10.606 10.607 17.197 17.196h-130.393v-135.34c27.107-2.454 42.082-18.058 55.413-31.968 14.239-14.857 26.536-27.689 52.087-27.689v-15c-31.952 0-48.402 17.166-62.917 32.311-14.239 14.858-26.536 27.689-52.086 27.689-25.551 0-37.848-12.832-52.087-27.689-14.515-15.145-30.965-32.311-62.917-32.311-31.95 0-48.4 17.166-62.915 32.311-14.238 14.858-26.535 27.689-52.084 27.689-25.548 0-37.844-12.831-52.082-27.689-5.858-6.112-12.032-12.553-19.413-18.062v-120.643l17.198 17.197 10.606-10.607-35.303-35.303-35.303 35.303 10.606 10.607 17.197-17.197v111.916c-7.983-3.401-17.283-5.522-28.5-5.522v15c11.845 0 20.838 2.761 28.5 7.2v187.8h-28.5v15h28.5zm201.493-238.5c25.55 0 37.848 12.831 52.086 27.689 13.332 13.911 28.308 29.517 55.42 31.968v64.605l-122.525-122.534c4.479-1.114 9.432-1.728 15.019-1.728zm-29.912 8.048 137.419 137.429v35.347l-156.425-156.425c6.074-6.275 12.001-12.015 19.006-16.351zm-29.465 27.106 159.847 159.847h-35.356l-144.218-144.219c7.615-4.398 13.958-9.937 19.727-15.628zm-48.116 24.503c4.883-.442 9.38-1.304 13.536-2.513l137.857 137.856h-35.356l-116.037-116.036zm0 40.521 94.823 94.823h-35.356l-59.467-59.468zm0 56.569 38.253 38.253h-38.253zm-79-137.785c2.866 2.765 5.684 5.703 8.583 8.728 13.331 13.911 28.307 29.517 55.417 31.968v135.342h-64zm270-116.962h-16.5v-15h16.5v-9.5c0-15.163 12.336-27.5 27.5-27.5h14v15h-14c-6.893 0-12.5 5.607-12.5 12.5v9.5h16.5v15h-16.5v47.5h-15zm47 15.5c0-18.472 15.028-33.5 33.5-33.5v15c-10.201 0-18.5 8.299-18.5 18.5s8.299 18.5 18.5 18.5v15c-18.472 0-33.5-15.028-33.5-33.5zm117.5 33.5v-15c10.201 0 18.5-8.299 18.5-18.5s-8.299-18.5-18.5-18.5v-15c18.472 0 33.5 15.028 33.5 33.5s-15.028 33.5-33.5 33.5zm-70.303-13.803 19.696-19.696-19.696-19.697 10.606-10.607 19.697 19.697 19.697-19.697 10.606 10.607-19.696 19.696 19.696 19.696-10.606 10.608-19.697-19.697-19.697 19.697z" fill="url(#SVGID_3_)"/></g></svg>