<svg id="Capa_1" enable-background="new 0 0 511 511" height="512" viewBox="0 0 511 511" width="512" xmlns="http://www.w3.org/2000/svg" xmlns:xlink="http://www.w3.org/1999/xlink"><linearGradient id="SVGID_1_" gradientUnits="userSpaceOnUse" x1="255.5" x2="255.5" y1="7.5" y2="243.5"><stop offset=".00000083866" stop-color="#96d1f3"/><stop offset="1" stop-color="#ccfff4"/></linearGradient><linearGradient id="SVGID_2_" gradientUnits="userSpaceOnUse" x1="255.5" x2="255.5" y1="296.5" y2="452.5"><stop offset=".00000036422" stop-color="#a8abff"/><stop offset="1" stop-color="#fac8ff"/></linearGradient><linearGradient id="SVGID_3_" gradientUnits="userSpaceOnUse" x1="255.5" x2="255.5" y1="0" y2="511"><stop offset=".00000011981" stop-color="#174fa3"/><stop offset="1" stop-color="#b044af"/></linearGradient><g><g><path d="m85.5 243.5v-236h270l70 70v166z" fill="url(#SVGID_1_)"/><path d="m445.5 503.5h-380c-16.569 0-30-13.431-30-30v-260c0-16.569 13.431-30 30-30h111c11.354 0 22.369 3.864 31.235 10.957l47.609 38.087c8.866 7.093 19.881 10.957 31.235 10.957h158.921c16.569 0 30 23.431 30 40v190c0 16.568-13.431 29.999-30 29.999z" fill="#fff"/><path d="m370.5 341.5-115-45-115 45 45 17.609v69.225s19.091 24.167 70 24.167 70-24.167 70-24.167v-69.225z" fill="url(#SVGID_2_)"/><g fill="#fff"><path d="m355.5 7.5v70h70z"/><path d="m191.172 94.118c3.934-4.418 6.328-10.237 6.328-16.618v-10c0-13.807-11.193-25-25-25s-25 11.193-25 25v10c0 6.381 2.394 12.2 6.328 16.618-18.362 7.399-31.328 25.371-31.328 46.382v10h100v-10c0-21.011-12.966-38.983-31.328-46.382z"/></g></g><path d="m445.5 236h-12.5v-161.606l-74.394-74.394h-280.606v176h-12.5c-20.678 0-37.5 16.822-37.5 37.5v260c0 20.678 16.822 37.5 37.5 37.5h380c20.678 0 37.5-16.822 37.5-37.5v-190c0-18.91-14.957-47.5-37.5-47.5zm-82.5-210.394 44.394 44.394h-44.394zm-270-10.606h255v70h70v151h-131.422c-9.613 0-19.042-3.308-26.55-9.313l-47.608-38.087c-10.156-8.125-22.913-12.6-35.92-12.6h-83.5zm375 458.5c0 12.407-10.093 22.5-22.5 22.5h-380c-12.407 0-22.5-10.093-22.5-22.5v-260c0-12.407 10.093-22.5 22.5-22.5h111c9.614 0 19.043 3.308 26.55 9.313l47.608 38.087c10.157 8.125 22.914 12.6 35.92 12.6h158.922c11.162 0 22.5 18.909 22.5 32.5zm-348.082-132 58.082 22.728v71.277l2.075 2.174c.87.911 21.922 22.321 75.425 22.321s74.555-21.41 75.425-22.321l2.075-2.174v-71.277l26-10.174v67.446h15v-73.316l17.082-6.684-135.582-53.054zm198.082 87.527c-5.97 4.485-24.936 15.973-62.5 15.973-37.626 0-56.592-11.526-62.5-15.965v-58.938l62.5 24.456 62.5-24.456zm-62.5-50.581-94.418-36.946 94.418-36.946 94.418 36.946zm-25.5-237.946c0-20.566-10.749-39.117-28.004-49.377 1.923-4.147 3.004-8.76 3.004-13.623v-10c0-17.92-14.58-32.5-32.5-32.5s-32.5 14.58-32.5 32.5v10c0 4.863 1.081 9.476 3.004 13.623-17.255 10.26-28.004 28.811-28.004 49.377v17.5h115zm-75-73c0-9.649 7.851-17.5 17.5-17.5s17.5 7.851 17.5 17.5v10c0 9.649-7.851 17.5-17.5 17.5s-17.5-7.851-17.5-17.5zm60 75.5h-85v-2.5c0-15.876 8.665-30.126 22.424-37.471 5.532 4.36 12.503 6.971 20.076 6.971s14.544-2.611 20.076-6.971c13.759 7.345 22.424 21.595 22.424 37.471zm178.5-16h-134v-15h134zm-64-30h-70v-15h70zm0-30h-70v-15h70zm64 90h-134v-15h134zm-40 30h-94v-15h94z" fill="url(#SVGID_3_)"/></g></svg>