<svg id="Capa_1" enable-background="new 0 0 511 511" height="512" viewBox="0 0 511 511" width="512" xmlns="http://www.w3.org/2000/svg" xmlns:xlink="http://www.w3.org/1999/xlink"><linearGradient id="SVGID_1_" gradientUnits="userSpaceOnUse" x1="255.5" x2="255.5" y1="167.5" y2="407.5"><stop offset=".00000083866" stop-color="#96d1f3"/><stop offset="1" stop-color="#ccfff4"/></linearGradient><linearGradient id="SVGID_2_" gradientUnits="userSpaceOnUse" x1="142.5" x2="142.5" y1="7.5" y2="277.5"><stop offset=".00000036422" stop-color="#a8abff"/><stop offset="1" stop-color="#fac8ff"/></linearGradient><linearGradient id="SVGID_3_" gradientUnits="userSpaceOnUse" x1="255.5" x2="255.5" y1="0" y2="511"><stop offset=".00000011981" stop-color="#174fa3"/><stop offset="1" stop-color="#b044af"/></linearGradient><g><g><path d="m485.5 471.5v-314c0-16.569-13.431-30-30-30h-400c-16.569 0-30 13.431-30 30v314z" fill="#fff"/><path d="m65.5 167.5h380v240h-380z" fill="url(#SVGID_1_)"/><path d="m326.5 447.5c0 7.732-6.268 14-14 14h-114c-7.732 0-14-6.268-14-14h-177v26c0 16.569 13.431 30 30 30h436c16.569 0 30-13.431 30-30v-26z" fill="#fff"/><path d="m483.5 318.5h-72v49l-78-49h-80c-11.046 0-20-8.954-20-20v-181c0-11.046 8.954-20 20-20h230c11.046 0 20 8.954 20 20v181c0 11.046-8.954 20-20 20z" fill="#fff"/><path d="m27.5 228.5h72v49l78-49h80c11.046 0 20-8.954 20-20v-181c0-11.046-8.954-20-20-20h-230c-11.046 0-20 8.954-20 20v181c0 11.046 8.954 20 20 20z" fill="url(#SVGID_2_)"/></g><path d="m511 298.5v-181c0-15.164-12.337-27.5-27.5-27.5h-198.5v-62.5c0-15.164-12.337-27.5-27.5-27.5h-230c-15.163 0-27.5 12.336-27.5 27.5v181c0 11.826 7.504 21.931 18 25.807v205.693h-18v33.5c0 20.678 16.822 37.5 37.5 37.5h436c20.678 0 37.5-16.822 37.5-37.5v-33.5h-18v-115.693c10.496-3.876 18-13.981 18-25.807zm-496-90v-181c0-6.893 5.607-12.5 12.5-12.5h230c6.893 0 12.5 5.607 12.5 12.5v181c0 6.893-5.607 12.5-12.5 12.5h-82.16l-68.34 42.931v-42.931h-79.5c-6.893 0-12.5-5.607-12.5-12.5zm18 231.5v-204h25v179h395v-89h25v114h-159v7.5c0 3.584-2.916 6.5-6.5 6.5h-114c-3.584 0-6.5-2.916-6.5-6.5v-7.5zm405-40h-365v-164h19v55.069l87.66-55.069h46.34v62.5c0 15.164 12.337 27.5 27.5 27.5h77.84l87.66 55.069v-55.069h19zm58 55v18.5c0 12.407-10.094 22.5-22.5 22.5h-436c-12.406 0-22.5-10.093-22.5-22.5v-18.5h163.35c3.05 8.168 10.932 14 20.15 14h114c9.219 0 17.101-5.832 20.15-14zm-12.5-144h-79.5v42.931l-68.34-42.931h-82.16c-6.893 0-12.5-5.607-12.5-12.5v-62.5h16.5c15.163 0 27.5-12.336 27.5-27.5v-103.5h198.5c6.893 0 12.5 5.607 12.5 12.5v181c0 6.893-5.607 12.5-12.5 12.5zm-373.5-164h65v32.5h15v-80c0-26.191-21.309-47.5-47.5-47.5s-47.5 21.309-47.5 47.5v80h15zm0-47.5c0-17.92 14.579-32.5 32.5-32.5s32.5 14.58 32.5 32.5v32.5h-65zm266 43h-15v22.5h-57.5v15h22.949c3.833 13.205 14.206 28.119 30.976 44.54-15.755 13.745-32.364 25.516-41.958 31.636l8.064 12.648c.835-.532 20.682-13.236 41.466-30.998 1.193-1.019 2.355-2.031 3.503-3.04 1.148 1.009 2.31 2.021 3.503 3.04 20.784 17.762 40.631 30.465 41.466 30.998l8.062-12.648c-9.595-6.117-26.207-17.884-41.964-31.628 16.774-16.424 27.149-31.341 30.983-44.547h22.95v-15h-57.5zm18.708 37.5c-4.504 10.947-14.515 22.997-26.215 34.372-11.695-11.372-21.7-23.42-26.202-34.372z" fill="url(#SVGID_3_)"/></g></svg>