<svg id="Capa_1" enable-background="new 0 0 511 511" height="512" viewBox="0 0 511 511" width="512" xmlns="http://www.w3.org/2000/svg" xmlns:xlink="http://www.w3.org/1999/xlink"><linearGradient id="SVGID_1_" gradientUnits="userSpaceOnUse" x1="255.5" x2="255.5" y1="57.377" y2="271.377"><stop offset=".00000036422" stop-color="#a8abff"/><stop offset="1" stop-color="#fac8ff"/></linearGradient><linearGradient id="SVGID_2_" gradientUnits="userSpaceOnUse" x1="255.5" x2="255.5" y1=".124" y2="510.877"><stop offset=".00000011981" stop-color="#174fa3"/><stop offset="1" stop-color="#b044af"/></linearGradient><g><g><path d="m7.5 473.376h496v30h-496z" fill="#fff"/><path d="m490.5 473.376h-470v-60h203c17.673 0 32 14.327 32 32 0-17.673 14.327-32 32-32h203z" fill="#fff"/><path d="m295.5 57.376c-10.583 0-20.654 3.13-29.783 8.774-6.277 3.881-14.157 3.881-20.434 0-9.129-5.644-19.2-8.774-29.783-8.774-41.421 0-75 33.532-75 92.627s44.722 121.373 75 121.373c9.192 0 17.996-.915 26.134-4.148 8.883-3.53 18.85-3.53 27.733 0 8.137 3.234 16.942 4.148 26.134 4.148 30.278 0 75-62.279 75-121.373s-33.58-92.627-75.001-92.627z" fill="url(#SVGID_1_)"/></g><path d="m498 465.876v-60h-210.5c-13.147 0-24.816 6.458-32 16.367-7.184-9.909-18.853-16.367-32-16.367h-210.5v60h-13v45h511v-45zm-235-20.5c0-13.509 10.99-24.5 24.5-24.5h195.5v45h-220zm-235-24.5h195.5c13.51 0 24.5 10.991 24.5 24.5v20.5h-220zm468 75h-481v-15h481zm-280.5-217c11.687 0 20.871-1.486 28.903-4.678 7.156-2.843 15.037-2.843 22.193 0 8.032 3.192 17.217 4.678 28.903 4.678 17.409 0 38.021-15.675 55.137-41.93 17.39-26.675 27.364-58.364 27.364-86.943 0-29.919-8.224-55.289-23.782-73.366-14.852-17.257-35.705-26.761-58.718-26.761-10.992 0-21.626 2.911-31.644 8.655l.108-1.402c1.558-20.252 15.802-37.332 35.444-42.5l-3.816-14.506c-25.816 6.793-44.536 29.24-46.583 55.856l-.269 3.501c-10.481-6.369-21.661-9.604-33.24-9.604-23.013 0-43.866 9.504-58.718 26.761-15.558 18.078-23.782 43.447-23.782 73.366 0 28.578 9.974 60.268 27.363 86.943 17.116 26.256 37.728 41.93 55.137 41.93zm0-214c8.931 0 17.624 2.575 25.839 7.653 8.736 5.4 19.589 5.4 28.321 0 8.216-5.078 16.909-7.653 25.84-7.653 40.374 0 67.5 34.21 67.5 85.127 0 25.745-9.086 54.449-24.929 78.751-13.909 21.336-30.619 35.122-42.571 35.122-9.729 0-17.152-1.149-23.364-3.618-5.364-2.132-10.999-3.197-16.636-3.197-5.636 0-11.272 1.066-16.636 3.197-6.212 2.468-13.636 3.618-23.364 3.618-11.952 0-28.662-13.786-42.571-35.122-15.843-24.302-24.929-53.005-24.929-78.751 0-50.917 27.126-85.127 67.5-85.127zm-44 307h-47.5v-75h47.5v15h-32.5v15h32.5v15h-32.5v15h32.5zm54-30h-30v-15h30zm-30 15h30v15h-30zm112.5 14.5v-30c0-4.136-3.364-7.5-7.5-7.5s-7.5 3.364-7.5 7.5v30h-15v-30c0-4.136-3.364-7.5-7.5-7.5s-7.5 3.364-7.5 7.5v30h-15v-30c0-12.407 10.094-22.5 22.5-22.5 5.758 0 11.016 2.177 15 5.748 3.984-3.571 9.242-5.748 15-5.748 12.406 0 22.5 10.093 22.5 22.5v30zm45-27c0 6.893 5.607 12.5 12.5 12.5 4.162 0 7.026-1.991 8.696-3.661l10.607 10.606c-5.194 5.194-12.05 8.055-19.304 8.055-15.163 0-27.5-12.336-27.5-27.5s12.337-27.5 27.5-27.5c7.254 0 14.109 2.86 19.304 8.055l-10.607 10.606c-1.67-1.67-4.534-3.661-8.696-3.661-6.893 0-12.5 5.608-12.5 12.5zm74.5-39.5h-45.5v-14.104l26.567-21.254c2.182-1.745 3.433-4.348 3.433-7.141 0-4.136-3.364-7.5-7.5-7.5s-7.5 3.364-7.5 7.5v5h-15v-5c0-12.407 10.094-22.5 22.5-22.5s22.5 10.093 22.5 22.5c0 7.375-3.303 14.247-9.062 18.854l-10.808 8.646h20.37z" fill="url(#SVGID_2_)"/></g></svg>