<svg id="Capa_1" enable-background="new 0 0 511 511" height="512" viewBox="0 0 511 511" width="512" xmlns="http://www.w3.org/2000/svg" xmlns:xlink="http://www.w3.org/1999/xlink"><linearGradient id="SVGID_1_" gradientUnits="userSpaceOnUse" x1="255.5" x2="255.5" y1="201.5" y2="315.5"><stop offset=".00000036422" stop-color="#a8abff"/><stop offset="1" stop-color="#fac8ff"/></linearGradient><linearGradient id="SVGID_2_" gradientUnits="userSpaceOnUse" x1="255.5" x2="255.5" y1="131.5" y2="375.5"><stop offset=".00000083866" stop-color="#96d1f3"/><stop offset="1" stop-color="#ccfff4"/></linearGradient><linearGradient id="SVGID_3_" gradientUnits="userSpaceOnUse" x1="255.5" x2="255.5" y1="0" y2="511"><stop offset=".00000011981" stop-color="#174fa3"/><stop offset="1" stop-color="#b044af"/></linearGradient><g><g><path d="m488.5 433.5h-5v-356h5c8.284 0 15-6.716 15-15s-6.716-15-15-15h-15v-25c0-8.284-6.716-15-15-15s-15 6.716-15 15v25h-15c-8.284 0-15 6.716-15 15s6.716 15 15 15h5v28h-356v-28h5c8.284 0 15-6.716 15-15s-6.716-15-15-15h-15v-25c0-8.284-6.716-15-15-15s-15 6.716-15 15v25h-15c-8.284 0-15 6.716-15 15s6.716 15 15 15h5v356h-5c-8.284 0-15 6.716-15 15s6.716 15 15 15h15v25c0 8.284 6.716 15 15 15s15-6.716 15-15v-25h15c8.284 0 15-6.716 15-15s-6.716-15-15-15h-5v-28h356v28h-5c-8.284 0-15 6.716-15 15s6.716 15 15 15h15v25c0 8.284 6.716 15 15 15s15-6.716 15-15v-25h15c8.284 0 15-6.716 15-15s-6.716-15-15-15z" fill="#fff"/><path d="m375.5 216.5c0 8.284-6.716 15-15 15v84h-30v-84c-8.284 0-15-6.716-15-15s6.716-15 15-15h30c8.284 0 15 6.716 15 15zm-105-15h-30c-8.284 0-15 6.716-15 15s6.716 15 15 15v84h30v-84c8.284 0 15-6.716 15-15s-6.716-15-15-15zm-90 0h-30c-8.284 0-15 6.716-15 15s6.716 15 15 15v84h30v-84c8.284 0 15-6.716 15-15s-6.716-15-15-15z" fill="url(#SVGID_1_)"/><path d="m370.5 345.5h15v30h-260v-30h15v-30h230zm-115-214-135 46v24h270v-24z" fill="url(#SVGID_2_)"/></g><path d="m393 338h-15v-30h-10v-70.29c8.729-3.096 15-11.432 15-21.21 0-2.629-.458-5.153-1.29-7.5h16.29v-36.868l-142.5-48.556-142.5 48.556v36.868h16.29c-.833 2.347-1.29 4.871-1.29 7.5 0 9.778 6.271 18.114 15 21.21v70.29h-10v30h-15v30h-17.5v15h310v-15h-17.5zm-32.5-114h-30c-4.136 0-7.5-3.364-7.5-7.5s3.364-7.5 7.5-7.5h30c4.136 0 7.5 3.364 7.5 7.5s-3.364 7.5-7.5 7.5zm-158.79-15h17.58c-.833 2.347-1.29 4.871-1.29 7.5 0 9.778 6.271 18.114 15 21.21v70.29h-45v-70.29c8.729-3.096 15-11.432 15-21.21 0-2.629-.458-5.153-1.29-7.5zm-21.21 15h-30c-4.136 0-7.5-3.364-7.5-7.5s3.364-7.5 7.5-7.5h30c4.136 0 7.5 3.364 7.5 7.5s-3.364 7.5-7.5 7.5zm-7.5 15v69h-15v-69zm-25 84h215v15h-215zm143.71-114h17.58c-.833 2.347-1.29 4.871-1.29 7.5 0 9.778 6.271 18.114 15 21.21v70.29h-45v-70.29c8.729-3.096 15-11.432 15-21.21 0-2.629-.458-5.153-1.29-7.5zm-21.21 15h-30c-4.136 0-7.5-3.364-7.5-7.5s3.364-7.5 7.5-7.5h30c4.136 0 7.5 3.364 7.5 7.5s-3.364 7.5-7.5 7.5zm-7.5 15v69h-15v-69zm75 69v-69h15v69zm-210-114v-11.132l127.5-43.444 127.5 43.444v11.132h-22.5-30-60-30-60-30zm250 174h-245v-15h245zm113 58.142v-341.284c11.234-1.248 20-10.796 20-22.358 0-12.407-10.093-22.5-22.5-22.5h-7.5v-17.5c0-12.407-10.093-22.5-22.5-22.5s-22.5 10.093-22.5 22.5v17.5h-7.5c-12.407 0-22.5 10.093-22.5 22.5 0 11.561 8.766 21.11 20 22.358v13.142h-341v-13.142c11.234-1.248 20-10.796 20-22.358 0-12.407-10.093-22.5-22.5-22.5h-7.5v-17.5c0-12.407-10.093-22.5-22.5-22.5s-22.5 10.093-22.5 22.5v17.5h-7.5c-12.407 0-22.5 10.093-22.5 22.5 0 11.561 8.766 21.11 20 22.358v341.284c-11.234 1.248-20 10.797-20 22.358 0 12.407 10.093 22.5 22.5 22.5h7.5v17.5c0 12.407 10.093 22.5 22.5 22.5s22.5-10.093 22.5-22.5v-17.5h7.5c12.407 0 22.5-10.093 22.5-22.5 0-11.561-8.766-21.11-20-22.358v-13.142h341v13.142c-11.234 1.248-20 10.796-20 22.358 0 12.407 10.093 22.5 22.5 22.5h7.5v17.5c0 12.407 10.093 22.5 22.5 22.5s22.5-10.093 22.5-22.5v-17.5h7.5c12.407 0 22.5-10.093 22.5-22.5 0-11.561-8.766-21.11-20-22.358zm-40-403.642c0-4.136 3.364-7.5 7.5-7.5s7.5 3.364 7.5 7.5v17.5h-15zm-30 40c0-4.136 3.364-7.5 7.5-7.5h60c4.136 0 7.5 3.364 7.5 7.5s-3.364 7.5-7.5 7.5h-60c-4.136 0-7.5-3.364-7.5-7.5zm55 22.5v341h-35v-341zm-431-62.5c0-4.136 3.364-7.5 7.5-7.5s7.5 3.364 7.5 7.5v17.5h-15zm15 466c0 4.136-3.364 7.5-7.5 7.5s-7.5-3.364-7.5-7.5v-17.5h15zm30-40c0 4.136-3.364 7.5-7.5 7.5h-60c-4.136 0-7.5-3.364-7.5-7.5s3.364-7.5 7.5-7.5h60c4.136 0 7.5 3.364 7.5 7.5zm-55-22.5v-341h35v341zm47.5-356h-60c-4.136 0-7.5-3.364-7.5-7.5s3.364-7.5 7.5-7.5h60c4.136 0 7.5 3.364 7.5 7.5s-3.364 7.5-7.5 7.5zm2.5 328v-285h341v285zm381 90.5c0 4.136-3.364 7.5-7.5 7.5s-7.5-3.364-7.5-7.5v-17.5h15zm22.5-32.5h-60c-4.136 0-7.5-3.364-7.5-7.5s3.364-7.5 7.5-7.5h60c4.136 0 7.5 3.364 7.5 7.5s-3.364 7.5-7.5 7.5z" fill="url(#SVGID_3_)"/></g></svg>