<svg id="Capa_1" enable-background="new 0 0 511.309 511.309" height="512" viewBox="0 0 511.309 511.309" width="512" xmlns="http://www.w3.org/2000/svg" xmlns:xlink="http://www.w3.org/1999/xlink"><linearGradient id="SVGID_1_" gradientUnits="userSpaceOnUse" x1="255.655" x2="255.655" y1="163.809" y2="283.809"><stop offset=".00000036422" stop-color="#a8abff"/><stop offset="1" stop-color="#fac8ff"/></linearGradient><linearGradient id="SVGID_2_" gradientUnits="userSpaceOnUse" x1="255.655" x2="255.655" y1="0" y2="511.309"><stop offset=".00000011981" stop-color="#174fa3"/><stop offset="1" stop-color="#b044af"/></linearGradient><g><g><path d="m460.655 223.809v-60h-410v60h-15v60h440v-60z" fill="url(#SVGID_1_)"/><g fill="#fff"><path d="m490.655 473.809v-60h-203c-17.673 0-32 14.327-32 32 0-17.673-14.327-32-32-32h-203v60h-13v30h496v-30z"/><path d="m75.655 223.809h360v30h-360z"/><g><path d="m115.655 283.809h-50c-8.284 0-15 6.716-15 15s6.716 15 15 15l10 100h30l10-100c8.284 0 15-6.716 15-15s-6.716-15-15-15z"/><path d="m445.655 283.809h-50c-8.284 0-15 6.716-15 15s6.716 15 15 15l10 100h30l10-100c8.284 0 15-6.716 15-15s-6.716-15-15-15z"/><path d="m290.655 123.809h-70c-8.284 0-15 6.716-15 15v25h100v-25c0-8.284-6.716-15-15-15z"/></g></g></g><path d="m498.155 466.309v-60h-54.212l8.609-86.085c9.043-2.919 15.604-11.413 15.604-21.415 0-2.629-.458-5.153-1.29-7.5h16.29v-75h-15v-60h-34.038l-70.017-128.977 29.698-13.714-6.289-13.618-344.355 159.011v57.298h-15v75h16.29c-.833 2.347-1.29 4.871-1.29 7.5 0 10.002 6.561 18.496 15.604 21.415l8.609 86.085h-54.213v60h-13v45h511v-45zm-15-45v45h-220v-20.5c0-13.509 10.991-24.5 24.5-24.5zm-346.29-130h237.58c-.833 2.347-1.29 4.871-1.29 7.5 0 10.002 6.561 18.496 15.604 21.415l8.609 86.085h-109.713c-13.147 0-24.816 6.458-32 16.367-7.184-9.909-18.853-16.367-32-16.367h-109.713l8.609-86.085c9.043-2.919 15.604-11.413 15.604-21.415 0-2.629-.458-5.153-1.29-7.5zm267.077 30h33.425l-8.5 85h-16.425zm41.713-15h-50c-4.136 0-7.5-3.364-7.5-7.5s3.364-7.5 7.5-7.5h50c4.136 0 7.5 3.364 7.5 7.5s-3.365 7.5-7.5 7.5zm-95.201-272.676 66.595 122.676h-103.894v-17.5c0-12.407-10.093-22.5-22.5-22.5h-70c-12.407 0-22.5 10.093-22.5 22.5v17.5h-113.368zm-52.299 105.176v17.5h-85v-17.5c0-4.136 3.364-7.5 7.5-7.5h70c4.135 0 7.5 3.364 7.5 7.5zm-240 32.5h395v45h-395zm370 60v15h-30v-15zm-45 0v15h-30v-15zm-45 0v15h-30v-15zm-45 0v15h-30v-15zm-45 0v15h-30v-15zm-45 0v15h-30v-15zm-45 0v15h-30v-15zm-45 0v15h-30v-15zm-70 45v-45h25v30h375v-30h25v45zm22.5 30c-4.136 0-7.5-3.364-7.5-7.5s3.364-7.5 7.5-7.5h50c4.136 0 7.5 3.364 7.5 7.5s-3.364 7.5-7.5 7.5zm41.712 15-8.5 85h-16.425l-8.5-85zm-79.212 100h195.5c13.509 0 24.5 10.991 24.5 24.5v20.5h-220zm468 75h-481v-15h481z" fill="url(#SVGID_2_)"/></g></svg>