<svg id="Capa_1" enable-background="new 0 0 511 511" height="512" viewBox="0 0 511 511" width="512" xmlns="http://www.w3.org/2000/svg" xmlns:xlink="http://www.w3.org/1999/xlink"><linearGradient id="SVGID_1_" gradientUnits="userSpaceOnUse" x1="255.5" x2="255.5" y1="55.5" y2="321.5"><stop offset=".00000083866" stop-color="#96d1f3"/><stop offset="1" stop-color="#ccfff4"/></linearGradient><linearGradient id="SVGID_2_" gradientUnits="userSpaceOnUse" x1="255.5" x2="255.5" y1="203.5" y2="253.5"><stop offset=".00000036422" stop-color="#a8abff"/><stop offset="1" stop-color="#fac8ff"/></linearGradient><linearGradient id="SVGID_3_" gradientUnits="userSpaceOnUse" x1="255.5" x2="255.5" y1="0" y2="511"><stop offset=".00000011981" stop-color="#174fa3"/><stop offset="1" stop-color="#b044af"/></linearGradient><g><g><path d="m380.5 473.5v30h-250v-30h39l30-68h112l30 68z" fill="#fff"/><path d="m503.5 321.5v-236c0-16.569-13.431-30-30-30h-436c-16.569 0-30 13.431-30 30v236z" fill="url(#SVGID_1_)"/><path d="m7.5 313.5v62c0 16.569 13.431 30 30 30h436c16.569 0 30-13.431 30-30v-62z" fill="#fff"/><path d="m95.5 7.5h320v246h-320z" fill="#fff"/><path d="m55.5 253.5h400v30h-400z" fill="#fff"/><path d="m70.5 283.5h370v30h-370z" fill="#fff"/><path d="m170.5 253.5h-90v-30c0-11.046 8.954-20 20-20h50c11.046 0 20 8.954 20 20zm170 0h90v-30c0-11.046-8.954-20-20-20h-50c-11.046 0-20 8.954-20 20zm-130 0h90v-30c0-11.046-8.954-20-20-20h-50c-11.046 0-20 8.954-20 20z" fill="url(#SVGID_2_)"/><g fill="#fff"><path d="m126.5 123.5h30v50h-30z"/><path d="m156.5 123.5h30v50h-30z"/><path d="m186.5 123.5h30v50h-30z"/><path d="m356.5 123.5h30v50h-30z" transform="matrix(-1 0 0 -1 743 297)"/><path d="m326.5 123.5h30v50h-30z" transform="matrix(-1 0 0 -1 683 297)"/><path d="m256.5 123.5h30v50h-30z" transform="matrix(-1 0 0 -1 543 297)"/><path d="m296.5 41.5h30v50h-30z" transform="matrix(-1 0 0 -1 623 133)"/><path d="m326.5 41.5h30v50h-30z" transform="matrix(-1 0 0 -1 683 133)"/><path d="m176.5 41.5h30v50h-30z" transform="matrix(-1 0 0 -1 383 133)"/><path d="m206.5 41.5h30v50h-30z" transform="matrix(-1 0 0 -1 443 133)"/><path d="m356.5 41.5h30v50h-30z" transform="matrix(-1 0 0 -1 743 133)"/></g></g><path d="m473.5 48h-50.5v-48h-335v48h-50.5c-20.678 0-37.5 16.822-37.5 37.5v290c0 20.678 16.822 37.5 37.5 37.5h150.494l-23.382 53h-41.612v45h265v-45h-41.612l-23.382-53h150.494c20.678 0 37.5-16.822 37.5-37.5v-290c0-20.678-16.822-37.5-37.5-37.5zm-50.5 175.5v22.5h-75v-22.5c0-6.893 5.607-12.5 12.5-12.5h50c6.893 0 12.5 5.607 12.5 12.5zm-360 52.5v-15h385v15zm370 15v15h-355v-15zm-215-45v-22.5c0-6.893 5.607-12.5 12.5-12.5h50c6.893 0 12.5 5.607 12.5 12.5v22.5zm-115-231h305v69h-14v-50h-105v50h-45v-50h-75v50h-66zm276 34v35h-15v-35zm-30 0v35h-15v-35zm-30 0v35h-15v-35zm-90 0v35h-15v-35zm-30 0v35h-15v-35zm-96 50h305v67h-14v-50h-75v50h-25v-50h-45v50h-25v-50h-105v50h-16zm276 32v35h-15v-35zm-30 0v35h-15v-35zm-70 0v35h-15v-35zm-70 0v35h-15v-35zm-30 0v35h-15v-35zm-30 0v35h-15v-35zm-46 50h305v15h-47.5c-15.163 0-27.5 12.336-27.5 27.5v22.5h-25v-22.5c0-15.164-12.337-27.5-27.5-27.5h-50c-15.164 0-27.5 12.336-27.5 27.5v22.5h-25v-22.5c0-15.164-12.336-27.5-27.5-27.5h-47.5zm-2.5 30h50c6.893 0 12.5 5.607 12.5 12.5v22.5h-75v-22.5c0-6.893 5.607-12.5 12.5-12.5zm-85.5-125.5c0-12.407 10.093-22.5 22.5-22.5h50.5v136.018c-8.895 4.56-15 13.819-15 24.482v22.5h-25v45h15v15h-48zm358 395.5v15h-235v-15zm-43.006-15h-148.988l23.382-53h102.223zm166.006-90.5c0 12.407-10.094 22.5-22.5 22.5h-436c-12.407 0-22.5-10.093-22.5-22.5v-54.5h481zm0-69.5h-48v-15h15v-45h-25v-22.5c0-10.664-6.105-19.922-15-24.482v-136.018h50.5c12.406 0 22.5 10.093 22.5 22.5zm-240.5 76c12.406 0 22.5-10.093 22.5-22.5s-10.094-22.5-22.5-22.5c-12.407 0-22.5 10.093-22.5 22.5s10.093 22.5 22.5 22.5zm0-30c4.136 0 7.5 3.364 7.5 7.5s-3.364 7.5-7.5 7.5-7.5-3.364-7.5-7.5 3.364-7.5 7.5-7.5z" fill="url(#SVGID_3_)"/></g></svg>