<svg id="Capa_1" enable-background="new 0 0 511.005 511.005" height="512" viewBox="0 0 511.005 511.005" width="512" xmlns="http://www.w3.org/2000/svg" xmlns:xlink="http://www.w3.org/1999/xlink"><linearGradient id="SVGID_1_" gradientUnits="userSpaceOnUse" x1="255.503" x2="255.503" y1="473.505" y2="503.505"><stop offset=".00000036422" stop-color="#a8abff"/><stop offset="1" stop-color="#fac8ff"/></linearGradient><linearGradient id="SVGID_2_" gradientUnits="userSpaceOnUse" x1="255.503" x2="255.503" y1="285.505" y2="383.505"><stop offset=".00000083866" stop-color="#96d1f3"/><stop offset="1" stop-color="#ccfff4"/></linearGradient><linearGradient id="SVGID_3_" gradientUnits="userSpaceOnUse" x1="255.503" x2="255.503" y1="0" y2="511.005"><stop offset=".00000011981" stop-color="#174fa3"/><stop offset="1" stop-color="#b044af"/></linearGradient><g><g><path d="m7.502 473.505h496v30h-496z" fill="url(#SVGID_1_)"/><g fill="#fff"><path d="m490.503 473.505h-470v-60h203c17.673 0 32 14.327 32 32 0-17.673 14.327-32 32-32h203z"/><path d="m254.579 101.581s-36.554 6.041-55.374-12.779-12.779-55.374-12.779-55.374 36.554-6.041 55.374 12.779 12.779 55.374 12.779 55.374z"/><path d="m256.426 76.581s36.554 6.041 55.374-12.779 12.779-55.374 12.779-55.374-36.554-6.041-55.374 12.779-12.779 55.374-12.779 55.374z"/><path d="m66.711 316.713s-31.332 5.178-47.464-10.953c-16.131-16.131-10.953-47.463-10.953-47.463s31.332-5.178 47.464 10.953 10.953 47.463 10.953 47.463z"/><path d="m68.294 316.713s31.332 5.178 47.464-10.953c16.131-16.131 10.953-47.464 10.953-47.464s-31.332-5.178-47.464 10.953-10.953 47.464-10.953 47.464z"/><path d="m444.294 316.713s31.332 5.178 47.464-10.953c16.131-16.131 10.953-47.464 10.953-47.464s-31.332-5.178-47.464 10.953-10.953 47.464-10.953 47.464z"/><path d="m442.711 316.713s-31.332 5.178-47.464-10.953c-16.131-16.131-10.953-47.464-10.953-47.464s31.332-5.178 47.464 10.953 10.953 47.464 10.953 47.464z"/></g><path d="m367.037 337.676-32.404-52.171h-158.261l-32.404 52.171c-12.413 19.984 1.959 45.829 25.484 45.829h172.101c23.526 0 37.897-25.844 25.484-45.829z" fill="url(#SVGID_2_)"/><path d="m176.372 285.505h158.261l-39.13-63v-55h5c8.284 0 15-6.716 15-15s-6.716-15-15-15h-90c-8.284 0-15 6.716-15 15s6.716 15 15 15h5v55z" fill="#fff"/></g><path d="m498.003 466.005v-60h-46.472c-1.323-9.996-5.207-16.068-8.711-21.543-3.809-5.951-6.817-10.651-6.817-20.957s3.008-15.006 6.817-20.957c3.026-4.728 6.329-9.912 8.028-17.673 1.488.077 3.144.128 4.93.128 11.926 0 29.603-2.259 41.284-13.939 18.642-18.642 13.287-52.555 13.049-53.989l-.876-5.301-5.3-.876c-1.435-.239-35.349-5.594-53.99 13.049-2.589 2.589-4.7 5.478-6.441 8.528-1.741-3.05-3.853-5.939-6.441-8.528-18.642-18.642-52.556-13.288-53.99-13.049l-5.3.876-.876 5.301c-.237 1.435-5.592 35.348 13.049 53.989 11.682 11.682 29.358 13.939 41.284 13.939 1.441 0 2.792-.034 4.044-.087-1.242 3.523-3.046 6.359-5.086 9.546-4.305 6.726-9.183 14.349-9.183 29.043s4.878 22.317 9.183 29.043c2.739 4.279 5.056 7.922 6.146 13.457h-148.83c-13.147 0-24.816 6.458-32 16.367-7.184-9.909-18.853-16.367-32-16.367h-148.831c1.09-5.535 3.408-9.178 6.146-13.457 4.305-6.726 9.183-14.349 9.183-29.043s-4.878-22.317-9.183-29.043c-2.04-3.188-3.844-6.023-5.086-9.546 1.252.053 2.603.087 4.044.087 11.926 0 29.603-2.259 41.284-13.939 18.642-18.642 13.287-52.555 13.049-53.989l-.876-5.301-5.3-.876c-1.435-.239-35.349-5.594-53.99 13.049-2.589 2.589-4.7 5.478-6.441 8.528-1.741-3.05-3.853-5.939-6.441-8.528-18.641-18.642-52.556-13.288-53.99-13.049l-5.3.876-.876 5.301c-.237 1.435-5.592 35.348 13.049 53.989 11.682 11.682 29.358 13.939 41.284 13.939 1.786 0 3.442-.051 4.93-.128 1.699 7.761 5.002 12.944 8.028 17.673 3.809 5.951 6.817 10.651 6.817 20.957s-3.008 15.006-6.817 20.957c-3.504 5.475-7.388 11.547-8.711 21.543h-46.474v60h-13v45h511v-45zm-37.453-191.452c9.514-9.515 26.509-9.929 35.31-9.405.521 8.807.107 25.797-9.405 35.31-9.512 9.512-26.502 9.927-35.31 9.405-.521-8.808-.107-25.797 9.405-35.31zm-24.689 35.288c-8.826.495-25.88.047-35.311-9.385-9.506-9.505-9.925-26.479-9.407-35.287 8.825-.499 25.88-.047 35.312 9.385 9.504 9.504 9.925 26.473 9.406 35.287zm-376 0c-8.826.495-25.88.047-35.311-9.385-9.506-9.505-9.925-26.479-9.407-35.287 8.824-.499 25.88-.047 35.312 9.385 9.504 9.504 9.925 26.473 9.406 35.287zm24.689-35.288c9.514-9.515 26.509-9.929 35.31-9.405.521 8.807.107 25.797-9.405 35.31-9.513 9.512-26.501 9.927-35.31 9.405-.521-8.808-.107-25.797 9.405-35.31zm178.453 170.952c0-13.51 10.991-24.5 24.5-24.5h195.5v45h-220zm-235.001-24.5h195.5c13.509 0 24.5 10.99 24.5 24.5v20.5h-220zm468.001 75h-481v-15h481zm-358.407-162.286c-7.287 11.731-7.63 25.941-.918 38.011 6.711 12.069 18.963 19.275 32.773 19.275h172.102c13.81 0 26.062-7.206 32.773-19.275 6.712-12.069 6.369-26.279-.918-38.011l-70.406-113.354v-45.503c11.234-1.248 20-10.797 20-22.358 0-12.406-10.093-22.5-22.5-22.5h-37.5v-45.21c2.007.126 4.325.216 6.871.216 13.687 0 33.911-2.585 47.23-15.903 21.3-21.301 15.147-60.253 14.875-61.9l-.876-5.301-5.3-.876c-1.648-.272-40.601-6.425-61.9 14.874-7.87 7.87-11.986 18.149-14.042 28.067-.869-1.053-1.775-2.084-2.757-3.067-21.299-21.3-60.253-15.148-61.9-14.874l-5.3.876-.876 5.301c-.272 1.647-6.425 40.6 14.875 61.9 13.32 13.32 33.543 15.903 47.23 15.903 2.546 0 4.864-.089 6.871-.216v20.211h-37.5c-12.407 0-22.5 10.094-22.5 22.5 0 11.561 8.766 21.11 20 22.358v45.503zm136.912-307.208c11.849-11.85 33.156-11.97 43.253-11.265.708 10.103.583 31.406-11.264 43.253-11.847 11.848-33.152 11.973-43.253 11.264-.708-10.103-.582-31.405 11.264-43.252zm-26.747 68.252c-10.104.711-31.407.583-43.253-11.264-11.849-11.849-11.972-33.156-11.265-43.252 10.103-.71 31.407-.584 43.253 11.264 11.847 11.847 11.973 33.149 11.265 43.252zm112.906 246.87c4.372 7.039 4.578 15.564.551 22.807-4.027 7.242-11.378 11.565-19.664 11.565h-172.102c-8.286 0-15.637-4.323-19.664-11.565s-3.821-15.768.551-22.807l30.204-48.628h149.92zm-39.521-63.628h-58.143v-103h25v49.64zm-118.143-125.5c0-4.136 3.364-7.5 7.5-7.5h90c4.136 0 7.5 3.364 7.5 7.5s-3.364 7.5-7.5 7.5h-90c-4.136 0-7.5-3.364-7.5-7.5zm20 72.14v-49.64h25v103h-58.143zm58.5 101.36h-15v-15h15zm-30 34h-15v-15h15zm-41-14h-15v-15h15zm106 3h-15v-15h15z" fill="url(#SVGID_3_)"/></g></svg>