<svg id="Capa_1" enable-background="new 0 0 511.219 511.219" height="512" viewBox="0 0 511.219 511.219" width="512" xmlns="http://www.w3.org/2000/svg" xmlns:xlink="http://www.w3.org/1999/xlink"><linearGradient id="SVGID_1_" gradientUnits="userSpaceOnUse" x1="255.61" x2="255.61" y1="8.476" y2="503.476"><stop offset=".00000083866" stop-color="#96d1f3"/><stop offset="1" stop-color="#ccfff4"/></linearGradient><linearGradient id="SVGID_2_" gradientUnits="userSpaceOnUse" x1="255.61" x2="255.61" y1="130.476" y2="362.476"><stop offset=".00000036422" stop-color="#a8abff"/><stop offset="1" stop-color="#fac8ff"/></linearGradient><linearGradient id="SVGID_3_" gradientUnits="userSpaceOnUse" x1="255.61" x2="255.61" y1="0" y2="511.219"><stop offset=".00000011981" stop-color="#174fa3"/><stop offset="1" stop-color="#b044af"/></linearGradient><g><g><path d="m255.61 503.476c117.706-30.234 200-136.336 200-257.863v-131.852l-200-105.286-200 105.286v131.851c0 121.527 82.293 227.63 200 257.864z" fill="url(#SVGID_1_)"/><path d="m255.61 461.936c-94.714-28.956-160-116.472-160-216.323v-107.705l160-84.229 160 84.229v107.704c0 99.852-65.287 187.367-160 216.324z" fill="#fff"/><path d="m185.61 193.084-45-17.609 115-45 115 45-45 17.609v73.391s-19.091 20-70 20-70-20-70-20zm-15 169.392h170v-40h-170z" fill="url(#SVGID_2_)"/></g><path d="m255.61 0-207.5 109.234v136.378c0 125.004 84.56 234.028 205.634 265.127l1.866.479 1.866-.479c121.074-31.098 205.634-140.123 205.634-265.127v-136.378zm192.5 245.612c0 117.512-79.057 220.083-192.5 250.112-113.444-30.029-192.5-132.6-192.5-250.112v-127.323l192.5-101.337 192.5 101.337zm-360-112.231v112.231c0 50.526 15.892 98.666 45.958 139.214 29.979 40.432 71.25 69.576 119.35 84.281l2.193.67 2.192-.67c48.101-14.706 89.371-43.849 119.35-84.281 30.066-40.549 45.958-88.688 45.958-139.214v-112.231l-167.5-88.177zm320 112.231c0 96.044-61.188 179.53-152.5 208.468-91.313-28.938-152.5-112.424-152.5-208.468v-103.176l152.5-80.28 152.5 80.28zm-288.082-70.136 58.082 22.728v71.277l2.075 2.174c.87.911 21.922 22.321 75.425 22.321s74.556-21.41 75.425-22.321l2.075-2.174v-71.277l26-10.174v67.446h15v-73.316l17.082-6.684-135.582-53.054zm198.082 87.527c-5.971 4.484-24.937 15.973-62.5 15.973-37.626 0-56.592-11.526-62.5-15.965v-58.938l62.5 24.457 62.5-24.457zm-62.5-50.581-94.418-36.946 94.418-36.946 94.418 36.946zm-92.5 157.554h78.486l-12.227 18.34 12.48 8.32 13.76-20.64 13.76 20.64 12.48-8.32-12.227-18.34h78.486v-55h-185v55zm100-40h70v25h-70zm-85 0h70v25h-70z" fill="url(#SVGID_3_)"/></g></svg>