<svg id="Capa_1" enable-background="new 0 0 511.5 511.5" height="512" viewBox="0 0 511.5 511.5" width="512" xmlns="http://www.w3.org/2000/svg" xmlns:xlink="http://www.w3.org/1999/xlink"><linearGradient id="SVGID_1_" gradientUnits="userSpaceOnUse" x1="255.75" x2="255.75" y1="354" y2="464"><stop offset=".00000083866" stop-color="#96d1f3"/><stop offset="1" stop-color="#ccfff4"/></linearGradient><linearGradient id="SVGID_2_" gradientUnits="userSpaceOnUse" x1="255.75" x2="255.75" y1="138" y2="294"><stop offset=".00000036422" stop-color="#a8abff"/><stop offset="1" stop-color="#fac8ff"/></linearGradient><linearGradient id="SVGID_3_" gradientUnits="userSpaceOnUse" x1="255.75" x2="255.75" y1="0" y2="511.5"><stop offset=".00000011981" stop-color="#174fa3"/><stop offset="1" stop-color="#b044af"/></linearGradient><g><g><path d="m256.038 52c-88.284-.155-160.292 71.723-160.288 160.007.002 61.259 34.437 114.466 85 141.35v.643h150v-.643c50.565-26.884 85-80.095 85-141.357 0-88.27-71.479-159.844-159.712-160z" fill="#fff"/><path d="m180.75 434c0 16.569 13.431 30 30 30h90c16.569 0 30-13.431 30-30v-80h-150z" fill="url(#SVGID_1_)"/><path d="m295.75 464c0 22.091-17.909 40-40 40s-40-17.909-40-40z" fill="#fff"/><path d="m370.75 183-115-45-115 45 45 17.609v70.266s19.091 23.125 70 23.125 70-23.125 70-23.125v-70.266z" fill="url(#SVGID_2_)"/></g><path d="m263.25 30h-15v-30h15zm128.082 153-17.082 6.684v73.316h-15v-67.446l-26 10.174v71.277l-2.075 2.174c-.869.911-21.922 22.321-75.425 22.321s-74.556-21.41-75.425-22.321l-2.075-2.174v-71.277l-58.082-22.728 135.582-53.054zm-73.082 28.597-62.5 24.456-62.5-24.456v58.938c5.908 4.439 24.874 15.965 62.5 15.965 37.563 0 56.529-11.488 62.5-15.973zm31.918-28.597-94.418-36.946-94.418 36.946 94.418 36.946zm73.082 29c0 60.58-32.454 116.028-85 145.794v76.206c0 20.037-15.796 36.453-35.589 37.452-3.587 22.664-23.255 40.048-46.911 40.048s-43.324-17.385-46.911-40.048c-19.793-.998-35.589-17.415-35.589-37.452v-76.206c-52.544-29.765-84.997-85.21-85-145.787-.002-44.702 17.483-86.777 49.234-118.474 31.682-31.626 73.672-49.033 118.265-49.033h.303c44.677.079 86.668 17.536 118.237 49.158 31.573 31.626 48.961 73.654 48.961 118.342zm-135.883 259.5h-63.234c3.396 14.315 16.278 25 31.617 25s28.221-10.685 31.617-25zm35.883-38h-135v.5c0 12.407 10.094 22.5 22.5 22.5h90c12.406 0 22.5-10.093 22.5-22.5zm0-36h-135v21h135zm0-36h-135v21h135zm85-149.5c0-83.941-68.288-152.352-152.225-152.5-.09 0-.187 0-.275 0-40.595 0-78.817 15.848-107.668 44.649-28.912 28.863-44.834 67.167-44.832 107.857.003 56.372 30.875 107.857 80.597 134.494h143.805c49.726-26.638 80.598-78.125 80.598-134.5zm-237.005-161.367-15-25.98-12.99 7.5 15 25.98zm-69.361 63.872-25.981-15-7.5 12.99 25.981 15zm307.732 194.99 25.981 15 7.5-12.99-25.981-15zm-335.866-104.995h-30v15h30zm364 0v15h30v-15zm-369.348 107.005 7.5 12.99 25.981-15-7.5-12.99zm374.696-199.01-7.5-12.99-25.981 15 7.5 12.99zm-74.853-80.342-12.99-7.5-15 25.98 12.99 7.5z" fill="url(#SVGID_3_)"/></g></svg>