<svg id="Capa_1" enable-background="new 0 0 511.5 511.5" height="512" viewBox="0 0 511.5 511.5" width="512" xmlns="http://www.w3.org/2000/svg" xmlns:xlink="http://www.w3.org/1999/xlink"><linearGradient id="SVGID_1_" gradientUnits="userSpaceOnUse" x1="368.75" x2="368.75" y1="7.5" y2="237.5"><stop offset=".00000083866" stop-color="#96d1f3"/><stop offset="1" stop-color="#ccfff4"/></linearGradient><linearGradient id="SVGID_2_" gradientUnits="userSpaceOnUse" x1="142.75" x2="142.75" y1="47.5" y2="277.5"><stop offset=".00000036422" stop-color="#a8abff"/><stop offset="1" stop-color="#fac8ff"/></linearGradient><linearGradient id="SVGID_3_" gradientUnits="userSpaceOnUse" x1="255.75" x2="255.75" y1="0" y2="511.5"><stop offset=".00000011981" stop-color="#174fa3"/><stop offset="1" stop-color="#b044af"/></linearGradient><g><g><path d="m483.75 188.5h-55v49l-78-49h-97c-11.046 0-20-8.954-20-20v-141c0-11.046 8.954-20 20-20h230c11.046 0 20 8.954 20 20v141c0 11.046-8.954 20-20 20z" fill="url(#SVGID_1_)"/><path d="m27.75 228.5h55v49l78-49h97c11.046 0 20-8.954 20-20v-141c0-11.046-8.954-20-20-20h-230c-11.046 0-20 8.954-20 20v141c0 11.046 8.954 20 20 20z" fill="url(#SVGID_2_)"/><g fill="#fff"><path d="m390.629 416.334c6.39 6.866 15.501 11.166 25.621 11.166s19.23-4.3 25.621-11.166c35.82 10.956 61.879 44.258 61.879 83.666v11.5h-175v-11.5c0-39.407 26.06-72.709 61.879-83.666z"/><path d="m416.25 427.5c19.33 0 35-15.67 35-35v-39h-70v39c0 19.33 15.67 35 35 35z"/><path d="m381.25 353.5h70l10-40h-90z"/><path d="m69.629 416.334c6.391 6.866 15.502 11.166 25.621 11.166s19.23-4.3 25.621-11.166c35.82 10.956 61.879 44.258 61.879 83.666v11.5h-175v-11.5c0-39.407 26.06-72.709 61.879-83.666z"/><path d="m95.25 427.5c19.33 0 35-15.67 35-35v-39h-70v39c0 19.33 15.67 35 35 35z"/><path d="m60.25 353.5h70v-5c0-19.33-15.67-35-35-35-19.33 0-35 15.67-35 35z"/></g></g><path d="m483.75 0h-230c-15.163 0-27.5 12.337-27.5 27.5v12.5h-198.5c-15.163 0-27.5 12.337-27.5 27.5v141c0 15.163 12.337 27.5 27.5 27.5h47.5v55.068l87.66-55.068h94.84c15.163 0 27.5-12.337 27.5-27.5v-12.5h63.34l87.66 55.068v-55.068h47.5c15.163 0 27.5-12.337 27.5-27.5v-141c0-15.163-12.337-27.5-27.5-27.5zm-213.5 208.5c0 6.893-5.607 12.5-12.5 12.5h-99.16l-68.34 42.932v-42.932h-62.5c-6.893 0-12.5-5.607-12.5-12.5v-141c0-6.893 5.607-12.5 12.5-12.5h230c6.893 0 12.5 5.607 12.5 12.5zm226-40c0 6.893-5.607 12.5-12.5 12.5h-62.5v42.932l-68.34-42.932h-67.66v-113.5c0-15.163-12.337-27.5-27.5-27.5h-16.5v-12.5c0-6.893 5.607-12.5 12.5-12.5h230c6.893 0 12.5 5.607 12.5 12.5zm-127.5-136.5c-26.191 0-47.5 21.309-47.5 47.5v80h15v-32.5h65v32.5h15v-80c0-26.191-21.309-47.5-47.5-47.5zm32.5 80h-65v-32.5c0-17.921 14.579-32.5 32.5-32.5s32.5 14.579 32.5 32.5zm-211 39.5v-32c0-26.191-21.309-47.5-47.5-47.5s-47.5 21.309-47.5 47.5v32c0 26.191 21.309 47.5 47.5 47.5 10.394 0 20.012-3.365 27.842-9.051l10.854 10.854 10.607-10.607-10.854-10.854c5.686-7.83 9.051-17.448 9.051-27.842zm-15 0c0 6.249-1.777 12.088-4.845 17.048l-10.351-10.351-10.607 10.607 10.351 10.351c-4.96 3.068-10.799 4.845-17.048 4.845-17.921 0-32.5-14.579-32.5-32.5v-32c0-17.921 14.579-32.5 32.5-32.5s32.5 14.579 32.5 32.5zm283.5 331h15v29h-15zm-5.113-69.806c3.259-6.01 5.113-12.889 5.113-20.194v-38.078l12.105-48.422h-109.21l12.105 48.422v38.078c0 7.304 1.853 14.183 5.112 20.193-15.164 6.53-28.633 17.041-38.6 30.298-12.438 16.544-19.012 36.257-19.012 57.009v11.5h15v-11.5c0-33.965 20.933-63.628 52.515-75.122 7.416 6.306 17.011 10.122 27.485 10.122s20.069-3.816 27.485-10.122c31.581 11.494 52.515 41.156 52.515 75.122v11.5h15v-11.5c0-20.752-6.574-40.465-19.013-57.009-9.966-13.257-23.435-23.767-38.6-30.297zm-9.887-20.194c0 15.163-12.337 27.5-27.5 27.5s-27.5-12.337-27.5-27.5v-31.5h55zm1.645-46.5h-58.289l-6.25-25h70.789zm-86.645 136.5h15v29h-15zm-221 0h15v29h-15zm-5.112-69.807c3.259-6.01 5.112-12.889 5.112-20.193v-31.5-15h-.08c-1.299-22.275-19.826-40-42.42-40s-41.121 17.725-42.42 40h-.08v46.5c0 7.304 1.853 14.183 5.112 20.193-15.164 6.53-28.633 17.041-38.6 30.298-12.438 16.544-19.012 36.257-19.012 57.009v11.5h15v-11.5c0-33.966 20.933-63.628 52.514-75.122 7.417 6.305 17.012 10.122 27.486 10.122s20.069-3.816 27.485-10.122c31.581 11.493 52.515 41.156 52.515 75.122v11.5h15v-11.5c0-20.752-6.574-40.465-19.013-57.009-9.966-13.257-23.435-23.768-38.599-30.298zm-37.388-91.693c14.321 0 26.121 11.003 27.388 25h-54.776c1.267-13.997 13.067-25 27.388-25zm27.5 71.5c0 15.163-12.337 27.5-27.5 27.5s-27.5-12.337-27.5-27.5v-31.5h55zm-85 90h15v29h-15z" fill="url(#SVGID_3_)"/></g></svg>