<svg id="Capa_1" enable-background="new 0 0 511 511" height="512" viewBox="0 0 511 511" width="512" xmlns="http://www.w3.org/2000/svg" xmlns:xlink="http://www.w3.org/1999/xlink"><linearGradient id="SVGID_1_" gradientUnits="userSpaceOnUse" x1="255.5" x2="255.5" y1="161.5" y2="191.5"><stop offset=".00000083866" stop-color="#96d1f3"/><stop offset="1" stop-color="#ccfff4"/></linearGradient><linearGradient id="SVGID_2_" gradientUnits="userSpaceOnUse" x1="356.838" x2="159.636" y1="100.457" y2="442.021"><stop offset=".00000036422" stop-color="#a8abff"/><stop offset="1" stop-color="#fac8ff"/></linearGradient><linearGradient id="SVGID_3_" gradientUnits="userSpaceOnUse" x1="255.5" x2="255.5" y1="0" y2="511"><stop offset=".00000011981" stop-color="#174fa3"/><stop offset="1" stop-color="#b044af"/></linearGradient><g><g><path d="m375.5 127.5v-120h-240v120c0 59.459 43.247 108.809 100 118.331v67.669h-25v30h-15v30h-30v130h180v-130h-30v-30h-15v-30h-25v-67.668c56.753-9.523 100-58.873 100-118.332z" fill="#fff"/><path d="m195.5 161.5h120v30h-120z" fill="url(#SVGID_1_)"/><path d="m205.5 468.5v-60h100v60zm36.094-398.241-31.094 4.54 22.5 22.036-5.312 31.115 27.812-14.691 27.812 14.691-5.312-31.115 22.5-22.036-31.094-4.54-13.906-28.309z" fill="url(#SVGID_2_)"/></g><path d="m383 20v-20h-255v20h-70v75.5c0 47.376 37.003 86.266 83.625 89.302 17.028 33.701 48.579 58.86 86.375 67.202v53.996h-25v30h-15v30h-47.5v15h17.5v115h-17.5v15h230v-15h-17.5v-115h17.5v-15h-47.5v-30h-15v-30h-25v-53.996c37.796-8.342 69.348-33.501 86.375-67.202 46.622-3.036 83.625-41.926 83.625-89.302v-75.5zm-310 75.5v-60.5h55v92.5c0 14.491 2.436 28.423 6.91 41.414-35.102-6.002-61.91-36.627-61.91-73.414zm265 285.5v115h-165v-115zm-30-15h-105v-15h105zm-15-45v15h-75v-15zm-50-15v-51.613c4.114.402 8.282.613 12.5.613s8.386-.211 12.5-.613v51.613zm125-178.5c0 62.033-50.468 112.5-112.5 112.5s-112.5-50.467-112.5-112.5v-112.5h225zm70-32c0 36.787-26.808 67.412-61.91 73.414 4.474-12.991 6.91-26.923 6.91-41.414v-92.5h55zm-125 305.5h-115v75h115zm-15 60h-85v-45h85zm-17.5-15h-50v-15h50zm-51.24-228.66 12.48 8.32 13.76-20.64 13.76 20.64 12.48-8.32-12.226-18.34h53.486v-45h-135v45h53.486zm33.74-48.34h45v15h-45zm-60 15v-15h45v15zm14.734-42.311 37.766-19.948 37.766 19.948-7.212-42.245 30.51-29.88-42.166-6.156-18.898-38.469-18.897 38.469-42.166 6.156 30.51 29.88zm28.85-64.579 8.916-18.15 8.916 18.15 20.021 2.923-14.49 14.191 3.411 19.985-17.857-9.433-17.857 9.433 3.411-19.985-14.49-14.191z" fill="url(#SVGID_3_)"/></g></svg>