<svg id="Capa_1" enable-background="new 0 0 511 511" height="512" viewBox="0 0 511 511" width="512" xmlns="http://www.w3.org/2000/svg" xmlns:xlink="http://www.w3.org/1999/xlink"><linearGradient id="SVGID_1_" gradientUnits="userSpaceOnUse" x1="255.5" x2="255.5" y1="413.277" y2="473.277"><stop offset=".00000083866" stop-color="#96d1f3"/><stop offset="1" stop-color="#ccfff4"/></linearGradient><linearGradient id="SVGID_2_" gradientUnits="userSpaceOnUse" x1="255.5" x2="255.5" y1="8.277" y2="164.277"><stop offset=".00000036422" stop-color="#a8abff"/><stop offset="1" stop-color="#fac8ff"/></linearGradient><linearGradient id="SVGID_3_" gradientUnits="userSpaceOnUse" x1="255.5" x2="255.5" y1=".223" y2="510.777"><stop offset=".00000011981" stop-color="#174fa3"/><stop offset="1" stop-color="#b044af"/></linearGradient><g><g><path d="m413.5 413.277c0-24.132-17.097-44.269-39.838-48.964.543-2.258.838-4.612.838-7.036 0-16.569-13.431-30-30-30-2.838 0-5.581.403-8.183 1.139-9.057-12.785-23.957-21.139-40.817-21.139v-148h-80v148c-16.86 0-31.76 8.354-40.817 21.139-2.602-.737-5.345-1.139-8.183-1.139-16.569 0-30 13.431-30 30 0 2.424.295 4.778.838 7.036-22.741 4.695-39.838 24.832-39.838 48.964v36h316z" fill="#fff"/><path d="m7.5 473.277h496v30h-496z" fill="#fff"/><path d="m490.5 473.277h-470v-60h203c17.673 0 32 14.327 32 32 0-17.673 14.327-32 32-32h203z" fill="url(#SVGID_1_)"/><path d="m370.5 53.277-115-45-115 45 45 17.609v73.391s19.091 20 70 20 70-20 70-20v-73.392z" fill="url(#SVGID_2_)"/></g><path d="m498 465.777v-60h-77.503c-2.863-21.602-17.898-39.958-38.529-46.965.021-.512.032-1.023.032-1.535 0-20.678-16.822-37.5-37.5-37.5-1.715 0-3.429.118-5.127.354-9.255-10.914-22.265-17.971-36.373-19.839v-135.459c19.05-6.34 27.385-14.812 27.925-15.378l2.075-2.174v-71.276l26-10.174v67.446h15v-73.316l17.082-6.684-135.582-53.054-135.582 53.054 58.082 22.728v71.277l2.075 2.174c.54.566 8.875 9.038 27.925 15.378v135.458c-14.108 1.868-27.118 8.925-36.373 19.839-1.699-.235-3.412-.354-5.127-.354-20.678 0-37.5 16.822-37.5 37.5 0 .512.011 1.023.032 1.535-20.631 7.007-35.666 25.363-38.529 46.965h-77.503v60h-13v45h511v-45zm-15-45v45h-220v-20.5c0-13.51 10.991-24.5 24.5-24.5zm-321.918-367.5 94.418-36.946 94.418 36.946-94.418 36.946zm31.918 87.535v-58.938l62.5 24.457 62.5-24.457v58.93c-5.97 4.484-24.936 15.973-62.5 15.973-37.626 0-56.592-11.526-62.5-15.965zm-54.146 230.845 7.587-1.566-1.812-7.532c-.418-1.737-.63-3.515-.63-5.281 0-12.406 10.093-22.5 22.5-22.5 2.069 0 4.135.288 6.141.855l5.099 1.442 3.063-4.324c6.503-9.18 16.331-15.338 27.197-17.299v37.825h15v-184.516c9.152 1.823 19.918 3.015 32.5 3.015s23.348-1.192 32.5-3.015v164.515h15v-17.825c10.865 1.96 20.694 8.119 27.197 17.299l3.063 4.324 5.099-1.442c2.006-.567 4.072-.855 6.141-.855 12.407 0 22.5 10.094 22.5 22.5 0 1.767-.212 3.544-.63 5.281l-1.812 7.532 7.587 1.566c17.125 3.536 30.148 17.325 33.181 34.12h-117.825c-13.147 0-24.816 6.458-32 16.367-7.184-9.909-18.853-16.367-32-16.367h-117.827c3.033-16.795 16.057-30.583 33.181-34.119zm-110.854 49.12h195.5c13.509 0 24.5 10.99 24.5 24.5v20.5h-220zm468 75h-481v-15h481zm-233-210.5h-15v-90h15zm0 30h-15v-15h15zm-55 53h15v15h-15zm-40 6h15v15h-15zm135-11h-15v-15h15zm40 26h-15v-15h15z" fill="url(#SVGID_3_)"/></g></svg>