<svg id="Capa_1" enable-background="new 0 0 511 511" height="512" viewBox="0 0 511 511" width="512" xmlns="http://www.w3.org/2000/svg" xmlns:xlink="http://www.w3.org/1999/xlink"><linearGradient id="SVGID_1_" gradientUnits="userSpaceOnUse" x1="255.5" x2="255.5" y1="136.5" y2="473.5"><stop offset=".00000036422" stop-color="#a8abff"/><stop offset="1" stop-color="#fac8ff"/></linearGradient><linearGradient id="SVGID_2_" gradientUnits="userSpaceOnUse" x1="290.5" x2="290.5" y1="7.5" y2="57.5"><stop offset=".00000083866" stop-color="#96d1f3"/><stop offset="1" stop-color="#ccfff4"/></linearGradient><linearGradient id="SVGID_3_" gradientUnits="userSpaceOnUse" x1="255.5" x2="255.5" y1="0" y2="511"><stop offset=".00000011981" stop-color="#174fa3"/><stop offset="1" stop-color="#b044af"/></linearGradient><g><g><g fill="#fff"><path d="m380.5 223.5h-250v-24l125-116 125 116z"/><path d="m147.5 343.5h-140v-24l45-46h95z"/><path d="m22.5 343.5h125v130h-125z"/><path d="m57.5 373.5h60v40h-60z"/><path d="m363.5 343.5h140v-24l-45-46h-95z"/><path d="m363.5 343.5h125v130h-125z"/><path d="m147.5 223.5h216v250h-216z"/><path d="m7.5 473.5h496v30h-496z"/><path d="m180.5 353.5h150v30h-150z"/><path d="m180.5 263.5h60v50h-60z"/><path d="m270.5 263.5h60v50h-60z"/><path d="m393.5 373.5h60v40h-60z"/></g><path d="m200.5 383.5h110v90h-110zm55-247c-16.569 0-30 13.431-30 30s13.431 30 30 30 30-13.431 30-30-13.431-30-30-30z" fill="url(#SVGID_1_)"/><path d="m255.5 7.5h70v50h-70z" fill="url(#SVGID_2_)"/></g><path d="m125 366h-75v55h75zm-15 40h-45v-25h45zm401-55v-34.559l-49.345-50.441h-90.655v-35h17v-34.772l-125-116v-15.228h70v-65h-85v57.5 7.5 15.228l-125 116v34.772h17v35h-90.655l-49.345 50.441v34.559h15v115h-15v45h511v-45h-15v-115zm-248-336h55v35h-55zm-125 201v-13.228l117.5-109.04 117.5 109.04v13.228zm233 135h110v115h-110zm-183 25v-15h135v15zm115 15v75h-95v-75zm15 0h20v-45h-165v45h20v75h-38v-235h201v235h-38zm-303-68.441 40.655-41.559h84.345v55h-125zm125 28.441v115h-110v-115zm356 145h-481v-15h481zm-125-160v-55h84.345l40.655 41.559v13.441zm-198-15h75v-65h-75zm15-50h45v35h-45zm75 50h75v-65h-75zm15-50h45v35h-45zm108 150h75v-55h-75zm15-40h45v25h-45zm-145.5-252c-20.678 0-37.5 16.822-37.5 37.5s16.822 37.5 37.5 37.5 37.5-16.822 37.5-37.5-16.822-37.5-37.5-37.5zm0 60c-12.407 0-22.5-10.093-22.5-22.5s10.093-22.5 22.5-22.5 22.5 10.093 22.5 22.5-10.093 22.5-22.5 22.5z" fill="url(#SVGID_3_)"/></g></svg>