<svg id="Capa_1" enable-background="new 0 0 511.003 511.003" height="512" viewBox="0 0 511.003 511.003" width="512" xmlns="http://www.w3.org/2000/svg" xmlns:xlink="http://www.w3.org/1999/xlink"><linearGradient id="SVGID_1_" gradientUnits="userSpaceOnUse" x1="199.5" x2="199.5" y1="133.502" y2="333.502"><stop offset=".00000083866" stop-color="#96d1f3"/><stop offset="1" stop-color="#ccfff4"/></linearGradient><linearGradient id="SVGID_2_" gradientUnits="userSpaceOnUse" x1="403.892" x2="403.892" y1="312.773" y2="493.502"><stop offset=".00000036422" stop-color="#a8abff"/><stop offset="1" stop-color="#fac8ff"/></linearGradient><linearGradient id="SVGID_3_" gradientUnits="userSpaceOnUse" x1="255.502" x2="255.502" y1=".002" y2="511.002"><stop offset=".00000011981" stop-color="#174fa3"/><stop offset="1" stop-color="#b044af"/></linearGradient><g><g><g fill="#fff"><path d="m391.5 7.501v496h-384v-461c0-19.33 15.67-35 35-35h349z"/><path d="m77.5 42.501v24h364v-24c0-19.33-15.67-35-35-35h-364c19.33 0 35 15.67 35 35z"/><path d="m292.692 308.909h40v37.145h-40z" transform="matrix(.643 -.766 .766 .643 -139.168 356.518)"/><circle cx="199.5" cy="233.501" r="130"/></g><circle cx="199.5" cy="233.501" fill="url(#SVGID_1_)" r="100"/><path d="m259.5 216.501-60-25-60 25 22 9.167v44.833s10.364 11 38 11 38-11 38-11v-44.833z" fill="#fff"/><path d="m349.279 312.773 141.718 118.916c14.808 12.425 16.739 34.501 4.314 49.309-12.425 14.808-34.501 16.739-49.309 4.314l-141.719-118.916z" fill="url(#SVGID_2_)"/></g><path d="m199.5 126.001c-59.275 0-107.5 48.225-107.5 107.5s48.225 107.5 107.5 107.5 107.5-48.224 107.5-107.5-48.225-107.5-107.5-107.5zm0 200c-51.005 0-92.5-41.495-92.5-92.5s41.495-92.5 92.5-92.5 92.5 41.495 92.5 92.5-41.495 92.5-92.5 92.5zm0-142.625-79.5 33.125 34 14.167v42.81l2.041 2.166c1.288 1.367 13.45 13.357 43.459 13.357s42.171-11.99 43.459-13.357l2.041-2.166v-42.81l34-14.167zm30.5 83.48c-3.898 2.524-13.374 7.146-30.5 7.146s-26.602-4.621-30.5-7.146v-29.938l30.5 12.708 30.5-12.708zm-30.5-33.48-40.5-16.875 40.5-16.875 40.5 16.875zm311.338 221.42c-.989-11.309-6.323-21.556-15.02-28.853l-96.818-81.239v-270.703h50v-31.5c0-23.435-19.065-42.5-42.5-42.5h-364c-23.435 0-42.5 19.066-42.5 42.5v468.5h399v-55.338l42.181 35.394c7.726 6.482 17.281 9.947 27.246 9.947 1.253 0 2.514-.055 3.776-.165 11.31-.989 21.556-6.323 28.853-15.02s10.77-19.713 9.782-31.023zm-104.338-439.795c15.164 0 27.5 12.336 27.5 27.5v16.5h-349v-16.5c0-10.479-3.811-20.082-10.121-27.5zm-22.5 481h-369v-453.5c0-15.164 12.336-27.5 27.5-27.5s27.5 12.336 27.5 27.5v31.5h314v258.116l-35.646-29.911-9.503 11.325-18.121-15.205c10.375-19.325 16.27-41.398 16.27-64.825 0-75.817-61.683-137.5-137.5-137.5s-137.5 61.683-137.5 137.5c0 56.203 33.901 104.63 82.323 125.93l-30.346 36.57h-80.477v15h87.522l38.191-46.026c11.528 3.54 23.696 5.602 36.282 5.964l32.751 90.063h111.254v-15h-100.747l-27.458-75.511c27.977-2.389 53.588-13.189 74.29-29.857l17.913 15.031-9.781 11.656 90.283 75.756zm-71.174-184.726 16.383 13.747-16.07 19.151-16.287-13.666c5.885-5.905 11.232-12.344 15.974-19.232zm-113.326 44.726c-67.547 0-122.5-54.953-122.5-122.5s54.953-122.5 122.5-122.5 122.5 54.954 122.5 122.5-54.953 122.5-122.5 122.5zm150.703-32.662 26.555 22.282-35.353 42.132-26.555-22.282zm139.362 152.838c-4.722 5.627-11.352 9.079-18.669 9.719-7.327.638-14.446-1.608-20.073-6.329l-97.928-82.171 35.353-42.132 97.927 82.171c11.617 9.746 13.137 27.126 3.39 38.742zm-382.065-95.176h-74v-15h74zm144 35h76v15h-76z" fill="url(#SVGID_3_)"/></g></svg>