<svg id="Capa_1" enable-background="new 0 0 511 511" height="512" viewBox="0 0 511 511" width="512" xmlns="http://www.w3.org/2000/svg" xmlns:xlink="http://www.w3.org/1999/xlink"><linearGradient id="SVGID_1_" gradientUnits="userSpaceOnUse" x1="255.5" x2="255.5" y1="21.5" y2="307.5"><stop offset=".00000083866" stop-color="#96d1f3"/><stop offset="1" stop-color="#ccfff4"/></linearGradient><linearGradient id="SVGID_2_" gradientUnits="userSpaceOnUse" x1="166.655" x2="166.655" y1="156.5" y2="299.5"><stop offset=".00000036422" stop-color="#a8abff"/><stop offset="1" stop-color="#fac8ff"/></linearGradient><linearGradient id="SVGID_3_" gradientUnits="userSpaceOnUse" x1="255.5" x2="255.5" y1="14" y2="497"><stop offset=".00000011981" stop-color="#174fa3"/><stop offset="1" stop-color="#b044af"/></linearGradient><g><g><path d="m380.5 459.5v30h-250v-30h39l30-68h112l30 68z" fill="#fff"/><path d="m503.5 307.5v-256c0-16.569-13.431-30-30-30h-436c-16.569 0-30 13.431-30 30v256z" fill="url(#SVGID_1_)"/><path d="m60.5 260.5h46v39h-46z" fill="#fff"/><path d="m230.148 175.841c-5.076-3.545-10.601-6.401-16.428-8.493l-30.22-10.848-44 1-58.702 20.063c-12.14 4.149-20.298 15.559-20.298 28.388v54.549h46v39h110v-70h1l29.441 18.632 25.869-42.499z" fill="url(#SVGID_2_)"/><g fill="#fff"><g><path d="m126.5 129.5c0 19.33 15.67 35 35 35 19.33 0 35-15.67 35-35v-35l20-36h-90z"/><path d="m357.136 163.103c-10.804-8.588-26.542-6.697-35.004 4.206l-36.626 47.191-12.696-8.866-25.869 42.499 31.322 19.822c10.372 6.564 24.026 4.244 31.648-5.378l51.232-64.68c8.489-10.718 6.696-26.286-4.007-34.794z"/></g><path d="m7.5 299.5v62c0 16.569 13.431 30 30 30h436c16.569 0 30-13.431 30-30v-62z"/></g></g><path d="m473.5 14h-436c-20.678 0-37.5 16.822-37.5 37.5v310c0 20.678 16.822 37.5 37.5 37.5h150.494l-23.382 53h-41.612v45h265v-45h-41.612l-23.382-53h150.494c20.678 0 37.5-16.822 37.5-37.5v-310c0-20.678-16.822-37.5-37.5-37.5zm-100.5 453v15h-235v-15zm-43.006-15h-148.988l23.382-53h102.223zm166.006-90.5c0 12.407-10.094 22.5-22.5 22.5h-436c-12.407 0-22.5-10.093-22.5-22.5v-54.5h481zm-307-259.5v27.5c0 15.164-12.336 27.5-27.5 27.5s-27.5-12.336-27.5-27.5v-27.5zm-55-15v-21h69.753l-11.666 21zm5.067 78.574c6.516 4.067 14.203 6.426 22.433 6.426 8.634 0 16.67-2.594 23.382-7.035l26.304 9.442c5.202 1.867 10.137 4.418 14.668 7.583l36.888 25.76-18.239 29.963-24.829-15.713h-10.674v70h-40v-73.5h-15v73.5h-40v-65.5h-15v26.5h-31v-47.049c0-9.623 6.118-18.179 15.224-21.291zm135.997 50.781 11.995 8.377 40.998-52.824c2.854-3.678 6.972-6.009 11.594-6.564 4.621-.553 9.174.733 12.818 3.63 7.449 5.921 8.703 16.807 2.795 24.266l-51.231 64.68c-5.255 6.634-14.609 8.221-21.759 3.698l-25.094-15.881zm-176.064 51.645v24h-31v-24zm397 24h-272v-49.511l50.252 31.803c13.651 8.639 31.509 5.603 41.538-7.059l51.231-64.68c9.598-12.117 9.072-29.072-.38-40.56l61.644-74.72-11.57-9.546-62.04 75.2c-5.226-2.302-10.991-3.177-16.814-2.476-8.634 1.037-16.323 5.392-21.654 12.26l-32.254 41.557-49.511-34.576c-5.619-3.924-11.738-7.087-18.188-9.403l-19.543-7.015c4.6-6.79 7.289-14.974 7.289-23.774v-33.057l25.247-45.443h-110.247v78.5c0 9.089 2.877 17.513 7.755 24.43l-48.383 16.536c-15.176 5.187-25.372 19.447-25.372 35.485v86.049h-38v-240.5c0-12.407 10.093-22.5 22.5-22.5h436c12.406 0 22.5 10.093 22.5 22.5zm-240.5 76c12.406 0 22.5-10.093 22.5-22.5s-10.094-22.5-22.5-22.5c-12.407 0-22.5 10.093-22.5 22.5s10.093 22.5 22.5 22.5zm0-30c4.136 0 7.5 3.364 7.5 7.5s-3.364 7.5-7.5 7.5-7.5-3.364-7.5-7.5 3.364-7.5 7.5-7.5zm-86.5-134.5h-15v-15h15z" fill="url(#SVGID_3_)"/></g></svg>