<svg id="Capa_1" enable-background="new 0 0 511 511" height="512" viewBox="0 0 511 511" width="512" xmlns="http://www.w3.org/2000/svg" xmlns:xlink="http://www.w3.org/1999/xlink"><linearGradient id="SVGID_1_" gradientUnits="userSpaceOnUse" x1="363.5" x2="363.5" y1="67.5" y2="443.5"><stop offset=".00000083866" stop-color="#96d1f3"/><stop offset="1" stop-color="#ccfff4"/></linearGradient><linearGradient id="SVGID_2_" gradientUnits="userSpaceOnUse" x1="142.5" x2="142.5" y1="37.5" y2="287.5"><stop offset=".00000036422" stop-color="#a8abff"/><stop offset="1" stop-color="#fac8ff"/></linearGradient><linearGradient id="SVGID_3_" gradientUnits="userSpaceOnUse" x1="255.5" x2="255.5" y1="0" y2="511"><stop offset=".00000011981" stop-color="#174fa3"/><stop offset="1" stop-color="#b044af"/></linearGradient><g><g><path d="m223.5 473.5c0 16.569 13.431 30 30 30h220c16.569 0 30-13.431 30-30v-30h-280z" fill="#fff"/><path d="m223.5 443.5h280v-376h-280" fill="url(#SVGID_1_)"/><path d="m473.5 7.5h-220c-16.569 0-30 13.431-30 30v30h280v-30c0-16.569-13.431-30-30-30z" fill="#fff"/><path d="m437.439 288.811-51.939-19.311v-29.751c11.55-6.493 19.948-17.93 22.312-31.449.443-2.535.688-5.138.688-7.8v-51c0-11.046-8.954-20-20-20h-80l10 44v27c0 16.859 9.277 31.544 23 39.252v29.748l-51.939 19.311c-15.667 5.825-26.061 20.778-26.061 37.492v117.197h200v-117.197c0-16.715-10.393-31.667-26.061-37.492z" fill="#fff"/><path d="m257.5 238.5h-20v49l-98-49h-112c-11.046 0-20-8.954-20-20v-161c0-11.046 8.954-20 20-20h230c11.046 0 20 8.954 20 20v161c0 11.046-8.954 20-20 20z" fill="url(#SVGID_2_)"/><path d="m182.5 72.5c-22.091 0-40 17.909-40 40 0-22.091-17.909-40-40-40h-60v130h200v-130z" fill="#fff"/></g><path d="m333.5 30h60v15h-60zm37.5 436h-15v15h15zm0-159.5h-15v15h15zm0 30h-15v82h15zm-188.5-271.5h67.5v145h-100-15-100v-145h67.5c16.782 0 31.548 8.756 40 21.932 8.452-13.176 23.218-21.932 40-21.932zm-48.383 130c-3.396-14.315-16.278-25-31.617-25h-52.5v25zm.883-82.5c0-17.921-14.579-32.5-32.5-32.5h-52.5v75h52.5c12.564 0 23.996 4.913 32.5 12.906zm100 57.5h-52.5c-15.339 0-28.221 10.685-31.617 25h84.117zm0-90h-52.5c-17.921 0-32.5 14.579-32.5 32.5v55.406c8.504-7.994 19.936-12.906 32.5-12.906h52.5zm-65.5 38h50v-15h-50zm-104 0h50v-15h-50zm445.5-80.5v436c0 20.678-16.822 37.5-37.5 37.5h-220c-20.678 0-37.5-16.822-37.5-37.5v-188.364l-78.271-39.136h-110.229c-15.163 0-27.5-12.337-27.5-27.5v-161c0-15.163 12.337-27.5 27.5-27.5h189.255c3.484-17.096 18.635-30 36.745-30h220c20.678 0 37.5 16.822 37.5 37.5zm-281 193.5h27.5c6.893 0 12.5-5.607 12.5-12.5v-161c0-6.893-5.607-12.5-12.5-12.5h-230c-6.893 0-12.5 5.607-12.5 12.5v161c0 6.893 5.607 12.5 12.5 12.5h113.771l88.729 44.364zm266 220h-265v22.5c0 12.406 10.094 22.5 22.5 22.5h220c12.406 0 22.5-10.094 22.5-22.5zm-170-250.5c0 20.678 16.822 37.5 37.5 37.5 17.313 0 31.917-11.796 36.213-27.772l-23.779-29.228h-49.934zm57.066-34.5 17.934 22.043v-38.543c0-6.893-5.607-12.5-12.5-12.5h-70.604l6.591 29zm-19.566 87c-5.03 0-9.891-.726-14.5-2.053v16.133c3.523 4.363 8.805 6.92 14.5 6.92s10.977-2.557 14.5-6.92v-16.133c-4.609 1.327-9.47 2.053-14.5 2.053zm-71.326 42.841c-12.664 4.709-21.174 16.951-21.174 30.463v31.696h27v-26.5h15v104.5h101v-104.5h15v26.5h27v-31.696c0-13.512-8.51-25.754-21.175-30.463l-46.827-17.411c-6.296 6.701-15.088 10.57-24.498 10.57s-18.202-3.869-24.498-10.57zm136.826 77.159v63h27v-63zm-158 0v63h27v-63zm225-298h-211v143.5c0 15.163-12.337 27.5-27.5 27.5h-12.5v53.636l-14-7v143.364h25v-109.696c0-19.748 12.437-37.641 30.946-44.523l47.054-17.494v-20.385c-13.872-9.458-23-25.383-23-43.402v-26.158l-11.896-52.342h89.396c15.163 0 27.5 12.337 27.5 27.5v51c0 18.019-9.128 33.944-23 43.402v20.385l47.053 17.493c18.51 6.883 30.947 24.776 30.947 44.524v109.696h25zm0-37.5c0-12.406-10.094-22.5-22.5-22.5h-220c-9.777 0-18.114 6.271-21.21 15h25.21c15.163 0 27.5 12.337 27.5 27.5v2.5h211z" fill="url(#SVGID_3_)"/></g></svg>