<svg id="Capa_1" enable-background="new 0 0 511.5 511.5" height="512" viewBox="0 0 511.5 511.5" width="512" xmlns="http://www.w3.org/2000/svg" xmlns:xlink="http://www.w3.org/1999/xlink"><linearGradient id="SVGID_1_" gradientUnits="userSpaceOnUse" x1="255.75" x2="255.75" y1="0" y2="414"><stop offset=".00000036422" stop-color="#a8abff"/><stop offset="1" stop-color="#fac8ff"/></linearGradient><linearGradient id="SVGID_2_" gradientUnits="userSpaceOnUse" x1="255.75" x2="255.75" y1="0" y2="414"><stop offset=".00000083866" stop-color="#96d1f3"/><stop offset="1" stop-color="#ccfff4"/></linearGradient><linearGradient id="SVGID_3_" gradientUnits="userSpaceOnUse" x1="255.75" x2="255.75" y1="0" y2="511.5"><stop offset=".00000011981" stop-color="#174fa3"/><stop offset="1" stop-color="#b044af"/></linearGradient><g><g><path d="m7.75 474h496v30h-496z" fill="#fff"/><path d="m490.75 474h-470v-60h203c17.673 0 32 14.327 32 32 0-17.673 14.327-32 32-32h203z" fill="#fff"/><path d="m350.75 207.005c0 59.911-46.143 89.758-86.853 116.092-39.25 25.389-73.147 47.316-73.147 90.903h-30c0-59.911 46.143-89.758 86.853-116.092 39.25-25.389 73.147-47.316 73.147-90.903 0-40.54-29.323-62.344-65-85.621 2.684-1.751 5.401-3.51 8.147-5.287 6.308-4.081 12.747-8.246 19.124-12.595 34.779 23.714 67.729 52.874 67.729 103.503zm-122.272-103.503c6.377-4.348 12.816-8.514 19.124-12.595 2.747-1.777 5.463-3.536 8.147-5.287-35.677-23.277-65-45.081-65-85.621h-30c.001 50.63 32.951 79.79 67.729 103.503z" fill="url(#SVGID_1_)"/><path d="m160.75 207.005c0-59.913 46.142-89.762 86.853-116.097 39.25-25.39 73.147-47.318 73.147-90.908h30c0 59.913-46.142 89.762-86.853 116.097-39.25 25.39-73.147 47.318-73.147 90.908 0 40.537 29.324 62.34 65 85.616-2.684 1.751-5.401 3.51-8.147 5.287-6.309 4.081-12.748 8.246-19.125 12.595-34.778-23.713-67.728-52.871-67.728-103.498zm122.272 103.497c-6.378 4.348-12.817 8.514-19.125 12.595-2.746 1.777-5.463 3.535-8.147 5.287 35.676 23.276 65 45.079 65 85.616h30c0-50.627-32.95-79.785-67.728-103.498z" fill="url(#SVGID_2_)"/><g fill="#fff"><path d="m446.75 59h-40l-20 35 20 35h40l20-35z"/><path d="m401.75 275v40l35 20 35-20v-40l-35-20z"/><path d="m99.75 226h-40l-20 35 20 35h40l20-35z"/><path d="m99.75 156h-40l-20 35 20 35h40l20-35z"/></g></g><path d="m498.25 466.5v-60h-140.251c-2.763-45.079-30.314-73.19-61.902-95.989 11.479-8.282 22.462-17.306 32.05-27.83 20.256-22.234 30.103-46.99 30.103-75.681 0-49.521-28.846-79.449-62.154-103.49 11.476-8.281 22.456-17.303 32.042-27.824 20.262-22.238 30.112-46.995 30.112-75.686h-15c0 55.826-42.406 83.263-83.424 109.803-39.38 25.475-76.576 49.536-76.576 97.197 0 39.929 25.838 63.217 58.823 85.554-4.504 2.914-9.033 5.855-13.541 8.864-31.833-22.275-60.282-49.476-60.282-94.418 0-55.836 42.41-83.266 83.424-109.792 39.38-25.475 76.576-49.537 76.576-97.208h-15c0 11.227-2.49 20.868-6.941 29.5h-101.17c-4.441-8.632-6.889-18.257-6.889-29.5h-15c0 39.929 25.838 63.217 58.823 85.554-4.504 2.914-9.033 5.855-13.541 8.864-31.832-22.275-60.282-49.476-60.282-94.418h-15c0 49.522 28.848 79.45 62.157 103.492-11.474 8.278-22.454 17.298-32.042 27.819-20.264 22.237-30.115 46.996-30.115 75.689 0 49.522 28.848 79.45 62.157 103.492-11.474 8.277-22.454 17.298-32.042 27.819-18.477 20.276-28.292 42.649-29.881 68.189h-140.234v60h-13v45h511v-45zm-282.709-422h80.36c-10.181 11.57-24.173 21.621-40.155 32.156-16.255-10.727-30.151-20.761-40.205-32.156zm267.709 377v45h-220v-20.5c0-13.509 10.991-24.5 24.5-24.5zm-176.891-37c3.421 6.646 5.647 13.89 6.494 22h-25.103c-13.147 0-24.816 6.458-32 16.367-7.184-9.909-18.853-16.367-32-16.367h-25.105c.859-8.107 3.12-15.354 6.548-22zm-90.753-15c10.176-11.56 24.16-21.606 40.141-32.141 16.255 10.721 30.151 20.751 40.205 32.141zm127.355 37h-15.036c-3.039-35.417-27.639-57.148-58.504-78.04 4.508-2.917 9.04-5.862 13.552-8.873 30.017 21.004 57.009 46.4 59.988 86.913zm-87.214-276.141c14.812 9.769 27.655 18.968 37.427 29.141h-74.822c9.884-10.324 22.814-19.53 37.395-29.141zm-48.899 44.141h97.867c4.353 7.46 7.162 15.653 8.138 25h-114.207c.99-9.343 3.847-17.543 8.202-25zm-.066 65c-4.352-7.46-7.159-15.654-8.135-25h114.208c-.99 9.344-3.845 17.544-8.198 25zm11.536 15h74.839c-9.887 10.331-22.824 19.54-37.411 29.156-14.813-9.775-27.656-18.978-37.428-29.156zm33.356 49.708c39.38-25.475 76.576-49.536 76.576-97.208 0-39.93-25.841-63.211-58.828-85.54 4.508-2.917 9.04-5.862 13.551-8.874 31.831 22.274 60.277 49.475 60.277 94.414 0 55.826-42.396 83.257-83.449 109.819-37.243 24.092-72.511 46.933-76.211 89.681h-15.075c3.621-50.848 44.024-76.982 83.159-102.292zm-223.424 117.292h195.5c13.509 0 24.5 10.991 24.5 24.5v20.5h-220zm468 75h-481v-15h481zm-53.25-360 15.75 21 12-9-15.043-20.058 19.681-34.442-19.681-34.442 15.043-20.058-12-9-15.75 21h-40.603l-24.285 42.5 24.286 42.5zm-31.897-70h31.295l15.714 27.5-15.714 27.5h-31.295l-15.715-27.5zm-359.991 159.5-20 35 19.681 34.442-15.043 20.058 12 9 15.75-21h40.603l20-35h25.648v-15h-25.648l-15.715-27.5 20-35-24.286-42.5h-48.705l-20 35h-25.647v15h25.648zm60 35-15.714 27.5h-31.295l-15.715-27.5 15.714-27.5h31.295zm-47.009-97.5h31.295l15.714 27.5-15.714 27.5h-31.295l-15.715-27.5zm338.205 160.457 26.942 15.396v25.647h15v-25.648l35-20v-48.705l-35-20v-25.647h-15v25.647l-35 20v40.603l-21 15.75 9 12zm6.942-44.604 27.5-15.714 27.5 15.714v31.295l-27.5 15.714-27.5-15.714z" fill="url(#SVGID_3_)"/></g></svg>