<svg id="Capa_1" enable-background="new 0 0 511.501 511.501" height="512" viewBox="0 0 511.501 511.501" width="512" xmlns="http://www.w3.org/2000/svg" xmlns:xlink="http://www.w3.org/1999/xlink"><linearGradient id="SVGID_1_" gradientUnits="userSpaceOnUse" x1="263.5" x2="263.5" y1="67.501" y2="427.501"><stop offset=".00000083866" stop-color="#96d1f3"/><stop offset="1" stop-color="#ccfff4"/></linearGradient><linearGradient id="SVGID_2_" gradientUnits="userSpaceOnUse" x1="177.5" x2="177.5" y1="108.501" y2="309.501"><stop offset=".00000036422" stop-color="#a8abff"/><stop offset="1" stop-color="#fac8ff"/></linearGradient><linearGradient id="SVGID_3_" gradientUnits="userSpaceOnUse" x1="255.751" x2="255.751" y1=".001" y2="511.501"><stop offset=".00000011981" stop-color="#174fa3"/><stop offset="1" stop-color="#b044af"/></linearGradient><g><g><path d="m103.5 457.501c0 16.569 13.431 30 30 30h260c16.569 0 30-13.431 30-30v-30h-320z" fill="#fff"/><path d="m103.5 67.501h320v360h-320z" fill="url(#SVGID_1_)"/><g fill="#fff"><path d="m393.5 7.501h-260c-16.569 0-30 13.431-30 30v30h320v-30c0-16.569-13.431-30-30-30z"/><path d="m365.5 511.501v-29l-9.586-21.09c-17.481-38.459-4.194-83.919 31.247-106.91v-58.977c0-14.177 11.493-25.67 25.67-25.67 3.808 0 7.419.836 10.67 2.324v-38.678l36 3.27 44 119.73-38 101v54h-100.001z"/><path d="m7.5 138.501v201h140l1.056 2.111c5.482 10.963 16.687 17.889 28.944 17.889 12.257 0 23.463-6.925 28.944-17.889l1.056-2.111h140v-201z"/></g><path d="m217.5 108.501c-22.091 0-40 17.909-40 40 0-22.091-17.909-40-40-40h-100v201h280v-201z" fill="url(#SVGID_2_)"/></g><path d="m233.5 30.001h60v15h-60zm22.5 435h15v-15h-15zm255.501-108.47-38.501 102.334v52.636h-15v-55.364l37.498-99.667-41.401-112.66-23.097-2.097v26.081c9.025 5.934 15 16.145 15 27.73v92.187h-15v-92.187c0-10.019-8.151-18.17-18.17-18.17s-18.169 8.151-18.169 18.17v63.051l-3.418 2.218c-32.589 21.141-44.575 62.151-28.5 97.515l10.257 22.569v30.624h-15v-16.5h-224.5c-20.678 0-37.5-16.822-37.5-37.5v-110.5h-96v-216h30v-30h66v-63.5c0-20.678 16.822-37.5 37.5-37.5h260c20.678 0 37.5 16.822 37.5 37.5v189.15l33.903 3.08zm-466.501-94.53h92.5c12.564 0 23.996 4.912 32.5 12.906v-126.406c0-17.921-14.58-32.5-32.5-32.5h-92.5zm0 40h124.117c-3.396-14.315-16.278-25-31.617-25h-92.5zm107.135 30 3.128 6.257c4.239 8.478 12.759 13.743 22.236 13.743s17.998-5.266 22.236-13.743l3.128-6.257h137.137v-186h-15v171h-295v-171h-15v186zm157.865-70v-146h-92.5c-17.92 0-32.5 14.579-32.5 32.5v126.406c8.504-7.994 19.936-12.906 32.5-12.906zm-92.5 15c-15.339 0-28.221 10.685-31.617 25h124.117v-25zm131.586 187.513c-4.275-9.404-6.893-19.384-7.869-29.514h-230.217v22.5c0 12.406 10.093 22.5 22.5 22.5h222.625zm66.914-389.513h-305v26h26.5c16.782 0 31.548 8.756 40 21.932 8.452-13.176 23.218-21.932 40-21.932h107.5v30h30v216h-142.938c-7.1 12.394-20.141 20-34.562 20s-27.462-7.606-34.562-20h-31.938v73h229.974c.441-6.715 1.606-13.406 3.518-19.949 5.848-20.009 18.265-37.446 35.168-49.516v-55.012c0-18.29 14.88-33.17 33.169-33.17 1.07 0 2.126.056 3.17.155v-187.508zm0-37.5c0-12.406-10.093-22.5-22.5-22.5h-260c-12.407 0-22.5 10.094-22.5 22.5v22.5h305zm-268.5 118.5h-80v15h80zm-80 45h50v-15h-50zm140-30h80v-15h-80zm0 30h50v-15h-50z" fill="url(#SVGID_3_)"/></g></svg>