<svg id="Capa_1" enable-background="new 0 0 511.659 511.659" height="512" viewBox="0 0 511.659 511.659" width="512" xmlns="http://www.w3.org/2000/svg" xmlns:xlink="http://www.w3.org/1999/xlink"><linearGradient id="SVGID_1_" gradientUnits="userSpaceOnUse" x1="255.83" x2="255.83" y1="95.08" y2="295.08"><stop offset=".00000036422" stop-color="#a8abff"/><stop offset="1" stop-color="#fac8ff"/></linearGradient><linearGradient id="SVGID_2_" gradientUnits="userSpaceOnUse" x1="255.83" x2="255.83" y1=".08" y2="511.58"><stop offset=".00000011981" stop-color="#174fa3"/><stop offset="1" stop-color="#b044af"/></linearGradient><g><g><path d="m501.83 195.08s-110.138 130-246 130-246-130-246-130 110.138-130 246-130 246 130 246 130z" fill="#fff"/><circle cx="255.83" cy="195.08" fill="url(#SVGID_1_)" r="100"/><g fill="#fff"><path d="m315.83 178.08-60-25-60 25 22 9.167v44.833s10.364 11 38 11 38-11 38-11v-44.833z"/><path d="m490.83 474.08v-60h-203c-17.673 0-32 14.327-32 32 0-17.673-14.327-32-32-32h-203v60h-13v30h496v-30z"/></g></g><path d="m77.459 266.137c41.519 30.311 106.167 66.442 178.371 66.442s136.852-36.132 178.371-66.442c44.725-32.652 72.204-64.854 73.352-66.209l4.107-4.848-4.107-4.848c-1.148-1.355-28.627-33.558-73.352-66.209-41.519-30.312-106.167-66.443-178.371-66.443s-136.852 36.131-178.371 66.442c-44.725 32.652-72.204 64.854-73.352 66.209l-4.107 4.849 4.107 4.848c1.148 1.355 28.627 33.557 73.352 66.209zm9.14-130.215c39.649-28.897 101.194-63.342 169.231-63.342s129.582 34.446 169.231 63.342c33.416 24.354 57.355 48.987 66.708 59.158-9.353 10.171-33.292 34.804-66.708 59.158-39.649 28.896-101.194 63.342-169.231 63.342s-129.582-34.446-169.231-63.342c-33.416-24.354-57.356-48.988-66.708-59.158 9.353-10.171 33.292-34.805 66.708-59.158zm169.231 166.658c59.276 0 107.5-48.224 107.5-107.5s-48.224-107.5-107.5-107.5-107.5 48.224-107.5 107.5 48.224 107.5 107.5 107.5zm0-200c51.005 0 92.5 41.495 92.5 92.5s-41.495 92.5-92.5 92.5-92.5-41.495-92.5-92.5 41.495-92.5 92.5-92.5zm-45.5 132.476 2.041 2.167c1.288 1.367 13.451 13.357 43.459 13.357s42.171-11.99 43.459-13.357l2.041-2.167v-42.81l34-14.167-79.5-33.125-79.5 33.125 34 14.167zm76-6.598c-3.832 2.481-13.304 7.122-30.5 7.122-17.125 0-26.601-4.621-30.5-7.146v-29.938l30.5 12.708 30.5-12.708zm-30.5-67.253 40.5 16.875-40.5 16.875-40.5-16.875zm242.5 245.375h-210.5c-13.147 0-24.816 6.458-32 16.367-7.184-9.909-18.853-16.367-32-16.367h-210.5v60h-13v45h511v-45h-13zm-235 39.5c0-13.509 10.991-24.5 24.5-24.5h195.5v45h-220zm-235-24.5h195.5c13.509 0 24.5 10.991 24.5 24.5v20.5h-220zm468 75h-481v-15h481zm-233-458.5h-15v-38h15zm-15 314h15v38h-15zm-89.996-295.341-19-32.909 12.99-7.5 19 32.909zm182 284.181 12.99-7.5 19 32.909-12.99 7.5zm12.991-284.181-12.99-7.5 19-32.909 12.99 7.5zm-213.991 309.591 19-32.909 12.99 7.5-19 32.909z" fill="url(#SVGID_2_)"/></g></svg>