<svg id="Capa_1" enable-background="new 0 0 511 511" height="512" viewBox="0 0 511 511" width="512" xmlns="http://www.w3.org/2000/svg" xmlns:xlink="http://www.w3.org/1999/xlink"><linearGradient id="SVGID_1_" gradientUnits="userSpaceOnUse" x1="255.5" x2="255.5" y1="142.5" y2="298.5"><stop offset=".00000036422" stop-color="#a8abff"/><stop offset="1" stop-color="#fac8ff"/></linearGradient><linearGradient id="SVGID_2_" gradientUnits="userSpaceOnUse" x1="255.5" x2="255.5" y1="0" y2="511"><stop offset=".00000011981" stop-color="#174fa3"/><stop offset="1" stop-color="#b044af"/></linearGradient><g><g><path d="m27.5 257.5h18c12.15 0 22-9.85 22-22 0-103.829 84.17-188 188-188 103.829 0 188 84.17 188 188 0 12.15 9.85 22 22 22h18v-22c0-125.921-102.079-228-228-228-125.921 0-228 102.079-228 228z" fill="#fff"/><g fill="#fff"><path d="m127.5 286.5h-50c-11.046 0-20 8.954-20 20v20h-30c-11.046 0-20 8.954-20 20v40c0 11.046 8.954 20 20 20h30v20c0 11.046 8.954 20 20 20h50c11.046 0 20-8.954 20-20v-120c0-11.046-8.954-20-20-20z"/><path d="m483.5 326.5h-30v-20c0-11.046-8.954-20-20-20h-50c-11.046 0-20 8.954-20 20v120c0 11.046 8.954 20 20 20h50c11.046 0 20-8.954 20-20v-20h30c11.046 0 20-8.954 20-20v-40c0-11.046-8.954-20-20-20z"/></g><path d="m370.5 187.5-115-45-115 45 45 17.609v73.391s19.091 20 70 20 70-20 70-20v-73.391z" fill="url(#SVGID_1_)"/></g><path d="m491 320.048v-84.548c0-62.904-24.496-122.043-68.977-166.523-44.479-44.481-103.619-68.977-166.523-68.977s-122.044 24.496-166.523 68.977c-44.481 44.48-68.977 103.619-68.977 166.523v84.548c-11.528 3.274-20 13.889-20 26.452v40c0 15.164 12.337 27.5 27.5 27.5h22.5v12.5c0 15.164 12.337 27.5 27.5 27.5h50c15.163 0 27.5-12.336 27.5-27.5v-120c0-15.164-12.337-27.5-27.5-27.5h-50c-15.163 0-27.5 12.336-27.5 27.5v12.5h-15v-54h10.5c16.267 0 29.5-13.233 29.5-29.5 0-99.528 80.972-180.5 180.5-180.5s180.5 80.972 180.5 180.5c0 16.267 13.233 29.5 29.5 29.5h10.5v54h-15v-12.5c0-15.164-12.337-27.5-27.5-27.5h-50c-15.163 0-27.5 12.336-27.5 27.5v120c0 15.164 12.337 27.5 27.5 27.5h17.5v29.5c0 6.893-5.607 12.5-12.5 12.5h-184c-12.406 0-22.5-10.093-22.5-22.5s10.094-22.5 22.5-22.5h96c19.575 0 35.5-15.925 35.5-35.5s-15.925-35.5-35.5-35.5h-25c-6.893 0-12.5-5.607-12.5-12.5v-61.659c47.965-1.874 67.098-21.295 67.925-22.162l2.075-2.174v-71.277l26-10.174v62.446h15v-68.316l17.082-6.684-135.582-53.054-135.582 53.054 58.082 22.728v71.277l2.075 2.174c.827.867 19.959 20.288 67.925 22.162v61.659c0 15.164 12.337 27.5 27.5 27.5h25c11.304 0 20.5 9.196 20.5 20.5s-9.196 20.5-20.5 20.5h-96c-20.678 0-37.5 16.822-37.5 37.5s16.822 37.5 37.5 37.5h184c15.163 0 27.5-12.336 27.5-27.5v-29.5h17.5c15.163 0 27.5-12.336 27.5-27.5v-12.5h22.5c15.163 0 27.5-12.336 27.5-27.5v-40c0-12.563-8.472-23.178-20-26.452zm-426-13.548c0-6.893 5.607-12.5 12.5-12.5h50c6.893 0 12.5 5.607 12.5 12.5v120c0 6.893-5.607 12.5-12.5 12.5h-50c-6.893 0-12.5-5.607-12.5-12.5zm-15 27.5v65h-22.5c-6.893 0-12.5-5.607-12.5-12.5v-40c0-6.893 5.607-12.5 12.5-12.5zm111.082-146.5 94.418-36.946 94.418 36.946-94.418 36.946zm94.418 103.5c-37.626 0-56.592-11.526-62.5-15.965v-58.938l62.5 24.456 62.5-24.456v58.93c-5.971 4.485-24.937 15.973-62.5 15.973zm190.5 135.5c0 6.893-5.607 12.5-12.5 12.5h-50c-6.893 0-12.5-5.607-12.5-12.5v-120c0-6.893 5.607-12.5 12.5-12.5h50c6.893 0 12.5 5.607 12.5 12.5zm19.5-176.5c-7.995 0-14.5-6.505-14.5-14.5 0-107.799-87.701-195.5-195.5-195.5s-195.5 87.701-195.5 195.5c0 7.995-6.505 14.5-14.5 14.5h-10.5v-14.5c0-121.584 98.916-220.5 220.5-220.5s220.5 98.916 220.5 220.5v14.5zm30.5 136.5c0 6.893-5.607 12.5-12.5 12.5h-22.5v-65h22.5c6.893 0 12.5 5.607 12.5 12.5z" fill="url(#SVGID_2_)"/></g></svg>