<svg id="Capa_1" enable-background="new 0 0 511.5 511.5" height="512" viewBox="0 0 511.5 511.5" width="512" xmlns="http://www.w3.org/2000/svg" xmlns:xlink="http://www.w3.org/1999/xlink"><linearGradient id="SVGID_1_" gradientUnits="userSpaceOnUse" x1="255.75" x2="255.75" y1="263.5" y2="511.5"><stop offset=".00000083866" stop-color="#96d1f3"/><stop offset="1" stop-color="#ccfff4"/></linearGradient><linearGradient id="SVGID_2_" gradientUnits="userSpaceOnUse" x1="255.75" x2="255.75" y1="85.5" y2="241.5"><stop offset=".00000036422" stop-color="#a8abff"/><stop offset="1" stop-color="#fac8ff"/></linearGradient><linearGradient id="SVGID_3_" gradientUnits="userSpaceOnUse" x1="255.75" x2="255.75" y1="0" y2="511.5"><stop offset=".00000011981" stop-color="#174fa3"/><stop offset="1" stop-color="#b044af"/></linearGradient><g><g><path d="m7.75 511.5c0-136.967 111.033-248 248-248s248 111.033 248 248z" fill="url(#SVGID_1_)"/><g fill="#fff"><path d="m149.684 263.566c-29.289-29.289-43.934-67.678-43.934-106.066 0-82.843 67.157-150 150-150s150 67.157 150 150c0 38.388-14.645 76.777-43.934 106.066l-106.066 105.934z"/><path d="m202.75 449.5-55-25-10-42-81.153-18.804c-30.685 41.278-48.847 92.418-48.847 147.804h226v-23z"/><path d="m495.553 448.081-58.803-20.581-59 43-17 33v8h143c0-21.922-2.857-43.175-8.197-63.419z"/></g><path d="m255.75 85.5-105 45 35 15v76s19.091 20 70 20 70-20 70-20v-76l35-15z" fill="url(#SVGID_2_)"/></g><path d="m465.422 365.454c-27.109-38.848-63.922-69.07-106.948-87.95l8.646-8.635c29.747-29.748 46.13-69.3 46.13-111.369 0-86.846-70.654-157.5-157.5-157.5s-157.5 70.654-157.5 157.5c0 42.069 16.383 81.621 46.131 111.37l8.645 8.635c-43.026 18.879-79.838 49.101-106.948 87.949-29.981 42.964-45.828 93.465-45.828 146.046h15c0-50.773 16.377-99.305 44.813-139.302l71.467 16.56 9.774 41.051 56.698 25.771 28.248 35.537v20.383h15v-25.617l-33.752-42.463-53.302-24.229-10.226-42.949-73.915-17.127c24.821-30.354 57.021-54.82 94.415-70.182l91.28 91.166 91.28-91.166c65.463 26.893 115.022 81.67 136.899 147.133l-48.417-16.945-63.616 46.364-18.646 36.196v9.818h15v-6.182l15.354-29.804 54.384-39.636 51.109 17.888c4.681 18.662 7.154 38.028 7.154 57.733h15c-.001-52.579-15.848-103.08-45.829-146.044zm-209.672-6.554-100.763-100.637c-26.915-26.915-41.737-62.7-41.737-100.763 0-78.575 63.925-142.5 142.5-142.5s142.5 63.925 142.5 142.5c0 38.062-14.822 73.848-41.733 100.76zm0-281.56-124.04 53.16 46.54 19.946v74.059l2.075 2.174c.87.911 21.922 22.321 75.425 22.321s74.556-21.41 75.425-22.321l2.075-2.174v-74.059l15-6.429v64.483h15v-70.912l16.539-7.088zm62.5 140.687c-5.971 4.484-24.937 15.973-62.5 15.973-37.626 0-56.592-11.525-62.5-15.965v-61.161l62.5 26.786 62.5-26.786zm-62.5-50.687-85.96-36.84 85.96-36.84 85.961 36.84z" fill="url(#SVGID_3_)"/></g></svg>