<svg id="Capa_1" enable-background="new 0 0 511 511" height="512" viewBox="0 0 511 511" width="512" xmlns="http://www.w3.org/2000/svg" xmlns:xlink="http://www.w3.org/1999/xlink"><linearGradient id="SVGID_1_" gradientUnits="userSpaceOnUse" x1="255.5" x2="255.5" y1="138.5" y2="284.5"><stop offset=".00000036422" stop-color="#a8abff"/><stop offset="1" stop-color="#fac8ff"/></linearGradient><linearGradient id="SVGID_2_" gradientUnits="userSpaceOnUse" x1="258.5" x2="258.5" y1="317.5" y2="467.5"><stop offset=".00000083866" stop-color="#96d1f3"/><stop offset="1" stop-color="#ccfff4"/></linearGradient><linearGradient id="SVGID_3_" gradientUnits="userSpaceOnUse" x1="255.5" x2="255.5" y1="0" y2="511"><stop offset=".00000011981" stop-color="#174fa3"/><stop offset="1" stop-color="#b044af"/></linearGradient><g><g><path d="m419.5 168.071v-99.571h-58v49.857l-106-90.857-180 154.286v321.714h360v-321.714z" fill="#fff"/><path d="m365.5 183.5-110-45-110 45 40 16.364v64.636s19.091 20 70 20 70-20 70-20v-64.636z" fill="url(#SVGID_1_)"/><path d="m298.5 317.5c-22.091 0-40 17.909-40 40 0-22.091-17.909-40-40-40h-90v150h260v-150z" fill="url(#SVGID_2_)"/></g><path d="m427 164.622v-103.622h-73v41.051l-98.5-84.429-249.881 214.184 9.762 11.389 52.619-45.103v312.908h375v-312.908l52.619 45.102 9.762-11.389zm-58-88.622h43v75.765l-43-36.857zm59 420h-345v-310.765l172.5-147.857 172.5 147.857zm.5-451h-15v-15h15zm-30 0h-15v-15h15zm-31 0h-15v-15h15zm45-30h-15v-15h15zm-30 0h-15v-15h15zm-256.808 168.5 52.308 21.399v62.606l2.075 2.174c.87.911 21.922 22.321 75.425 22.321s74.555-21.41 75.425-22.321l2.075-2.174v-62.606l52.308-21.399-129.808-53.104zm192.308 77.527c-5.97 4.485-24.936 15.973-62.5 15.973-37.626 0-56.592-11.525-62.5-15.965v-50l62.5 25.568 62.5-25.568zm-62.5-40.631-90.192-36.896 90.192-36.896 90.192 36.896zm-97 129.604h70v15h-70zm0 30h40v15h-40zm100-48.068c-8.452-13.176-23.218-21.932-40-21.932h-97.5v165h275v-165h-97.5c-16.782 0-31.548 8.756-40 21.932zm-122.5 128.068v-25h82.5c15.339 0 28.221 10.685 31.617 25zm115-27.094c-8.504-7.994-19.936-12.906-32.5-12.906h-82.5v-95h82.5c17.92 0 32.5 14.579 32.5 32.5zm130 27.094h-114.117c3.396-14.315 16.278-25 31.617-25h82.5zm0-40h-82.5c-12.564 0-23.996 4.912-32.5 12.906v-75.406c0-17.921 14.58-32.5 32.5-32.5h82.5zm-92.5-70h70v15h-70zm0 30h40v15h-40z" fill="url(#SVGID_3_)"/></g></svg>