<svg id="Capa_1" enable-background="new 0 0 511 511" height="512" viewBox="0 0 511 511" width="512" xmlns="http://www.w3.org/2000/svg" xmlns:xlink="http://www.w3.org/1999/xlink"><linearGradient id="SVGID_1_" gradientUnits="userSpaceOnUse" x1="255.5" x2="255.5" y1="20.5" y2="308.5"><stop offset=".00000083866" stop-color="#96d1f3"/><stop offset="1" stop-color="#ccfff4"/></linearGradient><linearGradient id="SVGID_2_" gradientUnits="userSpaceOnUse" x1="255.5" x2="255.5" y1="13" y2="498"><stop offset=".00000011981" stop-color="#174fa3"/><stop offset="1" stop-color="#b044af"/></linearGradient><g><g><path d="m380.5 460.5v30h-250v-30h39l30-68h112l30 68z" fill="#fff"/><path d="m503.5 308.5v-258c0-16.569-13.431-30-30-30h-436c-16.569 0-30 13.431-30 30v258z" fill="url(#SVGID_1_)"/><g fill="#fff"><path d="m7.5 300.5v62c0 16.569 13.431 30 30 30h436c16.569 0 30-13.431 30-30v-62z"/><g><path d="m149.172 242.118c3.934-4.417 6.328-10.237 6.328-16.618v-10c0-13.807-11.193-25-25-25s-25 11.193-25 25v10c0 6.381 2.394 12.2 6.328 16.618-18.362 7.399-31.328 25.371-31.328 46.382v12h100v-12c0-21.011-12.966-38.983-31.328-46.382z"/><path d="m399.172 242.118c3.934-4.417 6.328-10.237 6.328-16.618v-10c0-13.807-11.193-25-25-25s-25 11.193-25 25v10c0 6.381 2.394 12.2 6.328 16.618-18.362 7.399-31.328 25.371-31.328 46.382v12h100v-12c0-21.011-12.966-38.983-31.328-46.382z"/><path d="m399.172 102.118c3.934-4.418 6.328-10.237 6.328-16.618v-10c0-13.807-11.193-25-25-25s-25 11.193-25 25v10c0 6.381 2.394 12.2 6.328 16.618-18.362 7.399-31.328 25.371-31.328 46.382v12h100v-12c0-21.011-12.966-38.983-31.328-46.382z"/></g><path d="m170.5 50.5c-22.091 0-40 17.909-40 40 0-22.091-17.909-40-40-40h-50v110h180v-110z"/></g></g><path d="m473.5 13h-436c-20.678 0-37.5 16.822-37.5 37.5v312c0 20.678 16.822 37.5 37.5 37.5h150.494l-23.382 53h-41.612v45h265v-45h-41.612l-23.382-53h150.494c20.678 0 37.5-16.822 37.5-37.5v-312c0-20.678-16.822-37.5-37.5-37.5zm-458.5 37.5c0-12.406 10.093-22.5 22.5-22.5h210.5v125h-20v-110h-57.5c-16.782 0-31.548 8.756-40 21.932-8.452-13.176-23.218-21.932-40-21.932h-57.5v110h-18zm145.5 72.5c-8.436 0-16.228 2.801-22.5 7.52v-40.02c0-17.921 14.58-32.5 32.5-32.5h42.5v65zm52.5 15v15h-73.71c3.096-8.729 11.432-15 21.21-15zm-112.5-15h-52.5v-65h42.5c17.92 0 32.5 14.579 32.5 32.5v40.02c-6.272-4.719-14.064-7.52-22.5-7.52zm21.21 30h-73.71v-15h52.5c9.777 0 18.114 6.271 21.21 15zm-106.71 15h233v125h-60v-4.5c0-20.567-10.749-39.117-28.004-49.377 1.923-4.147 3.004-8.76 3.004-13.623v-10c0-17.921-14.58-32.5-32.5-32.5s-32.5 14.579-32.5 32.5v10c0 4.863 1.081 9.477 3.004 13.623-17.255 10.26-28.004 28.81-28.004 49.377v4.5h-58zm115.5 90c7.573 0 14.544-2.611 20.076-6.97 13.758 7.344 22.424 21.594 22.424 37.47v4.5h-85v-4.5c0-15.876 8.666-30.126 22.424-37.47 5.532 4.359 12.503 6.97 20.076 6.97zm-17.5-32.5v-10c0-9.649 7.851-17.5 17.5-17.5s17.5 7.851 17.5 17.5v10c0 9.649-7.851 17.5-17.5 17.5s-17.5-7.851-17.5-17.5zm260 242.5v15h-235v-15zm-43.006-15h-148.988l23.382-53h102.223zm166.006-90.5c0 12.406-10.094 22.5-22.5 22.5h-436c-12.407 0-22.5-10.094-22.5-22.5v-54.5h481zm-115.5-104.5c7.573 0 14.544-2.611 20.076-6.97 13.759 7.344 22.424 21.594 22.424 37.47v4.5h-85v-4.5c0-15.876 8.665-30.126 22.424-37.47 5.532 4.359 12.503 6.97 20.076 6.97zm-17.5-32.5v-10c0-9.649 7.851-17.5 17.5-17.5s17.5 7.851 17.5 17.5v10c0 9.649-7.851 17.5-17.5 17.5s-17.5-7.851-17.5-17.5zm133 67.5h-58v-4.5c0-20.567-10.749-39.116-28.004-49.377 1.923-4.147 3.004-8.76 3.004-13.623v-10c0-17.921-14.579-32.5-32.5-32.5s-32.5 14.579-32.5 32.5v10c0 4.863 1.081 9.477 3.004 13.623-17.255 10.261-28.004 28.81-28.004 49.377v4.5h-60v-125h233zm-115.5-175c7.573 0 14.544-2.611 20.076-6.97 13.759 7.344 22.424 21.594 22.424 37.47v4.5h-85v-4.5c0-15.876 8.665-30.126 22.424-37.47 5.532 4.359 12.503 6.97 20.076 6.97zm-17.5-32.5v-10c0-9.649 7.851-17.5 17.5-17.5s17.5 7.851 17.5 17.5v10c0 9.649-7.851 17.5-17.5 17.5s-17.5-7.851-17.5-17.5zm133 67.5h-58v-4.5c0-20.567-10.749-39.116-28.004-49.377 1.923-4.146 3.004-8.76 3.004-13.623v-10c0-17.921-14.579-32.5-32.5-32.5s-32.5 14.579-32.5 32.5v10c0 4.863 1.081 9.477 3.004 13.623-17.255 10.261-28.004 28.81-28.004 49.377v4.5h-60v-125h210.5c12.406 0 22.5 10.094 22.5 22.5zm-240.5 216c12.406 0 22.5-10.094 22.5-22.5s-10.094-22.5-22.5-22.5c-12.407 0-22.5 10.094-22.5 22.5s10.093 22.5 22.5 22.5zm0-30c4.136 0 7.5 3.364 7.5 7.5s-3.364 7.5-7.5 7.5-7.5-3.364-7.5-7.5 3.364-7.5 7.5-7.5zm-191-258h40v15h-40zm92 0h40v15h-40z" fill="url(#SVGID_2_)"/></g></svg>