<svg id="Capa_1" enable-background="new 0 0 511 511" height="512" viewBox="0 0 511 511" width="512" xmlns="http://www.w3.org/2000/svg" xmlns:xlink="http://www.w3.org/1999/xlink"><linearGradient id="SVGID_1_" gradientUnits="userSpaceOnUse" x1="255.5" x2="255.5" y1="10.703" y2="470.703"><stop offset=".00000083866" stop-color="#96d1f3"/><stop offset="1" stop-color="#ccfff4"/></linearGradient><linearGradient id="SVGID_2_" gradientUnits="userSpaceOnUse" x1="255.5" x2="255.5" y1="2.797" y2="508.203"><stop offset=".00000011981" stop-color="#174fa3"/><stop offset="1" stop-color="#b044af"/></linearGradient><g><g><path d="m413.5 500.703c49.706 0 90-40.429 90-90.301 0-38.974-24.609-72.182-59.087-84.833.052-1.148.087-2.301.087-3.461 0-41.56-33.579-75.251-75-75.251-6.225 0-12.267.775-18.051 2.209-26.547-29.684-65.071-48.363-107.949-48.363-64.009 0-118.325 41.616-137.552 99.351-54.512.833-98.448 45.422-98.448 100.314 0 55.413 44.772 100.334 100 100.334h306z" fill="#fff"/><path d="m445.5 211.703h-40v-30c0-11.046 8.954-20 20-20 11.046 0 20 8.954 20 20z" fill="#fff"/><path d="m365.5 94.036v118.667s-30 20-110 20-110-20-110-20v-118.667l-70-23.333 180-60 180 60zm-110 326.667c-13.807 0-25 11.193-25 25s11.193 25 25 25 25-11.193 25-25-11.193-25-25-25zm-146 7c0 13.807-11.193 25-25 25s-25-11.193-25-25 11.193-25 25-25 25 11.193 25 25zm45-73c0 13.807-11.193 25-25 25s-25-11.193-25-25 11.193-25 25-25 25 11.193 25 25zm272 48c13.807 0 25 11.193 25 25s-11.193 25-25 25-25-11.193-25-25 11.193-25 25-25zm-45-73c13.807 0 25 11.193 25 25s-11.193 25-25 25-25-11.193-25-25 11.193-25 25-25z" fill="url(#SVGID_1_)"/></g><path d="m451.985 320.517c-.85-44.896-37.525-81.16-82.485-81.16-5.175 0-10.354.491-15.448 1.463-3.631-3.831-7.463-7.476-11.474-10.917 18.221-5.208 26.432-10.526 27.083-10.96l3.34-2.227v-117.275l45-15v70.81c-11.528 3.274-20 13.889-20 26.452v37.5h55v-37.5c0-12.563-8.472-23.178-20-26.452v-75.81l26.217-8.739-203.718-67.905-203.717 67.906 86.217 28.738v117.275l3.34 2.227c.399.266 3.642 2.367 10.281 5.151-23.135 17.545-40.917 41.388-51.055 68.667-26.383 1.679-50.94 12.896-69.633 31.921-19.948 20.3-30.933 47.18-30.933 75.687 0 59.46 48.224 107.834 107.5 107.834h306c53.762 0 97.5-43.873 97.5-97.801 0-39.103-23.502-74.565-59.015-89.885zm-13.985-138.814v22.5h-25v-22.5c0-6.893 5.607-12.5 12.5-12.5s12.5 5.607 12.5 12.5zm-80 26.542c-9.666 4.707-40.765 16.958-102.5 16.958-61.782 0-92.881-12.27-102.5-16.954v-103.808l102.5 34.167 102.5-34.167zm-85 237.458c0 9.649-7.851 17.5-17.5 17.5s-17.5-7.851-17.5-17.5 7.851-17.5 17.5-17.5 17.5 7.85 17.5 17.5zm-173.783-375 156.283-52.095 156.283 52.095-156.283 52.094zm314.283 422.5h-306c-51.005 0-92.5-41.646-92.5-92.834 0-50.412 40.851-92.049 91.063-92.816l5.32-.081 1.681-5.048c9.902-29.735 29.757-55.297 56.086-72.317 9.927 2.795 22.751 5.538 38.85 7.458v66.638h-36.606l-23.632 23.631c-5.208-3.551-11.496-5.631-18.262-5.631-17.92 0-32.5 14.579-32.5 32.5s14.58 32.5 32.5 32.5 32.5-14.579 32.5-32.5c0-5.727-1.495-11.109-4.106-15.787l19.712-19.713h30.394v60.394l-40.606 40.606h-51.277c-3.396-14.315-16.278-25-31.617-25-17.92 0-32.5 14.579-32.5 32.5s14.58 32.5 32.5 32.5c15.339 0 28.221-10.685 31.617-25h57.49l49.393-49.394v-146.789c7.708.585 16.027.981 25 1.124v173.942c-14.315 3.396-25 16.278-25 31.617 0 17.921 14.58 32.5 32.5 32.5 17.921 0 32.5-14.579 32.5-32.5 0-15.339-10.685-28.221-25-31.617v-173.942c8.973-.142 17.292-.538 25-1.124v146.789l49.394 49.394h57.49c3.396 14.315 16.278 25 31.617 25 17.921 0 32.5-14.579 32.5-32.5s-14.579-32.5-32.5-32.5c-15.339 0-28.221 10.685-31.617 25h-51.277l-40.607-40.607v-60.394h30.394l19.712 19.713c-2.611 4.678-4.106 10.06-4.106 15.787 0 17.921 14.579 32.5 32.5 32.5s32.5-14.579 32.5-32.5-14.579-32.5-32.5-32.5c-6.766 0-13.053 2.08-18.261 5.631l-23.632-23.631h-36.607v-66.638c7.729-.922 14.704-2.033 20.965-3.249 7.981 5.792 15.34 12.419 21.894 19.749l3.011 3.367 4.385-1.087c5.32-1.318 10.786-1.987 16.246-1.987 37.22 0 67.5 30.393 67.5 67.75 0 .931-.025 1.924-.079 3.124l-.247 5.487 5.155 1.892c32.4 11.89 54.17 43.151 54.17 77.792 0 45.656-37.01 82.801-82.5 82.801zm-266.5-138.5c0 9.649-7.851 17.5-17.5 17.5s-17.5-7.851-17.5-17.5 7.851-17.5 17.5-17.5 17.5 7.85 17.5 17.5zm-45 73c0 9.649-7.851 17.5-17.5 17.5s-17.5-7.851-17.5-17.5 7.851-17.5 17.5-17.5 17.5 7.85 17.5 17.5zm307 0c0-9.649 7.851-17.5 17.5-17.5s17.5 7.851 17.5 17.5-7.851 17.5-17.5 17.5-17.5-7.851-17.5-17.5zm-45-73c0-9.649 7.851-17.5 17.5-17.5s17.5 7.851 17.5 17.5-7.851 17.5-17.5 17.5-17.5-7.851-17.5-17.5z" fill="url(#SVGID_2_)"/></g></svg>