<svg id="Capa_1" enable-background="new 0 0 511.358 511.358" height="512" viewBox="0 0 511.358 511.358" width="512" xmlns="http://www.w3.org/2000/svg" xmlns:xlink="http://www.w3.org/1999/xlink"><linearGradient id="SVGID_1_" gradientUnits="userSpaceOnUse" x1="255.679" x2="255.679" y1="154.679" y2="453.679"><stop offset=".00000083866" stop-color="#96d1f3"/><stop offset="1" stop-color="#ccfff4"/></linearGradient><linearGradient id="SVGID_2_" gradientUnits="userSpaceOnUse" x1="255.679" x2="255.679" y1="37.679" y2="247.679"><stop offset=".00000036422" stop-color="#a8abff"/><stop offset="1" stop-color="#fac8ff"/></linearGradient><linearGradient id="SVGID_3_" gradientUnits="userSpaceOnUse" x1="255.679" x2="255.679" y1=".179" y2="511.179"><stop offset=".00000011981" stop-color="#174fa3"/><stop offset="1" stop-color="#b044af"/></linearGradient><g><g><path d="m7.679 194.679v289h218l1.056 2.111c5.482 10.963 16.687 17.889 28.944 17.889 12.257 0 23.463-6.925 28.944-17.889l1.056-2.111h218v-289z" fill="#fff"/><path d="m295.679 154.679c-22.091 0-40 17.909-40 40 0-22.091-17.909-40-40-40h-170v299h420v-299z" fill="url(#SVGID_1_)"/><path d="m295.679 393.679c-22.091 0-40 17.909-40 40 0-22.091-17.909-40-40-40h-170v60h420v-60z" fill="#fff"/><path d="m501.679 142.679s-110.138 135-246 135-246-135-246-135 110.138-135 246-135 246 135 246 135z" fill="#fff"/><path d="m360.679 156.525v-27.691l-23.175-8.242c-3.332-8.045-5.016-12.109-8.348-20.154l10.56-22.215-19.58-19.58-22.215 10.56c-8.045-3.332-12.109-5.016-20.154-8.348l-8.241-23.175h-27.691l-8.242 23.175c-8.045 3.332-12.109 5.016-20.154 8.348l-22.215-10.56-19.58 19.58 10.56 22.215-8.348 20.154-23.175 8.242v27.691l23.175 8.242 8.348 20.154-10.56 22.215c9.778 9.778 9.803 9.803 19.58 19.58l22.215-10.56 20.154 8.348 8.242 23.175h27.691l8.241-23.175c8.045-3.332 12.109-5.016 20.154-8.348l22.215 10.56c9.778-9.778 9.803-9.803 19.58-19.58l-10.56-22.215c3.332-8.045 5.016-12.109 8.348-20.154zm-105 31.154c-24.853 0-45-20.147-45-45s20.147-45 45-45 45 20.147 45 45-20.147 45-45 45z" fill="url(#SVGID_2_)"/></g><path d="m473.179 183.213c18.501-17.315 29.142-29.516 38.179-40.534-58.967-71.842-158.301-142.5-255.679-142.5-101.436 0-201.108 76.014-255.679 142.5 9.068 11.056 19.353 22.913 38.179 40.534v3.966h-38v304h220.938c7.1 12.394 20.141 20 34.562 20s27.462-7.606 34.562-20h220.938v-304h-38zm-453.609-40.534c58.057-65.741 148.097-127.5 236.109-127.5 87.958 0 178.095 61.808 236.109 127.5-58.057 65.741-148.097 127.5-236.109 127.5-87.986 0-178.117-61.834-236.109-127.5zm276.109 243.5c-12.564 0-23.996 4.913-32.5 12.906v-114.054c72.08-2.543 140.197-41.02 195-88.334v189.483h-162.5zm162.5 15v45h-195v-12.5c0-17.921 14.58-32.5 32.5-32.5zm-242.5-15h-162.5v-189.483c54.661 47.193 122.801 85.787 195 88.334v114.055c-8.504-7.993-19.936-12.906-32.5-12.906zm32.5 47.5v12.5h-195v-45h162.5c17.921 0 32.5 14.579 32.5 32.5zm248-231.5v274h-215.135l-3.128 6.257c-4.239 8.478-12.759 13.743-22.236 13.743s-17.998-5.266-22.236-13.743l-3.128-6.257h-215.137v-274h23v259h217.5 7.5 210v-259zm-420.5 99h140v15h-140zm220 0h140v15h-140zm-220 30h89v15h-89zm220 0h89v15h-89zm-121.681-146.468-11.402 23.984 27.066 27.065 23.985-11.4 13.995 5.796 8.898 25.022h38.276l8.898-25.022 13.995-5.796 23.985 11.4 27.066-27.065-11.402-23.984 5.797-13.996 25.022-8.897v-38.277l-25.022-8.897-5.797-13.996 11.401-23.984-27.066-27.065-23.985 11.4-13.995-5.796-8.898-25.022h-38.276l-8.898 25.022-13.995 5.796-23.985-11.4-27.066 27.065 11.401 23.984-5.797 13.996-25.022 8.897v38.277l25.022 8.897zm-15.819-50.585 21.329-7.585 10.899-26.312-9.719-20.445 12.095-12.095 20.445 9.719 26.313-10.899 7.585-21.329h17.104l7.585 21.329 26.313 10.899 20.445-9.719 12.095 12.095-9.719 20.444 10.899 26.314 21.329 7.584v17.105l-21.329 7.584-10.899 26.314 9.719 20.444-12.095 12.095-20.445-9.719-26.313 10.899-7.585 21.329h-17.104l-7.585-21.329-26.313-10.899-20.445 9.719-12.095-12.095 9.719-20.445-10.899-26.312-21.329-7.585zm97.5 61.053c28.949 0 52.5-23.552 52.5-52.5s-23.551-52.5-52.5-52.5-52.5 23.552-52.5 52.5 23.551 52.5 52.5 52.5zm0-90c20.678 0 37.5 16.822 37.5 37.5s-16.822 37.5-37.5 37.5-37.5-16.822-37.5-37.5 16.822-37.5 37.5-37.5z" fill="url(#SVGID_3_)"/></g></svg>