<svg id="Capa_1" enable-background="new 0 0 511 511" height="512" viewBox="0 0 511 511" width="512" xmlns="http://www.w3.org/2000/svg" xmlns:xlink="http://www.w3.org/1999/xlink"><linearGradient id="SVGID_1_" gradientUnits="userSpaceOnUse" x1="453.5" x2="453.5" y1="363.203" y2="503.203"><stop offset=".00000083866" stop-color="#96d1f3"/><stop offset="1" stop-color="#ccfff4"/></linearGradient><linearGradient id="SVGID_2_" gradientUnits="userSpaceOnUse" x1="255.5" x2="255.5" y1="8.203" y2="240.203"><stop offset=".00000036422" stop-color="#a8abff"/><stop offset="1" stop-color="#fac8ff"/></linearGradient><linearGradient id="SVGID_3_" gradientUnits="userSpaceOnUse" x1="255.5" x2="255.5" y1=".297" y2="510.703"><stop offset=".00000011981" stop-color="#174fa3"/><stop offset="1" stop-color="#b044af"/></linearGradient><g><g><path d="m352.5 503.203h-330c-8.284 0-15-6.716-15-15v-140c0-8.284 6.716-14.5 15-14.5l330-.5c8.284 0 15 6.716 15 15v140c0 8.284-6.716 15-15 15z" fill="#fff"/><path d="m483.5 503.203h-60c-11.046 0-20-8.954-20-20v-100c0-11.046 8.954-20 20-20h60c11.046 0 20 8.954 20 20v100c0 11.046-8.954 20-20 20z" fill="url(#SVGID_1_)"/><path d="m445.5 209.203h-40v-30c0-11.046 8.954-20 20-20 11.046 0 20 8.954 20 20z" fill="#fff"/><path d="m435.5 68.203-180-60-180 60 70 23.333v128.667s30 20 110 20 110-20 110-20v-128.667z" fill="url(#SVGID_2_)"/></g><path d="m202.5 385.703h-15v-15h15zm-30-15h-15v15h15zm-30 0h-15v15h15zm90 0h-15v15h15zm-120 0h-15v15h15zm150 0h-15v15h15zm-180 0h-15v15h15zm-30 0h-15v15h15zm150 40h-15v15h15zm-150 0h-15v15h15zm180 0h-15v15h15zm-120 0h-15v15h15zm30 0h-15v15h15zm120 0h-15v15h15zm-180 0h-15v15h15zm90 0h-15v15h15zm76 55h15v-15h-15zm-196-15h-15v15h15zm181 0h-166v15h166zm277.5-67.5v100c0 15.164-12.336 27.5-27.5 27.5h-60c-15.164 0-27.5-12.336-27.5-27.5v-100c0-15.164 12.336-27.5 27.5-27.5h22.5v-45.5c0-6.893-5.607-12.5-12.5-12.5h-136c-15.164 0-27.5-12.336-27.5-27.5v-22.725c-4.647.146-9.478.225-14.5.225-3.599 0-7.095-.042-10.5-.118v22.618c0 15.164-12.336 27.5-27.5 27.5h-110c-6.893 0-12.5 5.607-12.5 12.5v16h257.511c12.605 0 22.489 9.664 22.489 22v140c0 12.407-10.093 22.5-22.5 22.5h-330c-12.407 0-22.5-10.093-22.5-22.5v-140c0-12.407 10.093-22 22.5-22h57.5v-16c0-15.164 12.336-27.5 27.5-27.5h110c6.893 0 12.5-5.607 12.5-12.5v-23.214c-62.519-3.614-87.504-19.775-88.66-20.545l-3.34-2.227v-127.275l-86.217-28.739 203.717-67.906 203.717 67.906-26.217 8.739v75.809c11.528 3.274 20 13.888 20 26.452v37.5h-55v-37.5c0-12.563 8.472-23.178 20-26.452v-70.809l-45 15v127.275l-3.34 2.227c-1.131.754-25.076 16.239-84.66 20.293v23.467c0 6.893 5.607 12.5 12.5 12.5h136c15.164 0 27.5 12.336 27.5 27.5v45.5h22.5c15.164-.001 27.5 12.335 27.5 27.499zm-85.5-216.5c-6.893 0-12.5 5.607-12.5 12.5v22.5h25v-22.5c0-6.893-5.607-12.5-12.5-12.5zm-403.011 174.5c-4.125 0-7.489 2.864-7.489 7v140c0 4.136 3.364 7.5 7.5 7.5h330c4.136 0 7.5-3.364 7.5-7.5v-140c0-3.991-3.224-7-7.5-7zm233.011-220.906 156.283-52.094-156.283-52.094-156.283 52.094zm102.5 95.448v-113.803l-102.5 34.167-102.5-34.167v113.807c9.619 4.684 40.718 16.954 102.5 16.954 61.735 0 92.834-12.251 102.5-16.958zm53 189.958h35v-35h-22.5c-6.893 0-12.5 5.607-12.5 12.5zm85 15h-85v62.5c0 6.893 5.607 12.5 12.5 12.5h60c6.893 0 12.5-5.607 12.5-12.5zm0-37.5c0-6.893-5.607-12.5-12.5-12.5h-22.5v35h35zm-158.5-12.5h-15v15h15zm-30 0h-15v15h15zm0 40h-15v15h15zm30 0h-15v15h15z" fill="url(#SVGID_3_)"/></g></svg>