<svg id="Capa_1" enable-background="new 0 0 511 511" height="512" viewBox="0 0 511 511" width="512" xmlns="http://www.w3.org/2000/svg" xmlns:xlink="http://www.w3.org/1999/xlink"><linearGradient id="lg1"><stop offset=".00000083866" stop-color="#96d1f3"/><stop offset="1" stop-color="#ccfff4"/></linearGradient><linearGradient id="SVGID_1_" gradientUnits="userSpaceOnUse" x1="255.5" x2="255.5" xlink:href="#lg1" y1="195.5" y2="315.5"/><linearGradient id="SVGID_2_" gradientUnits="userSpaceOnUse" x1="255.5" x2="255.5" xlink:href="#lg1" y1="42.5" y2="414.5"/><linearGradient id="SVGID_3_" gradientUnits="userSpaceOnUse" x1="255.5" x2="255.5" y1="0" y2="511"><stop offset=".00000011981" stop-color="#174fa3"/><stop offset="1" stop-color="#b044af"/></linearGradient><g><g><path d="m295.5 195.5c-22.091 0-40 17.909-40 40 0-22.091-17.909-40-40-40h-60v120h200v-120z" fill="url(#SVGID_1_)"/><path d="m77.5 379.5c0 19.33-15.67 35-35 35s-35-15.67-35-35 15.67-35 35-35 35 15.67 35 35zm391-35c-19.33 0-35 15.67-35 35s15.67 35 35 35 35-15.67 35-35-15.67-35-35-35zm-316-302c-19.33 0-35 15.67-35 35s15.67 35 35 35 35-15.67 35-35-15.67-35-35-35z" fill="url(#SVGID_2_)"/></g><path d="m183.5 218h40v15h-40zm112-30h67.5v135h-215v-135h67.5c16.782 0 31.548 8.756 40 21.932 8.452-13.176 23.218-21.932 40-21.932zm-48.79 120c-3.096-8.729-11.433-15-21.21-15h-62.5v15zm1.29-72.5c0-17.921-14.579-32.5-32.5-32.5h-52.5v75h62.5c8.436 0 16.228 2.801 22.5 7.521zm100 57.5h-62.5c-9.777 0-18.114 6.271-21.21 15h83.71zm0-90h-52.5c-17.921 0-32.5 14.579-32.5 32.5v50.021c6.272-4.719 14.064-7.521 22.5-7.521h62.5zm-60.5 30h40v-15h-40zm-104 30h40v-15h-40zm104 0h40v-15h-40zm223.5 116.5c0 23.435-19.065 42.5-42.5 42.5-8.456 0-16.336-2.492-22.964-6.767-22.001 13.876-51.606 21.138-85.578 21.163-27.719 48.121-64.749 74.604-104.458 74.604s-76.739-26.483-104.458-74.604c-33.976-.023-63.576-7.285-85.578-21.163-6.628 4.275-14.508 6.767-22.964 6.767-23.435 0-42.5-19.065-42.5-42.5 0-16.111 9.011-30.156 22.257-37.362-1.599-27.184 7.184-56.992 24.345-86.638-27.808-48.06-32.225-93.365-12.372-127.75 14.475-25.072 40.595-42.007 75.795-49.244-.007-.335-.025-.669-.025-1.006 0-23.435 19.065-42.5 42.5-42.5 8.14 0 15.749 2.304 22.219 6.289 23.921-27.043 51.728-41.289 80.781-41.289 39.706 0 76.732 26.478 104.45 74.59 55.543-.04 96.966 18.773 116.82 53.16 19.853 34.385 15.436 79.69-12.372 127.75 17.161 29.645 25.944 59.453 24.345 86.638 13.246 7.206 22.257 21.251 22.257 37.362zm-142.992-289.779c12.371 25.205 21.668 54.02 27.558 85.005 24.123 20.842 44.355 43.359 59.748 66.254 21.532-40.52 24.596-77.793 8.466-105.73-16.126-27.93-49.934-43.91-95.772-45.529zm34.992 165.779c0 19.493-1.25 38.656-3.669 57.212 18.989-18.084 35.078-37.378 47.549-57.21-2.852-4.536-5.92-9.079-9.2-13.617-10.953-15.15-23.83-29.761-38.351-43.61 2.42 18.561 3.671 37.727 3.671 57.225zm-21.237-72.928c-18.099-15.185-38.232-29.245-60.013-41.821-21.705-12.531-43.992-22.944-66.274-31.044-22.195 8.085-44.482 18.49-66.226 31.044-21.768 12.568-41.891 26.619-59.981 41.794-4.132 23.361-6.269 47.88-6.269 72.955 0 25.117 2.134 49.63 6.232 72.901 18.104 15.185 38.266 29.29 60.018 41.848 21.777 12.573 44.033 22.983 66.25 31.068 22.217-8.085 44.473-18.495 66.25-31.068 21.752-12.559 41.913-26.664 60.018-41.849 4.098-23.271 6.232-47.784 6.232-72.9 0-25.127-2.136-49.649-6.237-72.928zm-30.572-92.813c-23.414.885-48.17 5.172-73.329 12.576 17.314 7.191 34.53 15.693 51.389 25.426 16.979 9.803 32.941 20.497 47.725 31.834-6.169-25.507-14.838-49.105-25.785-69.836zm-165.282-38.481c5.686 7.228 9.091 16.332 9.091 26.222 0 .267-.015.531-.02.797 19.878 3.208 40.181 8.421 60.499 15.495 29.76-10.379 59.344-16.729 87.34-18.615-24.323-38.895-55.064-60.177-87.319-60.177-24.632 0-48.585 12.516-69.591 36.278zm-33.409 68.722c-2.061 0-4.086-.155-6.07-.44-4.85 12.709-8.968 26.087-12.341 39.987 14.766-11.319 30.706-21.997 47.661-31.786 16.868-9.739 34.074-18.231 51.34-25.411-13.804-4.052-27.529-7.177-41.037-9.331-6.213 15.779-21.594 26.981-39.553 26.981zm-27.5-42.5c0 15.163 12.337 27.5 27.5 27.5s27.5-12.337 27.5-27.5-12.337-27.5-27.5-27.5-27.5 12.337-27.5 27.5zm-69.314 163.48c15.402-22.908 35.647-45.438 59.789-66.29 4.01-21.031 9.598-41.131 16.706-59.872-8.649-4.729-15.474-12.38-19.16-21.613-30.869 6.356-53.541 20.812-65.8 42.045-16.13 27.937-13.066 65.21 8.465 105.73zm52.314 14.52c0-19.474 1.254-38.639 3.686-57.238-14.527 13.853-27.409 28.469-38.365 43.624-3.28 4.538-6.348 9.081-9.2 13.617 12.472 19.832 28.56 39.126 47.549 57.21-2.42-18.557-3.67-37.719-3.67-57.213zm-38 124c0-15.163-12.337-27.5-27.5-27.5s-27.5 12.337-27.5 27.5 12.337 27.5 27.5 27.5 27.5-12.337 27.5-27.5zm72.979 41.751c-12.353-25.175-21.64-53.952-27.529-84.894-23.852-20.572-44.131-43.003-59.756-66.289-12.505 23.642-18.926 46.697-18.612 67.289 1.776-.227 3.581-.357 5.418-.357 23.435 0 42.5 19.065 42.5 42.5 0 9.365-3.051 18.028-8.203 25.06 17.489 10.052 40.166 15.725 66.182 16.691zm16.827-.017c5.742-.216 11.609-.636 17.595-1.277 18.201-1.952 36.874-5.753 55.7-11.277-17.262-7.181-34.454-15.686-51.35-25.441-16.882-9.747-32.852-20.411-47.713-31.785 6.166 25.486 14.829 49.064 25.768 69.78zm183.031 14.562c-3.578-.24-7.183-.532-10.837-.925-24.944-2.675-50.693-8.645-76.5-17.636-25.807 8.991-51.556 14.961-76.5 17.636-3.653.392-7.259.684-10.837.925 24.326 38.912 55.075 60.204 87.337 60.204 32.263 0 63.011-21.293 87.337-60.204zm34.126-84.342c-14.861 11.374-30.831 22.038-47.713 31.785-16.896 9.755-34.087 18.26-51.35 25.441 18.825 5.523 37.498 9.324 55.699 11.277 5.989.642 11.854 1.049 17.601 1.265 10.936-20.713 19.597-44.287 25.763-69.768zm49.037 28.046c0-23.435 19.065-42.5 42.5-42.5 1.837 0 3.642.13 5.418.357.314-20.593-6.107-43.648-18.612-67.289-15.626 23.286-35.904 45.718-59.756 66.289-5.888 30.938-15.173 59.712-27.524 84.885 26.013-.966 48.683-6.64 66.17-16.693-5.147-7.03-8.196-15.688-8.196-25.049zm70 0c0-15.163-12.337-27.5-27.5-27.5s-27.5 12.337-27.5 27.5 12.337 27.5 27.5 27.5 27.5-12.337 27.5-27.5z" fill="url(#SVGID_3_)"/></g></svg>