<svg id="Capa_1" enable-background="new 0 0 511 511" height="512" viewBox="0 0 511 511" width="512" xmlns="http://www.w3.org/2000/svg" xmlns:xlink="http://www.w3.org/1999/xlink"><linearGradient id="SVGID_1_" gradientUnits="userSpaceOnUse" x1="255.5" x2="255.5" y1="84.302" y2="473.302"><stop offset=".00000083866" stop-color="#96d1f3"/><stop offset="1" stop-color="#ccfff4"/></linearGradient><linearGradient id="SVGID_2_" gradientUnits="userSpaceOnUse" x1="255.5" x2="255.5" y1=".198" y2="510.802"><stop offset=".00000011981" stop-color="#174fa3"/><stop offset="1" stop-color="#b044af"/></linearGradient><g><g><g fill="#fff"><path d="m7.5 473.302h496v30h-496z"/><path d="m125.5 213.302h260v260h-260z"/><path d="m21.5 253.302h104v220h-104z"/><path d="m385.5 253.302h104v220h-104z" transform="matrix(-1 0 0 -1 875 726.604)"/><path d="m110.5 183.302h290v30h-290z"/><path d="m120.5 183.302 135-171 135 171z"/></g><path d="m195.5 473.302h-40v-50c0-11.046 8.954-20 20-20 11.046 0 20 8.954 20 20zm0-215h-40v80h40zm-142 105h40v-65h-40zm0 65h40v-65h-40zm364 0h40v-65h-40zm0-130v65h40v-65zm-102 175h40v-50c0-11.046-8.954-20-20-20-11.046 0-20 8.954-20 20zm0-135h40v-80h-40zm-90 0h60v-80h-60zm60 75c0-16.569-13.431-30-30-30-16.569 0-30 13.431-30 30v60h60zm-30-329c-19.33 0-35 15.67-35 35s15.67 35 35 35 35-15.67 35-35-15.67-35-35-35z" fill="url(#SVGID_1_)"/></g><path d="m497 465.802v-220h-104v-25h15v-45h-13.865l-138.635-175.604-138.635 175.604h-13.865v45h15v25h-104v220h-14v45h511v-45zm-15-205v205h-89v-205zm-226.5-236.397 119.523 151.396h-239.046zm-137.5 166.397h275v15h-275zm217.5 205c-15.163 0-27.5 12.337-27.5 27.5v42.5h-15v-52.5c0-20.678-16.822-37.5-37.5-37.5s-37.5 16.822-37.5 37.5v52.5h-15v-42.5c0-15.163-12.337-27.5-27.5-27.5s-27.5 12.337-27.5 27.5v42.5h-15v-245h245v245h-15v-42.5c0-15.163-12.337-27.5-27.5-27.5zm12.5 27.5v42.5h-25v-42.5c0-6.893 5.607-12.5 12.5-12.5s12.5 5.607 12.5 12.5zm-70-10v52.5h-45v-52.5c0-12.406 10.094-22.5 22.5-22.5s22.5 10.094 22.5 22.5zm-90 10v42.5h-25v-42.5c0-6.893 5.607-12.5 12.5-12.5s12.5 5.607 12.5 12.5zm-159-162.5h89v205h-89zm467 235h-481v-15h481zm-348-150h55v-95h-55zm15-80h25v65h-25zm-117 170h55v-145h-55zm15-130h25v50h-25zm0 65h25v50h-25zm404-80h-55v145h55zm-15 130h-25v-50h25zm0-65h-25v-50h25zm-87-105h-55v95h55zm-15 80h-25v-65h25zm-130 15h75v-95h-75zm15-80h45v65h-45zm22.5-189c-23.435 0-42.5 19.065-42.5 42.5s19.065 42.5 42.5 42.5 42.5-19.065 42.5-42.5-19.065-42.5-42.5-42.5zm0 70c-15.163 0-27.5-12.337-27.5-27.5s12.337-27.5 27.5-27.5 27.5 12.337 27.5 27.5-12.337 27.5-27.5 27.5z" fill="url(#SVGID_2_)"/></g></svg>