<svg id="Capa_1" enable-background="new 0 0 511 511" height="512" viewBox="0 0 511 511" width="512" xmlns="http://www.w3.org/2000/svg" xmlns:xlink="http://www.w3.org/1999/xlink"><linearGradient id="SVGID_1_" gradientUnits="userSpaceOnUse" x1="255.5" x2="255.5" y1="384.5" y2="434.5"><stop offset=".00000083866" stop-color="#96d1f3"/><stop offset="1" stop-color="#ccfff4"/></linearGradient><linearGradient id="SVGID_2_" gradientUnits="userSpaceOnUse" x1="255.5" x2="255.5" y1="164.5" y2="344.5"><stop offset=".00000036422" stop-color="#a8abff"/><stop offset="1" stop-color="#fac8ff"/></linearGradient><linearGradient id="SVGID_3_" gradientUnits="userSpaceOnUse" x1="255.5" x2="255.5" y1="0" y2="511"><stop offset=".00000011981" stop-color="#174fa3"/><stop offset="1" stop-color="#b044af"/></linearGradient><g><g><path d="m450.5 47.5v456h-350c-22.091 0-40-17.909-40-40v-416z" fill="#fff"/><path d="m450.5 87.5h-350c-22.091 0-40-17.909-40-40 0-22.091 17.909-40 40-40h350z" fill="#fff"/><path d="m135.5 384.5h240v50h-240z" fill="url(#SVGID_1_)"/><path d="m288.543 164.5c-8.743 0-17.062 2.633-24.603 7.38-5.185 3.264-11.695 3.264-16.88 0-7.542-4.747-15.861-7.38-24.603-7.38-34.218 0-61.957 28.205-61.957 77.91s36.944 102.09 61.957 102.09c7.593 0 14.867-.769 21.589-3.489 7.338-2.969 15.572-2.969 22.909 0 6.722 2.72 13.996 3.489 21.589 3.489 25.012 0 61.957-52.384 61.957-102.09s-27.74-77.91-61.958-77.91z" fill="url(#SVGID_2_)"/></g><path d="m100.5 0c-26.191 0-47.5 21.309-47.5 47.5v416c0 26.191 21.309 47.5 47.5 47.5h357.5v-416-7.5-87.5zm342.5 496h-342.5c-17.921 0-32.5-14.58-32.5-32.5v-381.406c8.504 7.994 19.936 12.906 32.5 12.906h342.5zm0-416h-342.5c-17.921 0-32.5-14.58-32.5-32.5s14.579-32.5 32.5-32.5h342.5zm-218.86 390.525 12.721 7.95 18.64-29.823 18.64 29.823 12.721-7.95-17.83-28.525h113.968v-65h-255v65h113.968zm38.86-78.525h105v35h-105zm-120 35v-35h105v35zm79.456-75c9.843 0 17.597-1.283 24.401-4.037 5.574-2.255 11.712-2.254 17.284 0 6.806 2.754 14.56 4.037 24.402 4.037 14.849 0 32.297-13.406 46.674-35.861 14.479-22.614 22.783-49.487 22.783-73.728 0-25.43-6.888-47.02-19.919-62.437-12.522-14.815-30.115-22.974-49.537-22.974-8.473 0-16.685 2.076-24.475 6.164 1.976-19.772 16.05-36.335 35.339-41.411l-3.816-14.506c-25.816 6.793-44.536 29.24-46.583 55.856l-.089 1.152c-8.376-4.812-17.267-7.255-26.464-7.255-19.422 0-37.015 8.159-49.537 22.974-13.031 15.417-19.919 37.006-19.919 62.437 0 24.241 8.304 51.114 22.782 73.729 14.377 22.454 31.825 35.86 46.674 35.86zm0-180c7.11 0 14.044 2.095 20.608 6.227 7.668 4.827 17.199 4.829 24.871 0 6.564-4.132 13.498-6.227 20.608-6.227 32.573 0 54.457 28.296 54.457 70.411 0 21.451-7.441 45.376-20.415 65.64-12.804 19.998-26.322 28.949-34.041 28.949-7.851 0-13.816-.935-18.776-2.942-4.6-1.861-9.434-2.792-14.268-2.792s-9.668.931-14.269 2.792c-4.959 2.007-10.925 2.941-18.775 2.941-7.719 0-21.237-8.951-34.041-28.949-12.974-20.263-20.415-44.188-20.415-65.639 0-42.115 21.884-70.411 54.456-70.411z" fill="url(#SVGID_3_)"/></g></svg>