<svg id="Capa_1" enable-background="new 0 0 511.446 511.446" height="512" viewBox="0 0 511.446 511.446" width="512" xmlns="http://www.w3.org/2000/svg" xmlns:xlink="http://www.w3.org/1999/xlink"><linearGradient id="SVGID_1_" gradientUnits="userSpaceOnUse" x1="388.723" x2="388.723" y1="7.946" y2="126.946"><stop offset=".00000083866" stop-color="#96d1f3"/><stop offset="1" stop-color="#ccfff4"/></linearGradient><linearGradient id="SVGID_2_" gradientUnits="userSpaceOnUse" x1="122.723" x2="122.723" y1="7.946" y2="126.946"><stop offset=".00000036422" stop-color="#a8abff"/><stop offset="1" stop-color="#fac8ff"/></linearGradient><linearGradient id="SVGID_3_" gradientUnits="userSpaceOnUse" x1="255.723" x2="255.723" y1="0" y2="511.446"><stop offset=".00000011981" stop-color="#174fa3"/><stop offset="1" stop-color="#b044af"/></linearGradient><g><g><path d="m370.723 323.946v-60h-230v60h20v30h-20v60h20v30h-20v60h230v-60h-20v-30h20v-60h-20v-30z" fill="#fff"/><path d="m488.723 42.946-100-35-100 35 40 14v57.714s19 12.286 60 12.286 60-12.286 60-12.286v-57.714z" fill="url(#SVGID_1_)"/><path d="m222.723 42.946-100-35-100 35 40 14v58s19 12 60 12 60-12 60-12v-58z" fill="url(#SVGID_2_)"/></g><path d="m133.223 331.446h20v15h-20v75h20v15h-20v75h245v-75h-20v-15h20v-75h-20v-15h20v-75h-245zm230 120v45h-215v-45zm-195-15v-15h175v15zm195-75v45h-215v-45zm-195-15v-15h175v15zm-20-75h215v45h-215zm168.5 210h-15v-15h15zm30 0h-15v-15h15zm0-90h-15v-15h15zm-30 0h-15v-15h15zm15-105h15v15h-15zm-30 0h15v15h-15zm87-286.446-122.703 42.946 55.203 19.321v59.207l4.007 2.109c.791.417 18.729 9.629 55.993 10.75v29.113h-251v-29.113c37.264-1.122 55.202-10.334 55.993-10.75l4.007-2.109v-59.207l19-6.65v47.329h15v-52.579l21.203-7.421-122.703-42.946-122.703 42.946 55.203 19.321v59.207l4.007 2.109c.791.417 18.729 9.629 55.993 10.75v44.113h133v35.393l-17.196-17.197-10.607 10.606 35.304 35.303 35.304-35.303-10.607-10.606-17.196 17.197v-35.393h133v-44.113c37.264-1.122 55.202-10.334 55.993-10.75l4.007-2.109v-59.207l19-6.65v47.329h15v-52.579l21.203-7.421zm-343.297 42.946 77.297-27.054 77.297 27.054-77.297 27.054zm24.797 69.001v-44.429l52.5 18.375 52.5-18.375v44.427c-7.289 2.639-24.521 7.502-52.5 7.502-28-.001-45.236-4.871-52.5-7.5zm371-.003c-7.289 2.639-24.521 7.502-52.5 7.502-28 0-45.236-4.87-52.5-7.5v-44.428l52.5 18.375 52.5-18.375zm-52.5-41.944-77.297-27.054 77.297-27.054 77.297 27.054z" fill="url(#SVGID_3_)"/></g></svg>