<svg id="Capa_1" enable-background="new 0 0 511.5 511.5" height="512" viewBox="0 0 511.5 511.5" width="512" xmlns="http://www.w3.org/2000/svg" xmlns:xlink="http://www.w3.org/1999/xlink"><linearGradient id="SVGID_1_" gradientUnits="userSpaceOnUse" x1="255.75" x2="255.75" y1="414" y2="474"><stop offset=".00000083866" stop-color="#96d1f3"/><stop offset="1" stop-color="#ccfff4"/></linearGradient><linearGradient id="SVGID_2_" gradientUnits="userSpaceOnUse" x1="255.75" x2="255.75" y1="56" y2="259"><stop offset=".00000036422" stop-color="#a8abff"/><stop offset="1" stop-color="#fac8ff"/></linearGradient><linearGradient id="SVGID_3_" gradientUnits="userSpaceOnUse" x1="255.75" x2="255.75" y1="0" y2="511.5"><stop offset=".00000011981" stop-color="#174fa3"/><stop offset="1" stop-color="#b044af"/></linearGradient><g><g><path d="m7.75 474h496v30h-496z" fill="#fff"/><path d="m490.75 474h-470v-60h203c17.673 0 32 14.327 32 32 0-17.673 14.327-32 32-32h203z" fill="url(#SVGID_1_)"/><path d="m295.75 350c0 22.091-17.909 40-40 40s-40-17.909-40-40z" fill="#fff"/><path d="m195.75 330c0 11.046 8.954 20 20 20h80c11.046 0 20-8.954 20-20v-71h-120z" fill="#fff"/><path d="m255.75 56c-60.751 0-110 49.249-110 110 0 38.614 19.9 72.575 50 92.202v.798h120v-.798c30.1-19.627 50-53.589 50-92.202 0-60.751-49.249-110-110-110z" fill="url(#SVGID_2_)"/></g><path d="m498.25 466.5v-60h-210.5c-13.147 0-24.816 6.458-32 16.367-7.184-9.909-18.853-16.367-32-16.367h-210.5v60h-13v45h511v-45zm-210.5-45h195.5v45h-220v-20.5c0-13.51 10.99-24.5 24.5-24.5zm-259.5 0h195.5c13.51 0 24.5 10.99 24.5 24.5v20.5h-220zm468 75h-481v-15h481zm-233-466.5h-15v-30h15zm-54.533 326.585c3.217 23.085 23.077 40.915 47.033 40.915s43.816-17.831 47.033-40.915c11.767-3.116 20.467-13.852 20.467-26.585v-67.819c31.385-22.038 50-57.689 50-96.181 0-64.79-52.71-117.5-117.5-117.5s-117.5 52.71-117.5 117.5c0 38.491 18.615 74.143 50 96.181v67.819c0 12.732 8.7 23.469 20.467 26.585zm-5.467-90.085h105v15h-105zm20-85h-12.5c-6.893 0-12.5-5.607-12.5-12.5s5.607-12.5 12.5-12.5 12.5 5.607 12.5 12.5zm50 70h-35v-55h35zm-70 45h105v15h-105zm52.5 86c-15.339 0-28.221-10.685-31.617-25h63.233c-3.395 14.315-16.277 25-31.616 25zm40-40h-80c-6.893 0-12.5-5.607-12.5-12.5v-3.5h105v3.5c0 6.893-5.607 12.5-12.5 12.5zm-142.5-176.5c0-56.519 45.981-102.5 102.5-102.5s102.5 45.981 102.5 102.5c0 34.524-17.175 66.425-45.974 85.5h-24.026v-55h12.5c15.163 0 27.5-12.337 27.5-27.5s-12.337-27.5-27.5-27.5-27.5 12.337-27.5 27.5v12.5h-35v-12.5c0-15.163-12.337-27.5-27.5-27.5s-27.5 12.337-27.5 27.5 12.337 27.5 27.5 27.5h12.5v55h-24.026c-28.799-19.075-45.974-50.976-45.974-85.5zm135 15.5v-12.5c0-6.893 5.607-12.5 12.5-12.5s12.5 5.607 12.5 12.5-5.607 12.5-12.5 12.5zm-106.995-129.529-15-25.98 12.99-7.5 15 25.98zm-47.034 52.524-25.98-15 7.5-12.99 25.98 15zm196.024-52.524-12.99-7.5 15-25.98 12.99 7.5zm47.034 52.524-7.5-12.99 25.98-15 7.5 12.99z" fill="url(#SVGID_3_)"/></g></svg>