<svg id="Capa_1" enable-background="new 0 0 510.554 510.554" height="512" viewBox="0 0 510.554 510.554" width="512" xmlns="http://www.w3.org/2000/svg" xmlns:xlink="http://www.w3.org/1999/xlink"><linearGradient id="SVGID_1_" gradientUnits="userSpaceOnUse" x1="255.277" x2="255.277" y1="126.054" y2="406.054"><stop offset=".00000083866" stop-color="#96d1f3"/><stop offset="1" stop-color="#ccfff4"/></linearGradient><linearGradient id="SVGID_2_" gradientUnits="userSpaceOnUse" x1="255.277" x2="255.277" y1="433.054" y2="503.054"><stop offset=".00000036422" stop-color="#a8abff"/><stop offset="1" stop-color="#fac8ff"/></linearGradient><linearGradient id="SVGID_3_" gradientUnits="userSpaceOnUse" x1="255.277" x2="255.277" y1="0" y2="510.554"><stop offset=".00000011981" stop-color="#174fa3"/><stop offset="1" stop-color="#b044af"/></linearGradient><g><g><circle cx="255.277" cy="266.054" fill="url(#SVGID_1_)" r="140"/><path d="m115.277 443.054h280v50h-280z" fill="#fff"/><circle cx="255.277" cy="468.054" fill="url(#SVGID_2_)" r="35"/><path d="m370.277 53.054-115-45-115 45 45 17.609v73.391s19.091 20 70 20 70-20 70-20v-73.392z" fill="#fff"/></g><path d="m107.777 266.054c0 81.332 66.168 147.5 147.5 147.5s147.5-66.168 147.5-147.5c0-51.078-26.697-98.721-70-125.52v-64.753l26-10.174v67.446h15v-73.315l17.082-6.684-135.582-53.054-135.582 53.054 58.082 22.728v64.753c-43.303 26.798-70 74.441-70 125.519zm28.203-57.5h47.786c-3.419 15.695-5.437 32.59-5.888 50h-54.871c1.002-17.554 5.499-34.517 12.973-50zm-12.986 65h54.878c.446 17.743 2.468 34.57 5.81 50h-47.766c-7.388-15.274-11.923-32.173-12.922-50zm21.434 65h43.046c6.417 22.071 15.72 40.5 27.01 53.566-28.996-9.405-53.64-28.552-70.056-53.566zm103.349 58.996c-18.327-4.891-34.486-27.393-44.467-58.996h44.467zm0-73.996h-48.574c-3.598-15.349-5.825-32.272-6.318-50h54.892zm0-65h-54.898c.475-17.559 2.617-34.492 6.232-50h48.666zm0-65h-44.562c3.116-9.847 6.881-18.916 11.246-26.94 9.056 2.427 20.1 4.264 33.316 4.781zm-55-52.965v-58.938l62.5 24.457 62.5-24.457v58.93c-5.971 4.484-24.937 15.973-62.5 15.973-37.626 0-56.592-11.526-62.5-15.965zm70 117.965v-50h48.666c3.615 15.508 5.757 32.441 6.232 50zm54.892 15c-.493 17.728-2.72 34.651-6.318 50h-48.574v-50zm-54.892-80v-22.159c13.217-.516 24.261-2.354 33.317-4.781 4.365 8.024 8.13 17.093 11.245 26.94zm0 203.996v-58.996h44.467c-9.981 31.603-26.14 54.105-44.467 58.996zm33.292-5.43c11.29-13.066 20.593-31.496 27.01-53.566h43.046c-16.416 25.014-41.059 44.161-70.056 53.566zm78.569-68.566h-47.766c3.343-15.43 5.364-32.257 5.81-50h54.878c-1 17.827-5.535 34.726-12.922 50zm12.909-65h-54.871c-.452-17.409-2.47-34.305-5.889-50h47.787c7.474 15.483 11.971 32.446 12.973 50zm-21.449-65h-43.107c-3.376-11.595-7.577-22.314-12.52-31.833 6.722-2.841 11.607-5.792 14.902-8.119 16.529 10.33 30.333 24.053 40.725 39.952zm-205.24-140.5 94.418-36.946 94.418 36.946-94.417 36.946zm24.324 100.549c3.294 2.327 8.179 5.278 14.9 8.118-4.944 9.519-9.144 20.237-12.52 31.833h-43.106c10.392-15.899 24.196-29.621 40.726-39.951zm70.095 271.951c-10.408 0-19.948 3.767-27.345 10h-120.155v65h120.155c7.397 6.233 16.937 10 27.345 10s19.948-3.767 27.345-10h120.155v-65h-120.155c-7.397-6.234-16.937-10-27.345-10zm-38.714 60h-93.786v-35h93.786c-2.424 5.341-3.786 11.263-3.786 17.5s1.362 12.159 3.786 17.5zm77.428-35h93.786v35h-93.786c2.424-5.341 3.786-11.263 3.786-17.5s-1.362-12.159-3.786-17.5zm-38.714 45c-15.164 0-27.5-12.337-27.5-27.5s12.336-27.5 27.5-27.5c15.163 0 27.5 12.337 27.5 27.5s-12.337 27.5-27.5 27.5z" fill="url(#SVGID_3_)"/></g></svg>