<svg id="Capa_1" enable-background="new 0 0 511 511" height="512" viewBox="0 0 511 511" width="512" xmlns="http://www.w3.org/2000/svg" xmlns:xlink="http://www.w3.org/1999/xlink"><linearGradient id="lg1"><stop offset=".00000083866" stop-color="#96d1f3"/><stop offset="1" stop-color="#ccfff4"/></linearGradient><linearGradient id="SVGID_1_" gradientUnits="userSpaceOnUse" x1="255.5" x2="255.5" xlink:href="#lg1" y1="37.5" y2="237.5"/><linearGradient id="lg2"><stop offset=".00000036422" stop-color="#a8abff"/><stop offset="1" stop-color="#fac8ff"/></linearGradient><linearGradient id="SVGID_2_" gradientUnits="userSpaceOnUse" x1="255.5" x2="255.5" xlink:href="#lg2" y1="95.5" y2="185.5"/><linearGradient id="SVGID_3_" gradientUnits="userSpaceOnUse" x1="133.5" x2="133.5" xlink:href="#lg2" y1="281.5" y2="461.5"/><linearGradient id="SVGID_4_" gradientUnits="userSpaceOnUse" x1="100.5" x2="100.5" xlink:href="#lg1" y1="7.5" y2="77.5"/><linearGradient id="SVGID_5_" gradientUnits="userSpaceOnUse" x1="255.5" x2="255.5" y1="0" y2="511"><stop offset=".00000011981" stop-color="#174fa3"/><stop offset="1" stop-color="#b044af"/></linearGradient><g><g><path d="m135.5 7.5h310v496h-380v-426z" fill="#fff"/><circle cx="255.5" cy="137.5" fill="url(#SVGID_1_)" r="100"/><path d="m315.5 120.5-60-25-60 25 22 9.167v44.833s10.364 11 38 11 38-11 38-11v-44.833z" fill="url(#SVGID_2_)"/><path d="m153.5 321.5h-40v-40h40zm0 30h-40v40h40zm0 70h-40v40h40z" fill="url(#SVGID_3_)"/><path d="m135.5 7.5v70h-70z" fill="url(#SVGID_4_)"/></g><path d="m132.394 0-74.394 74.394v436.606h395v-511zm-4.394 25.606v44.394h-44.394zm310 470.394h-365v-411h70v-70h295zm-182.5-251c59.275 0 107.5-48.224 107.5-107.5s-48.225-107.5-107.5-107.5-107.5 48.224-107.5 107.5 48.225 107.5 107.5 107.5zm0-200c51.005 0 92.5 41.495 92.5 92.5s-41.495 92.5-92.5 92.5-92.5-41.495-92.5-92.5 41.495-92.5 92.5-92.5zm-45.5 132.477 2.041 2.167c1.288 1.366 13.45 13.356 43.459 13.356s42.171-11.99 43.459-13.357l2.041-2.167v-42.81l34-14.167-79.5-33.125-79.5 33.126 34 14.167zm76-6.623c-3.898 2.525-13.374 7.146-30.5 7.146s-26.602-4.621-30.5-7.146v-29.938l30.5 12.708 30.5-12.708zm-30.5-67.229 40.5 16.875-40.5 16.875-40.5-16.875zm-149.5 225.375h55v-55h-55zm15-40h25v25h-25zm62.5-15h220v15h-220zm150 30v15h-150v-15zm-227.5 95h55v-55h-55zm15-40h25v25h-25zm62.5-15h220v15h-220zm150 30v15h-150v-15zm-227.5 95h55v-55h-55zm15-40h25v25h-25zm62.5-15h220v15h-220zm0 30h150v15h-150z" fill="url(#SVGID_5_)"/></g></svg>