<svg id="Capa_1" enable-background="new 0 0 511.5 511.5" height="512" viewBox="0 0 511.5 511.5" width="512" xmlns="http://www.w3.org/2000/svg" xmlns:xlink="http://www.w3.org/1999/xlink"><linearGradient id="lg1"><stop offset=".00000083866" stop-color="#96d1f3"/><stop offset="1" stop-color="#ccfff4"/></linearGradient><linearGradient id="SVGID_1_" gradientUnits="userSpaceOnUse" x1="448.75" x2="448.75" xlink:href="#lg1" y1="323.5" y2="466.5"/><linearGradient id="SVGID_2_" gradientUnits="userSpaceOnUse" x1="328.75" x2="328.75" xlink:href="#lg1" y1="323.5" y2="466.5"/><linearGradient id="SVGID_3_" gradientUnits="userSpaceOnUse" x1="122.75" x2="122.75" xlink:href="#lg1" y1="317.5" y2="459.5"/><linearGradient id="SVGID_4_" gradientUnits="userSpaceOnUse" x1="255.75" x2="255.75" y1="0" y2="511.5"><stop offset=".00000011981" stop-color="#174fa3"/><stop offset="1" stop-color="#b044af"/></linearGradient><g><g><g fill="#fff"><path d="m473.75 254.5h-50c-8.284 0-15-6.716-15-15 0-8.284 6.716-15 15-15h50c8.284 0 15 6.716 15 15 0 8.284-6.716 15-15 15z"/><path d="m353.75 254.5h-50c-8.284 0-15-6.716-15-15 0-8.284 6.716-15 15-15h50c8.284 0 15 6.716 15 15 0 8.284-6.716 15-15 15z"/><path d="m157.75 129.5h-70c-8.284 0-15-6.716-15-15 0-8.284 6.716-15 15-15h70c8.284 0 15 6.716 15 15 0 8.284-6.716 15-15 15z"/><path d="m273.75 373.5h230v130h-230z"/><path d="m423.75 254.5h50v69h-50z"/></g><path d="m423.75 441.5c0 13.807 11.193 25 25 25s25-11.193 25-25v-118h-50z" fill="url(#SVGID_1_)"/><path d="m303.75 441.5c0 13.807 11.193 25 25 25s25-11.193 25-25v-118h-50z" fill="url(#SVGID_2_)"/><path d="m303.75 254.5h50v69h-50z" fill="#fff"/><path d="m122.747 317.5c28.251 0 28.251 20 56.502 20 27.839 0 28.265-19.407 55.305-19.973-9.408-39.128-38.809-70.469-76.803-82.596v-105.431h-70v105.431c-37.995 12.127-67.406 43.466-76.814 82.596 27.048.561 27.47 19.974 55.311 19.974 28.249-.001 28.249-20.001 56.499-20.001z" fill="#fff"/><path d="m234.553 317.527c-27.04.566-27.465 19.973-55.305 19.973-28.251 0-28.251-20-56.502-20-28.25 0-28.25 20-56.499 20-27.841 0-28.263-19.412-55.311-19.974-2.196 9.133-3.306 18.689-3.176 28.526.832 63.046 53.12 114.074 116.168 113.441 62.97-.632 113.821-51.875 113.821-114.994.001-9.291-1.115-18.319-3.196-26.972z" fill="url(#SVGID_3_)"/></g><path d="m481.25 366v-105.29c8.729-3.096 15-11.433 15-21.21 0-12.406-10.094-22.5-22.5-22.5h-2.5v-72.5h-15v72.5h-15v-40h-105v-149.5c0-7.343-2.861-14.247-8.057-19.443-5.196-5.196-12.1-8.057-19.443-8.057-15.163 0-27.5 12.337-27.5 27.5v21c0 3.336-1.301 6.474-3.664 8.836-2.362 2.363-5.5 3.664-8.836 3.664-6.893 0-12.5-5.607-12.5-12.5v-21c0-7.343-2.861-14.247-8.057-19.443-5.196-5.196-12.1-8.057-19.443-8.057-15.163 0-27.5 12.337-27.5 27.5v20c0 3.336-1.301 6.474-3.664 8.836-2.362 2.363-5.5 3.664-8.836 3.664-6.893 0-12.5-5.607-12.5-12.5v-17c0-8.143-3.174-15.8-8.937-21.563-5.763-5.763-13.42-8.937-21.563-8.937-16.817 0-30.5 13.683-30.5 30.5v61.5h-27.5c-12.406 0-22.5 10.094-22.5 22.5 0 9.777 6.271 18.114 15 21.21v93.877c-22.351 8.294-42.217 23.265-56.376 42.588-15.802 21.564-23.968 47.145-23.613 73.976.391 29.643 11.382 56.739 29.306 77.731l-29.317 76.225v11.393h15v-8.607l25.844-67.194c21.722 19.462 50.382 31.301 81.665 31.301.414 0 .83-.002 1.245-.006 29.992-.301 58.276-11.335 80.434-31.212l25.812 67.111v8.607h15v-11.393l-29.278-76.124c18.943-22.153 29.278-50.045 29.278-79.483 0-26.5-8.326-51.724-24.079-72.942-14.335-19.309-33.586-33.737-55.921-41.978v-93.87c8.729-3.096 15-11.433 15-21.21 0-12.406-10.094-22.5-22.5-22.5h-27.5v-61.5c0-8.547 6.953-15.5 15.5-15.5 4.136 0 8.026 1.613 10.956 4.544 2.931 2.93 4.544 6.82 4.544 10.956v17c0 15.163 12.337 27.5 27.5 27.5 7.343 0 14.247-2.861 19.443-8.057 5.195-5.196 8.057-12.101 8.057-19.443v-20c0-6.893 5.607-12.5 12.5-12.5 3.336 0 6.474 1.301 8.836 3.664 2.363 2.362 3.664 5.5 3.664 8.836v21c0 15.163 12.337 27.5 27.5 27.5 7.343 0 14.247-2.861 19.443-8.057 5.195-5.196 8.057-12.101 8.057-19.443v-21c0-6.893 5.607-12.5 12.5-12.5 3.336 0 6.474 1.301 8.836 3.664 2.363 2.362 3.664 5.5 3.664 8.836v189.5h-17.5c-12.406 0-22.5 10.094-22.5 22.5 0 9.777 6.271 18.114 15 21.21v105.29h-30v145h245v-145zm-391.22-123.925 5.22-1.666v-103.409h20v173.472c-11.771 1.506-18.789 6.448-25.087 10.907-6.802 4.816-12.177 8.621-23.916 8.621-11.737 0-17.111-3.805-23.914-8.621-5.692-4.03-11.964-8.462-21.809-10.39 10.447-32.215 35.726-58.132 69.506-68.914zm33.824 209.919c-.368.004-.727.006-1.093.006-23.788-.002-45.849-7.805-63.718-21h127.327c-17.563 12.977-39.171 20.76-62.516 20.994zm106.396-107.494c0 27.366-10.382 52.454-27.41 71.5h-160.255c-16.678-18.664-26.971-43.162-27.326-70.046-.092-6.942.487-13.753 1.65-20.378 7.11 1.232 11.515 4.334 16.757 8.045 7.532 5.334 16.071 11.379 32.581 11.379 16.512 0 25.05-6.045 32.584-11.379 6.803-4.816 12.177-8.621 23.915-8.621 11.739 0 17.113 3.805 23.917 8.621 7.534 5.334 16.073 11.379 32.585 11.379s25.051-6.045 32.585-11.379c5.239-3.709 9.642-6.81 16.745-8.043 1.089 6.164 1.672 12.485 1.672 18.922zm-5.298-33.507c-9.832 1.93-16.098 6.359-21.786 10.386-6.804 4.816-12.178 8.621-23.917 8.621s-17.113-3.805-23.917-8.621c-6.297-4.458-13.314-9.398-25.081-10.906v-173.473h20v103.409l5.22 1.666c33.653 10.742 58.993 36.706 69.481 68.918zm-67.202-203.993c4.136 0 7.5 3.364 7.5 7.5s-3.364 7.5-7.5 7.5h-70c-4.136 0-7.5-3.364-7.5-7.5s3.364-7.5 7.5-7.5zm316 125c4.136 0 7.5 3.364 7.5 7.5s-3.364 7.5-7.5 7.5h-50c-4.136 0-7.5-3.364-7.5-7.5s3.364-7.5 7.5-7.5zm-42.5 84v-54h35v54zm35 15v110.5c0 9.649-7.851 17.5-17.5 17.5s-17.5-7.851-17.5-17.5v-110.5zm-130-139h90v25h-2.5c-12.406 0-22.5 10.094-22.5 22.5 0 9.777 6.271 18.114 15 21.21v105.29h-55v-105.29c8.729-3.096 15-11.433 15-21.21 0-12.406-10.094-22.5-22.5-22.5h-17.5zm-32.5 40h50c4.136 0 7.5 3.364 7.5 7.5s-3.364 7.5-7.5 7.5h-50c-4.136 0-7.5-3.364-7.5-7.5s3.364-7.5 7.5-7.5zm7.5 84v-54h35v54zm35 15v110.5c0 9.649-7.851 17.5-17.5 17.5s-17.5-7.851-17.5-17.5v-110.5zm150 165h-215v-115h15v60.5c0 17.921 14.579 32.5 32.5 32.5s32.5-14.579 32.5-32.5v-60.5h55v60.5c0 17.921 14.579 32.5 32.5 32.5s32.5-14.579 32.5-32.5v-60.5h15zm-25-366.5h-15v-15h15zm0-30h-15v-15h15zm-285 265h15v15h-15zm-51 20h15v15h-15zm-37-25h15v15h-15zm-51 20h15v15h-15z" fill="url(#SVGID_4_)"/></g></svg>