<svg id="Capa_1" enable-background="new 0 0 511.901 511.901" height="512" viewBox="0 0 511.901 511.901" width="512" xmlns="http://www.w3.org/2000/svg" xmlns:xlink="http://www.w3.org/1999/xlink"><linearGradient id="SVGID_1_" gradientUnits="userSpaceOnUse" x1="255.951" x2="255.951" y1="7.901" y2="246.901"><stop offset=".00000036422" stop-color="#a8abff"/><stop offset="1" stop-color="#fac8ff"/></linearGradient><linearGradient id="SVGID_2_" gradientUnits="userSpaceOnUse" x1="255.951" x2="255.951" y1="0" y2="511.901"><stop offset=".00000011981" stop-color="#174fa3"/><stop offset="1" stop-color="#b044af"/></linearGradient><g><g><path d="m455.951 224.901h-40v-30c0-11.046 8.954-20 20-20 11.046 0 20 8.954 20 20z" fill="#fff"/><path d="m445.951 70.901-190-63-190 63 70 23.211v130.008s32.727 22.781 120 22.781 120-22.781 120-22.781v-130.008z" fill="url(#SVGID_1_)"/><path d="m234.576 356.901v-126.75c0-12.288 9.962-22.25 22.25-22.25s22.255 9.962 22.255 22.25v59.75h35.62v15.917h35.63v14.083h35.62v95.916l-23.75 57.001v39.083h-130.625v-39.083l-35.625-57.001v-58.916z" fill="#fff"/></g><g><path d="m443.451 168.449v-88.817l26.33-8.73-213.83-70.902-213.83 70.901 86.33 28.625v131.581l3.589 2.193c1.143.699 27.921 16.613 95.036 20.328v95.772h-38.625v68.567l35.625 57v36.933h15v-41.234l-35.625-57v-49.265h38.625v-134.25c0-8.133 6.617-14.75 14.75-14.75 8.136 0 14.755 6.617 14.755 14.75v123.75h15v-56.5h20.62v56.5h15v-40.583h20.63v40.583h15v-26.5h20.62v86.916l-23.75 57v40.583h15v-37.583l23.75-57v-104.916h-35.62v-14.083h-35.63v-15.917h-35.62v-28.868c65.833-3.892 92.157-19.545 93.282-20.232l3.588-2.194v-131.58l45-14.921v83.844c-11.528 3.274-20 13.889-20 26.452v37.5h55v-37.5c0-12.564-8.472-23.179-20-26.453zm-75 53.822c-8.789 3.954-34.116 13.302-81.87 16.231v-8.35c0-16.404-13.348-29.75-29.755-29.75-16.404 0-29.75 13.346-29.75 29.75v8.449c-48.925-2.808-74.764-12.343-83.625-16.328v-117.773l112.5 37.303 112.5-37.303zm-112.5-96.271-166.17-55.099 166.17-55.099 166.17 55.099zm192.5 91.401h-25v-22.5c0-6.893 5.607-12.5 12.5-12.5s12.5 5.607 12.5 12.5z" fill="url(#SVGID_2_)"/></g></g></svg>