<svg id="Capa_1" enable-background="new 0 0 511 511" height="512" viewBox="0 0 511 511" width="512" xmlns="http://www.w3.org/2000/svg" xmlns:xlink="http://www.w3.org/1999/xlink"><linearGradient id="SVGID_1_" gradientUnits="userSpaceOnUse" x1="255.5" x2="255.5" y1="7.5" y2="261.126"><stop offset=".00000083866" stop-color="#96d1f3"/><stop offset="1" stop-color="#ccfff4"/></linearGradient><linearGradient id="SVGID_2_" gradientUnits="userSpaceOnUse" x1="425.5" x2="425.5" y1="432.5" y2="482.5"><stop offset=".00000036422" stop-color="#a8abff"/><stop offset="1" stop-color="#fac8ff"/></linearGradient><linearGradient id="SVGID_3_" gradientUnits="userSpaceOnUse" x1="255.5" x2="255.5" y1="0" y2="511"><stop offset=".00000011981" stop-color="#174fa3"/><stop offset="1" stop-color="#b044af"/></linearGradient><g><g><path d="m495.299 127.701c-7.422 7.422-19.357 7.809-27.195.828-56.567-50.38-131.074-81.029-212.604-81.029s-156.037 30.649-212.604 81.029c-7.838 6.981-19.773 6.593-27.195-.828l-.187-.187c-8.093-8.093-7.668-21.312.881-28.921 63.628-56.64 147.419-91.093 239.105-91.093s175.477 34.453 239.106 91.092c8.549 7.61 8.973 20.828.881 28.921zm-63.566 63.566c8.15-8.15 7.725-21.563-1.036-29.052-47.189-40.332-108.399-64.715-175.197-64.715s-128.008 24.383-175.197 64.715c-8.761 7.488-9.186 20.902-1.036 29.052l.224.224c7.346 7.346 19.065 7.704 26.97.963 40.171-34.254 92.233-54.954 149.039-54.954s108.868 20.7 149.039 54.954c7.905 6.74 19.625 6.382 26.97-.963zm-63.927 63.927c8.443-8.443 7.58-22.376-1.837-29.718-30.516-23.789-68.867-37.976-110.469-37.976s-79.953 14.187-110.469 37.976c-9.417 7.341-10.281 21.274-1.837 29.718l.143.143c7.123 7.123 18.397 7.716 26.352 1.537 23.701-18.411 53.476-29.374 85.812-29.374s62.111 10.962 85.812 29.374c7.955 6.18 19.229 5.586 26.352-1.537z" fill="url(#SVGID_1_)"/><path d="m445.5 482.5h-40v-30c0-11.046 8.954-20 20-20 11.046 0 20 8.954 20 20z" fill="url(#SVGID_2_)"/><path d="m435.5 341.5-180-60-180 60 70 23.333v118.667s30 20 110 20 110-20 110-20v-118.667z" fill="#fff"/></g><path d="m508.785 112.693c-.218-7.516-3.568-14.697-9.192-19.703-67.366-59.966-154.053-92.99-244.093-92.99s-176.727 33.024-244.093 92.99c-5.624 5.006-8.974 12.187-9.192 19.703-.221 7.601 2.619 14.748 7.995 20.124l.188.188c5.328 5.328 12.34 8.016 19.364 8.016 6.471 0 12.951-2.284 18.123-6.89 57.293-51.029 131.026-79.131 207.615-79.131s150.322 28.102 207.615 79.13c10.785 9.606 27.251 9.112 37.487-1.125l.188-.188c5.376-5.377 8.215-12.523 7.995-20.124zm-18.602 9.517-.188.188c-4.623 4.623-12.048 4.856-16.904.531-60.043-53.478-137.319-82.929-217.591-82.929s-157.548 29.451-217.592 82.929c-4.856 4.325-12.282 4.092-16.904-.531l-.188-.188c-2.426-2.426-3.708-5.652-3.608-9.083.1-3.456 1.582-6.628 4.172-8.934 64.617-57.517 147.762-89.193 234.12-89.193s169.503 31.676 234.119 89.194c2.59 2.306 4.072 5.478 4.172 8.934.1 3.431-1.182 6.656-3.608 9.082zm-72.655 82.498c7.03 0 14.03-2.659 19.285-7.914l.224-.224c5.389-5.389 8.309-12.848 8.011-20.465-.295-7.555-3.75-14.696-9.478-19.591-50.184-42.892-114.134-66.514-180.07-66.514s-129.886 23.622-180.07 66.514c-5.728 4.895-9.183 12.036-9.478 19.591-.298 7.617 2.622 15.076 8.011 20.465l.224.224c9.998 10 26.313 10.598 37.14 1.367 40.204-34.281 91.406-53.161 144.173-53.161s103.969 18.88 144.172 53.161c5.138 4.381 11.509 6.547 17.856 6.547zm-315.933-17.961c-4.999 4.262-12.221 4.021-16.801-.56l-.224-.224c-2.478-2.478-3.766-5.771-3.629-9.272.135-3.44 1.639-6.556 4.235-8.775 47.47-40.572 107.958-62.916 170.324-62.916s122.854 22.344 170.325 62.916c2.596 2.219 4.1 5.335 4.235 8.775.137 3.501-1.152 6.794-3.629 9.272l-.224.224c-4.581 4.581-11.804 4.82-16.801.56-42.917-36.594-97.575-56.747-153.906-56.747s-110.989 20.153-153.905 56.747zm268.986 32.814c-33.2-25.881-72.994-39.561-115.081-39.561s-81.881 13.68-115.081 39.561c-6.184 4.822-10.008 12.076-10.491 19.903-.482 7.824 2.419 15.491 7.962 21.033l.143.143c9.729 9.729 25.315 10.656 36.256 2.156 23.41-18.184 51.492-27.796 81.211-27.796s57.801 9.612 81.21 27.796c5.009 3.891 10.99 5.806 16.938 5.806 7.044 0 14.043-2.688 19.317-7.962l.143-.143c5.542-5.542 8.444-13.209 7.962-21.033-.482-7.827-4.305-15.081-10.489-19.903zm-8.078 30.33-.143.143c-4.394 4.394-11.465 4.788-16.447.917-26.066-20.248-57.33-30.951-90.413-30.951s-64.347 10.703-90.413 30.951c-4.982 3.872-12.053 3.477-16.447-.917l-.143-.143c-2.541-2.541-3.818-5.916-3.597-9.503.221-3.59 1.905-6.785 4.742-8.996 30.539-23.808 67.144-36.392 105.858-36.392s75.319 12.584 105.858 36.391c2.836 2.211 4.521 5.406 4.742 8.996.221 3.588-1.057 6.963-3.597 9.504zm96.714 91.609-203.717-67.906-203.717 67.906 86.217 28.739v117.275l3.34 2.227c1.302.868 32.825 21.26 114.16 21.26s112.858-20.392 114.16-21.26l3.34-2.227v-117.275l45-15v70.809c-11.528 3.274-20 13.889-20 26.452v37.5h55v-37.5c0-12.563-8.472-23.178-20-26.452v-75.809zm-101.217 137.542c-9.666 4.707-40.765 16.958-102.5 16.958-61.782 0-92.881-12.27-102.5-16.954v-103.807l102.5 34.167 102.5-34.167zm-102.5-85.448-156.283-52.094 156.283-52.094 156.283 52.094zm182.5 58.906v22.5h-25v-22.5c0-6.893 5.607-12.5 12.5-12.5s12.5 5.607 12.5 12.5z" fill="url(#SVGID_3_)"/></g></svg>