<svg id="Capa_1" enable-background="new 0 0 511.905 511.905" height="512" viewBox="0 0 511.905 511.905" width="512" xmlns="http://www.w3.org/2000/svg" xmlns:xlink="http://www.w3.org/1999/xlink"><linearGradient id="SVGID_1_" gradientUnits="userSpaceOnUse" x1="251.084" x2="251.084" y1="7.905" y2="229.905"><stop offset=".00000036422" stop-color="#a8abff"/><stop offset="1" stop-color="#fac8ff"/></linearGradient><linearGradient id="SVGID_2_" gradientUnits="userSpaceOnUse" x1="256.084" x2="256.084" y1="322.905" y2="352.905"><stop offset=".00000083866" stop-color="#96d1f3"/><stop offset="1" stop-color="#ccfff4"/></linearGradient><linearGradient id="SVGID_3_" gradientUnits="userSpaceOnUse" x1="255.953" x2="255.953" y1="0" y2="511.604"><stop offset=".00000011981" stop-color="#174fa3"/><stop offset="1" stop-color="#b044af"/></linearGradient><g><g><path d="m441.083 208.905h-40v-30c0-11.046 8.954-20 20-20 11.046 0 20 8.954 20 20z" fill="#fff"/><path d="m431.083 67.905-180-60-180 60 70 23.333v118.667s30 20 110 20 110-20 110-20v-118.666z" fill="url(#SVGID_1_)"/><path d="m8.083 322.905h496v30h-496z" fill="url(#SVGID_2_)"/><g fill="#fff"><path d="m491.083 322.905h-470v-60h203c17.673 0 32 14.327 32 32 0-17.673 14.327-32 32-32h203z"/><path d="m334.281 362.429-49.116 34.179h-65.179c12.333 0 22.279-10.217 21.837-22.648-.421-11.841-10.513-21.054-22.361-21.054h-49.465c-20.532 0-40.176 8.379-54.386 23.199l-7.894 8.233-106.302 127.567h98.248l47.421-59h142.977l110.023-84c-17.366-18.029-45.256-20.774-65.803-6.476z"/></g></g><path d="m133.583 213.919 3.34 2.227c1.302.868 32.825 21.26 114.16 21.26s112.858-20.392 114.16-21.26l3.34-2.227v-117.275l45-15v70.809c-11.528 3.274-20 13.889-20 26.452v37.5h55v-37.5c0-12.563-8.472-23.178-20-26.452v-75.809l26.217-8.739-203.717-67.905-203.717 67.905 86.217 28.739zm300-35.014v22.5h-25v-22.5c0-6.893 5.607-12.5 12.5-12.5s12.5 5.608 12.5 12.5zm-80 26.542c-9.666 4.707-40.765 16.958-102.5 16.958-61.782 0-92.881-12.27-102.5-16.954v-103.807l102.5 34.167 102.5-34.167zm-258.782-137.542 156.283-52.095 156.283 52.095-156.284 52.095zm416.782 247.5h-13v-60h-210.5c-13.147 0-24.816 6.458-32 16.367-7.184-9.909-18.853-16.367-32-16.367h-210.5v60h-13v45h121.921c-4.414 3.079-8.547 6.587-12.308 10.509l-8.075 8.422-101.799 122.166 11.523 9.602 101.466-121.764 7.713-8.045c12.73-13.275 30.58-20.89 48.973-20.89h49.465c7.926 0 14.595 6.2 14.866 13.821.14 3.94-1.286 7.667-4.014 10.494-2.73 2.829-6.398 4.387-10.328 4.387v15h67.532l51.047-35.522c15.233-10.6 34.939-10.301 49.622-.033l-100.662 76.854h-144.036l-45.653 56.802 11.691 9.396 41.15-51.198h141.918l112.039-85.539 6.801-5.215-6.013-6.013c-1.095-1.134-2.231-2.205-3.393-3.233h109.554zm-248-20.5c0-13.51 10.991-24.5 24.5-24.5h195.5v45h-220zm-235-24.5h195.5c13.509 0 24.5 10.99 24.5 24.5v20.5h-220zm254.229 118.702h-37.205c2.612-4.642 3.906-9.928 3.711-15.414-.171-4.801-1.561-9.324-3.863-13.288h78.603zm213.771-43.702h-481v-15h481z" fill="url(#SVGID_3_)"/></g></svg>