<svg id="Capa_1" enable-background="new 0 0 512 512" height="512" viewBox="0 0 512 512" width="512" xmlns="http://www.w3.org/2000/svg" xmlns:xlink="http://www.w3.org/1999/xlink"><linearGradient id="SVGID_1_" gradientUnits="userSpaceOnUse" x1="256" x2="256" y1="68" y2="444"><stop offset=".00000083866" stop-color="#96d1f3"/><stop offset="1" stop-color="#ccfff4"/></linearGradient><linearGradient id="SVGID_2_" gradientUnits="userSpaceOnUse" x1="256" x2="256" y1="178" y2="334"><stop offset=".00000036422" stop-color="#a8abff"/><stop offset="1" stop-color="#fac8ff"/></linearGradient><linearGradient id="SVGID_3_" gradientUnits="userSpaceOnUse" x1="256" x2="256" y1=".5" y2="511.5"><stop offset=".00000011981" stop-color="#174fa3"/><stop offset="1" stop-color="#b044af"/></linearGradient><g><g><path d="m76 444h360v-376h-360" fill="url(#SVGID_1_)"/><g fill="#fff"><path d="m76 444h360v30c0 16.569-13.431 30-30 30h-300c-16.569 0-30-13.431-30-30zm330-436h-300c-16.569 0-30 13.431-30 30v30h360v-30c0-16.569-13.431-30-30-30z"/><path d="m0 322h25l27-26h58v-80h-58l-27-26h-25z"/><path d="m512 322h-25l-27-26h-58v-80h58l27-26h25z"/><circle cx="256" cy="256" r="150"/></g><path d="m256 178-105 45 35 15v76s19.091 20 70 20 70-20 70-20v-76l35-15z" fill="url(#SVGID_2_)"/></g><path d="m226 30.5h60v15h-60zm37.5 436h-15v15h15zm-85-223.555-46.539-19.945 124.039-53.16 124.039 53.16-16.539 7.088v70.912h-15v-64.483l-15 6.428v74.06l-2.075 2.174c-.869.911-21.922 22.321-75.425 22.321s-74.556-21.41-75.425-22.321l-2.075-2.174zm140 6.429-62.5 26.786-62.5-26.786v61.161c5.908 4.439 24.874 15.965 62.5 15.965 37.563 0 56.529-11.488 62.5-15.973zm-62.5 10.466 85.961-36.84-85.961-36.84-85.961 36.84zm207.024-36.34h-52.904c1.711 8.123 2.795 16.473 3.197 25h98.683v15h-98.683c-.402 8.527-1.486 16.877-3.197 25h52.904l27 26h21.976v15h-28.024l-27-26h-13.476v170.5c0 20.678-16.822 37.5-37.5 37.5h-300c-20.678 0-37.5-16.822-37.5-37.5v-170.5h-13.476l-27 26h-28.024v-15h21.976l27-26h52.904c-1.711-8.123-2.795-16.473-3.197-25h-98.683v-15h98.683c.402-8.527 1.486-16.877 3.197-25h-52.904l-27-26h-21.976v-15h28.024l27 26h13.476v-170.5c0-20.678 16.822-37.5 37.5-37.5h300c20.678 0 37.5 16.822 37.5 37.5v170.5h13.476l27-26h28.024v15h-21.976zm-34.524 228h-345v22.5c0 12.407 10.094 22.5 22.5 22.5h300c12.406 0 22.5-10.093 22.5-22.5zm-22.326-148c-20.194 63.703-79.876 110-150.174 110s-129.98-46.297-150.174-110h-22.326v133h345v-133zm-150.174 95c78.575 0 142.5-63.925 142.5-142.5s-63.925-142.5-142.5-142.5-142.5 63.925-142.5 142.5 63.925 142.5 142.5 142.5zm172.5-323h-345v133h22.326c20.194-63.703 79.876-110 150.174-110s129.98 46.297 150.174 110h22.326zm0-37.5c0-12.407-10.094-22.5-22.5-22.5h-300c-12.406 0-22.5 10.093-22.5 22.5v22.5h345z" fill="url(#SVGID_3_)"/></g></svg>