<svg id="Capa_1" enable-background="new 0 0 511 511" height="512" viewBox="0 0 511 511" width="512" xmlns="http://www.w3.org/2000/svg" xmlns:xlink="http://www.w3.org/1999/xlink"><linearGradient id="SVGID_1_" gradientUnits="userSpaceOnUse" x1="255.5" x2="255.5" y1="183.5" y2="473.5"><stop offset=".00000083866" stop-color="#96d1f3"/><stop offset="1" stop-color="#ccfff4"/></linearGradient><linearGradient id="SVGID_2_" gradientUnits="userSpaceOnUse" x1="255.5" x2="255.5" y1="233.5" y2="443.5"><stop offset=".00000036422" stop-color="#a8abff"/><stop offset="1" stop-color="#fac8ff"/></linearGradient><linearGradient id="SVGID_3_" gradientUnits="userSpaceOnUse" x1="255.5" x2="255.5" y1="0" y2="511"><stop offset=".00000011981" stop-color="#174fa3"/><stop offset="1" stop-color="#b044af"/></linearGradient><g><g><path d="m7.5 183.5h496v290h-496z" fill="url(#SVGID_1_)"/><path d="m50.5 263.5h410v210h-410z" fill="#fff"/><path d="m295.5 233.5c-22.091 0-40 17.909-40 40 0-22.091-17.909-40-40-40h-130v210h340v-210z" fill="url(#SVGID_2_)"/><path d="m295.5 393.5c-22.091 0-40 17.909-40 40 0-22.091-17.909-40-40-40h-130v50h340v-50z" fill="#fff"/><path d="m7.5 473.5h496v30h-496z" fill="#d8d7da"/><g fill="#fff"><path d="m365.5 143.5h-140v-30c0-38.66 31.34-70 70-70 38.66 0 70 31.34 70 70z"/><path d="m106.5 183.5h-70l-10-60h90z"/><path d="m70.84 92.84s-26.11 4.315-39.553-9.128-9.127-39.552-9.127-39.552 26.11-4.315 39.553 9.128 9.127 39.552 9.127 39.552z"/><path d="m72.16 92.84s26.11 4.315 39.553-9.128 9.128-39.553 9.128-39.553-26.11-4.315-39.553 9.128-9.128 39.553-9.128 39.553z"/></g></g><g><path d="m433 176v-138.5c0-20.678-16.822-37.5-37.5-37.5h-70c-20.298 0-36.869 16.213-37.471 36.367-39.241 3.772-70.029 36.92-70.029 77.133v37.5h155v-37.5c0-40.193-30.758-73.33-69.971-77.128.59-11.885 10.443-21.372 22.471-21.372h70c12.406 0 22.5 10.093 22.5 22.5v138.5h-302.647l10-60h-46.353v-15.054c.847.028 1.739.046 2.679.046 10.164 0 25.295-1.934 35.337-11.976 15.984-15.983 11.426-44.858 11.224-46.079l-.876-5.301-5.301-.876c-1.221-.202-30.095-4.76-46.079 11.224-1.729 1.729-3.204 3.615-4.484 5.594-1.28-1.979-2.755-3.865-4.484-5.594-15.984-15.984-44.859-11.427-46.079-11.224l-5.301.876-.876 5.301c-.202 1.221-4.76 30.095 11.224 46.079 10.042 10.042 25.173 11.976 35.337 11.976.94 0 1.832-.018 2.679-.046v15.054h-46.354l10 60h-27.646v335h511v-335zm-75-40h-125v-15h125zm-.466-30h-124.068c3.719-30.937 30.111-55 62.034-55s58.315 24.063 62.034 55zm-270.943-47.41c6.79-6.789 19.248-7.876 27.37-7.552.324 8.13-.764 20.583-7.551 27.371-6.778 6.778-19.205 7.875-27.335 7.552-.305-7.381.346-20.201 7.516-27.371zm-22.631 27.371c-8.129.323-20.583-.765-27.37-7.551-6.789-6.79-7.875-19.248-7.552-27.37 8.136-.324 20.584.764 27.371 7.551 6.788 6.786 7.875 19.24 7.551 27.37zm43.686 45.039-7.5 45h-57.293l-7.5-45zm388.354 365h-481v-15h481zm-248-45h15 170v-180h20v195h-395v-195h20v180zm-32.5-50c17.92 0 32.5 14.58 32.5 32.5v2.5h-155v-35zm-122.5-15v-145h122.5c17.92 0 32.5 14.58 32.5 32.5v125.406c-8.504-7.993-19.936-12.906-32.5-12.906zm202.5 15h122.5v35h-155v-2.5c0-17.92 14.579-32.5 32.5-32.5zm-32.5-2.094v-125.406c0-17.92 14.579-32.5 32.5-32.5h122.5v145h-122.5c-12.564 0-23.996 4.913-32.5 12.906zm233 67.094h-28v-210h-35v-30h-137.5c-16.782 0-31.548 8.756-40 21.932-8.452-13.176-23.218-21.932-40-21.932h-137.5v30h-35v210h-28v-275h481z" fill="url(#SVGID_3_)"/></g></g></svg>