<svg id="Capa_1" enable-background="new 0 0 511 511" height="512" viewBox="0 0 511 511" width="512" xmlns="http://www.w3.org/2000/svg" xmlns:xlink="http://www.w3.org/1999/xlink"><linearGradient id="SVGID_1_" gradientUnits="userSpaceOnUse" x1="77.5" x2="77.5" y1="236.5" y2="306.5"><stop offset=".00000036422" stop-color="#a8abff"/><stop offset="1" stop-color="#fac8ff"/></linearGradient><linearGradient id="SVGID_2_" gradientUnits="userSpaceOnUse" x1="433.5" x2="433.5" y1="236.5" y2="306.5"><stop offset=".00000083866" stop-color="#96d1f3"/><stop offset="1" stop-color="#ccfff4"/></linearGradient><linearGradient id="SVGID_3_" gradientUnits="userSpaceOnUse" x1="255.5" x2="255.5" y1="0" y2="511"><stop offset=".00000011981" stop-color="#174fa3"/><stop offset="1" stop-color="#b044af"/></linearGradient><g><g><g fill="#fff"><path d="m240.5 138.5h30v182h-30z"/><path d="m7.5 473.5h496v30h-496z"/><path d="m490.5 473.5h-470v-60h203c17.673 0 32 14.327 32 32 0-17.673 14.327-32 32-32h203z"/><circle cx="255.5" cy="27.5" r="20"/><circle cx="255.5" cy="116.5" r="45"/></g><path d="m147.5 236.5h-140c0 38.66 31.34 70 70 70s70-31.34 70-70z" fill="url(#SVGID_1_)"/><path d="m363.5 236.5h140c0 38.66-31.34 70-70 70s-70-31.34-70-70z" fill="url(#SVGID_2_)"/><path d="m170.5 350.5h170v30h-170z" fill="#fff"/><path d="m195.5 320.5h120v30h-120z" fill="#fff"/></g><path d="m498 406h-210.5c-13.147 0-24.816 6.458-32 16.367-7.184-9.909-18.853-16.367-32-16.367h-210.5v60h-13v45h511v-45h-13zm-235 39.5c0-13.51 10.99-24.5 24.5-24.5h195.5v45h-220zm-235-24.5h195.5c13.51 0 24.5 10.99 24.5 24.5v20.5h-220zm468 75h-481v-15h481zm-58.192-387h-130.352c-3.299-22.956-21.5-41.156-44.456-44.456v-10.592c11.528-3.274 20-13.889 20-26.452 0-15.163-12.337-27.5-27.5-27.5s-27.5 12.337-27.5 27.5c0 12.563 8.472 23.178 20 26.452v10.592c-22.956 3.299-41.156 21.5-44.456 44.456h-130.352l-73.192 125.473v2.027c0 42.733 34.767 77.5 77.5 77.5s77.5-34.767 77.5-77.5v-2.027l-64.442-110.473h112.987c2.538 17.662 13.895 32.511 29.456 39.924v149.076h-45v30h-25v45h185v-45h-25v-30h-45v-149.076c15.561-7.413 26.917-22.262 29.456-39.924h112.987l-64.444 110.473v2.027c0 42.733 34.767 77.5 77.5 77.5s77.5-34.767 77.5-77.5v-2.027zm-360.308 190c-31.923 0-58.321-24.062-62.039-55h124.078c-3.718 30.938-30.116 55-62.039 55zm56.942-70h-113.884l56.942-97.615zm108.558-201.5c0-6.893 5.607-12.5 12.5-12.5s12.5 5.607 12.5 12.5-5.607 12.5-12.5 12.5-12.5-5.607-12.5-12.5zm90 330.5v15h-155v-15zm-25-30v15h-105v-15zm-60-15v-144.544c2.451.352 4.953.544 7.5.544s5.049-.192 7.5-.544v144.544zm7.5-159c-20.678 0-37.5-16.822-37.5-37.5s16.822-37.5 37.5-37.5 37.5 16.822 37.5 37.5-16.822 37.5-37.5 37.5zm178-22.615 56.942 97.615h-113.884zm0 167.615c-31.923 0-58.321-24.062-62.039-55h124.078c-3.718 30.938-30.116 55-62.039 55z" fill="url(#SVGID_3_)"/></g></svg>