<svg id="Capa_1" enable-background="new 0 0 511.812 511.812" height="512" viewBox="0 0 511.812 511.812" width="512" xmlns="http://www.w3.org/2000/svg" xmlns:xlink="http://www.w3.org/1999/xlink"><linearGradient id="SVGID_1_" gradientUnits="userSpaceOnUse" x1="255.906" x2="255.906" y1="241.813" y2="371.813"><stop offset=".00000036422" stop-color="#a8abff"/><stop offset="1" stop-color="#fac8ff"/></linearGradient><linearGradient id="SVGID_2_" gradientUnits="userSpaceOnUse" x1="255.906" x2="255.906" y1="7.813" y2="129.813"><stop offset=".00000083866" stop-color="#96d1f3"/><stop offset="1" stop-color="#ccfff4"/></linearGradient><linearGradient id="SVGID_3_" gradientUnits="userSpaceOnUse" x1="255.906" x2="255.906" y1="0" y2="511.813"><stop offset=".00000011981" stop-color="#174fa3"/><stop offset="1" stop-color="#b044af"/></linearGradient><g><g><path d="m375.458 261.451-78.552-19.638h-82l-78.552 19.638c-26.71 6.678-45.448 30.677-45.448 58.209v52.153h330v-52.153c0-27.533-18.738-51.532-45.448-58.209z" fill="url(#SVGID_1_)"/><g><path d="m296.906 241.812h-82l-33.348 8.337 59.348 121.663h30l59.348-121.663z" fill="#fff"/></g><g fill="#fff"><path d="m189.906 109.812v47.586c0 21.084 9.775 39.859 25 52.025v32.389l41 29 41-29v-32.389c15.225-12.166 25-30.941 25-52.025v-47.586z"/><path d="m7.906 371.812v37l20 53h18v50h420v-50h18l20-53v-37z"/><path d="m387.906 221.812h-10c-11.046 0-20-8.954-20-20 0-11.046 8.954-20 20-20h10c11.046 0 20 8.954 20 20 0 11.046-8.954 20-20 20z"/></g><path d="m375.906 42.812-120-35-120 35 54 15.75v51.25s8 20 66 20 66-20 66-20v-51.25z" fill="url(#SVGID_2_)"/><path d="m381.906 137.812h-30v-19c0-8.284 6.716-15 15-15 8.284 0 15 6.716 15 15z" fill="#fff"/></g><path d="m488.406 364.312v-112.5c0-31.706-25.794-57.5-57.5-57.5h-16.548c-3.274-11.528-13.889-20-26.452-20h-10c-15.164 0-27.5 12.337-27.5 27.5s12.336 27.5 27.5 27.5h10c12.563 0 23.178-8.472 26.452-20h16.548c23.435 0 42.5 19.065 42.5 42.5v112.5h-45v-44.653c0-31.03-21.025-57.959-51.129-65.485l-72.871-18.217v-23.09c15.311-13.555 25-33.39 25-55.469v-93.21l30-8.75v42.165c-8.729 3.096-15 11.433-15 21.21v26.5h45v-26.5c0-9.777-6.271-18.114-15-21.21v-46.54l28.286-8.25-146.786-42.813-146.785 42.812 73.286 21.375v93.211c0 22.079 9.689 41.913 25 55.469v23.09l-72.871 18.217c-30.104 7.526-51.129 34.455-51.129 65.485v44.653h-83v45.868l22.314 59.132h15.686v42.5h15v-42.5h405v42.5h15v-42.5h15.686l22.314-59.132v-45.868zm-100.5-150h-10c-6.893 0-12.5-5.607-12.5-12.5s5.607-12.5 12.5-12.5h10c6.893 0 12.5 5.607 12.5 12.5s-5.607 12.5-12.5 12.5zm-21-103c4.136 0 7.5 3.364 7.5 7.5v11.5h-15v-11.5c0-4.135 3.365-7.5 7.5-7.5zm6.733 157.415c23.415 5.854 39.767 26.798 39.767 50.933v44.653h-43v-41.5h-15v41.5h-72.497l51.421-105.413zm-95.233 70.604v-51.621l21.132 8.302zm41.049-84.151-13.32 27.307-34.555-13.575 26.847-18.989zm-63.549 6.446-33.5-23.695v-14.776c10.054 5.201 21.437 8.158 33.5 8.158s23.446-2.956 33.5-8.158v14.776zm7.5 20.191v82.496h-15v-82.496l7.5-2.946zm51-174.187c-2.82 3.386-15.465 14.683-58.5 14.683s-55.68-11.297-58.5-14.683v-39.068l58.5 17.062 58.5-17.062zm-151.714-64.818 93.214-27.188 93.214 27.188-93.214 27.188zm34.714 114.586v-31.17c10.533 5.741 28.413 11.084 58.5 11.084s47.967-5.343 58.5-11.084v31.17c0 32.485-26.243 58.914-58.5 58.914s-58.5-26.428-58.5-58.914zm15.979 92.525 26.847 18.989-34.555 13.575-13.32-27.307zm20.021 37.787v51.621l-21.132-43.32zm-135 31.949c0-24.135 16.353-45.079 39.767-50.933l39.309-9.827 51.421 105.413h-72.497v-41.5h-15v41.5h-43zm398 87.785-17.686 46.868h-445.628l-17.686-46.868v-28.132h481z" fill="url(#SVGID_3_)"/></g></svg>